<mxfile host="app.diagrams.net" agent="Mozilla/5.0 (Windows NT 10.0; Win64; x64) AppleWebKit/537.36 (KHTML, like Gecko) Chrome/138.0.0.0 Safari/537.36 Edg/138.0.0.0" version="28.0.7">
  <diagram name="PÃ¡gina-1" id="ZKefEIdG3C1WpxM94HbM">
    <mxGraphModel dx="2956" dy="1109" grid="1" gridSize="10" guides="1" tooltips="1" connect="1" arrows="1" fold="1" page="1" pageScale="1" pageWidth="827" pageHeight="1169" math="0" shadow="0">
      <root>
        <mxCell id="0" />
        <mxCell id="1" parent="0" />
        <mxCell id="HS-kTsl2HhBY35uQCvbo-5" value="Comprendiendo Leer Numpy" style="rounded=0;whiteSpace=wrap;html=1;fillColor=#a20025;fontColor=#ffffff;strokeColor=#6F0000;" parent="1" vertex="1">
          <mxGeometry x="335" y="510" width="120" height="60" as="geometry" />
        </mxCell>
        <mxCell id="HS-kTsl2HhBY35uQCvbo-10" value="" style="shape=image;verticalLabelPosition=bottom;labelBackgroundColor=default;verticalAlign=top;aspect=fixed;imageAspect=0;image=data:image/png,iVBORw0KGgoAAAANSUhEUgAAA+EAAAFKCAYAAABy/V7iAAAAAXNSR0IArs4c6QAAAARnQU1BAACxjwv8YQUAAAAJcEhZcwAADsMAAA7DAcdvqGQAAHQiSURBVHhe7d13eFTVvsbx7/SWBiEJhEDovSgiVaVbUVFQARU99l5BPB4btnOPvSAqigo2LBSPXUHUIyhFlF4CCCR0EkLazGTa/SMwMJsiARkCvJ/nmefeWeu390zWJEfeWWuvbUrLbBZBRERERERERA47s7FBRERERERERA4PhXARERERERGROFEIFxEREREREYkThXARERERERGROFEIFxEREREREYkThXARERERERGROFEIFxEREREREYkThXARERERERGROFEIFxEREREREYkThXARERERERGROFEIFxEREREREYkThXARERERERGROFEIFxEREREREYkThXARERERERGROFEIFxEREREREYkThXARERERERGROFEIFxEREREREYkThXARERERERGROFEIFxEREREREYkThXARERERERGROFEIFxEREREREYkThXARERERERGROFEIFxEREREREYkThXARERERERGROFEIFxEREREREYkThXARERERERGRODGlZTaLGBuPJplJyWQlp2Aywbqi7eQVFhpLRERERERERKqEoy6EV/ckcMtJPWiZlknT1Bok222YrBHshLC6zGCP8O2KZXy+eAnjf19gPFxERERERETkiDmqQvgLvQbTOb0uYCI1IQWPA4q3rseVnIAtKQFTyAeUQ4INzCHWl25nxLfTmDRvkfFUf4uevXrS95zzaNK0CdWqVYu2+3w+/vzzT7755hu+/OJzSktLY44zunvoUAYNGozVaqWkpJgXXniRjz/60Fi2X33P7cs///kvPB4PACtXrqL/hf0AOKdvX26++RYyMjJYu3Ytzzz9ND///D/DGaqGhx4ewQUXXABAIBDgrbfeZNTLLxvLREREREREjkpHxTXhXWs3ZdoFd3N2rSZkWJ24/RFcFg+hoI3kjIbYPTUwRWxgdYM9EcI2wEVmUk1eu2QwX9x4PZnJKcbTHrTWbdrwzjvv8tRTz9CzV0+ysrLweDzRR2pqKu3bt+e+++5j0uRP6XtuX+MporKzszn11NOwWq2EQiF+mPZDpQP4X+l7Tl8yMzOxWCzUr1+fARddZCwRERERERGROKjyIbxF9Uz+3b4ftSwJeCwWfMV+fMVlFG3fRihogrAVQrbdHlaIOIAdD7OHk+u3ZMZd99K+brbx9JV2Tt++PPvsc7Ru0waLxWLsjmEymahWrRp19/O6/fpdQFZWFgCrVq3krbfGGEv+dg673dgkIiIiIiIicVDlQ/izpw0mzWbHHgmzdk0++UVBLK7q2EyJOM0pu4L3zkfEXvHABmYn2F1QDG5HIuP/cSO1U3YtG6+sU045ldtuu520tLSY9kgkQkFBPjk5y8nJWc6aNWvw+XwxNXuTnZ1Nj549sVqtFBUV8d6777Fy5Spj2SH75ptv2Lp1KwBbt27hiy8/N5aIiIiIiIhIHFTpEP5i7yvIcDiI+EOsy/cSsaWQklSXVE89PPb0imXnwR2PnTPhkR0Pkw0cTrDZIQA4nCQlVGfspdcYX+aAXXTxxaSnp0efRyIRli1bxt1330nPHj24aMAALhowgPPPO5dePXvw8siXyc8viDnH7rZu3cr1113LCW3bcNqppzB58iRjyd9i8uRJ9O7VkxPatqF3r158/plCuIiIiIiIyJFQZTdmq5uUzotnDaJ5OIW89UW43NVJTUwnwZmM1WIBcwSTKQSWEJh3PCxBcALOMLiAJDsU+cFsghQHhCPgD3Hhy0/y8585xpfcrz59Tuf+Bx4gOTkZdgTw2bNn8cD997Np0yZjeZTH4yEhISGmpnWbNlx66WWcfPLJJCenYLVa8Pt9bNiwkalTpvDmm2P2upmbx+PhxptuolfP3qSlp2OxmCkqKuJ/P/3ErFmzGH7vvXvdmO2GG26kV+9e0fNMnTKVV199JfocYMiQKzj//H7Uza6DzWbH5/Mx748/GPnySP5x5VXUqVuxZL4gv4CXXnqRhQsX7nF833P7kpVVB5fLRTgcpqS4mMWLF/POO+8wY8b0mPp92dvGbDnLc7j6mmto2LBB9L3lLF/OK6+8ssd5MzIyGDx4MN2696BWrZo4HE4ikQilpSUsWriIsWPH7nEMQJcuXbn88stp0bIlSUlJmEwm/H4fW7fm8/P//sebb47Z43Nu3/5krrjyCtq0bkNCYiIWy67P8dNPJ/PWm2/G1N9ww41cdvllJCQksm1bAS+/PIpPPv4opkZERERERI5tFk9ijYeNjVXBre3OpH31TLauL8PhSiLZnUqSOxWb2Q5YMGHeMZFv2vUwmcBKxcNprXi+zgsmNzjNYAEw0TItk7GzKrc7+CWXXMKJ7dphMpkA2LatgFGjXmbhgtgwahQIBGIC9eDBl/Lggw/RqlUr3G43ZnPFYgSr1UpKSgonnngi3bv3YNWqVaxfvz56XMOGDfj3/z3J6aefQWJSImazGZPJhNPppHGTJtSqVYuUlBRsNhsA27Zt46MPxwNwTt9z6dr1FFJTU0lNTSU3L48ff/gheu5HH32Myy4fQo0aqdHr3K1WK1lZWbRu3YoaNWrQsGFDUlNTsdvt/O9//2PdunWwI/Q+++xzDLjoImrUqIHNZsNkMmE2m3E6ndSpU4fefXqTmprK9J9/jr7mvnTv3oPmzZsDEA6HKSgoYMiQy8nMrB3z3jIyMjitWzf8Pj8LFlTciq5Vq1a88OJLdOvWnZSUFKxWK+y4Nt9ud5CVlUX3Hj2w2+zMmTMn+poDLrqY+/71Lxo1bozT6Yx+xlarlaSkJFq1akWjho344otdKwhuuOFGht97L40aVRxj/Bw7duzICW1P4IcfphEIBMjOzubW224jPT0DAJfLRVpaGhM++SR6ThEREREROfZV2eXojavVJM3swmyy4nFXw+NIxoYDIg5MIeuOJei7b8q287pwS8X/zSuElflgcsAWPywKwFYzlJtpVque8eX+Ut26daNBC2BFzgq+n/p9TM1f6dfvAm648cbobPremEwmGjZqyPB7h9OwYYNo+/U33MiJJ54YDYi7M5lMNG/eHLfbbez6SzfceCNnnHkGVuveN5lr2LARWVl1jM1RDz88gg4dO+71fe3kcDjp378/t9x6q7FrvywWC7169SQhIdHYBUBiYiJDrriSDh06AuB2e3A6ncayGB6Ph4svuZievXpGnw8YMCDmMwkEyiktLcXr9RKJVCwU2X0TvgEXXcyll10WXXWw85jd600mEx06dmTYPffAjvdqN2yIZ7NVfEkgIiIiIiLHjyobwhPsTkq9QVxJNUh2puEyVwNLAt7SEkoLiigr2E7p1u2UF3l3C+NWKCqFFWsqfrTMGpDlgGZOaGiBomLYFsQatHJ+y3bGl9yvlN3uAw6wbrdZ6gN13vnnk5SUFH2el5fHM08/zVX/uJJPPv4oZsa8QYOGXHzxQADOPvtsOnXqHA26kUiEBfPnc98/7+W6a6/lu+++JRAIRI89UNnZ2Zx55lnY7Q7Ycd4//vida66+mhPatmHEww+Rn5+/z4B+8SWX0PaEE6LvKxAI8N1333LDDdfzwAP3s2zZsmgotdsdnHXW2bRu08Zwln0zm81YrTaWLVvGiIcfYujdd+3xs6anp3H66X2iz4PBIAsXLuTxxx+na5fOnHF6H1595RUKC7dFa6pVq06fPmfAjksDatRIjfbl5eUy8JKL6dqlM507deTaa67h+6nfU1ZWBruF9sTEii8GQqEQ30/9nr7nnEPnTh258847oqsELBYLHTp0pFWrVixcuJBZs2YSCoUACAZD/Dbnt+jrioiIiIjI8aHKhnC31U4ZVlzOJCxhB2acmNzVMDmSKNq6lrKifMKhECazh0hwxyx40Ab2VKjTCJKrQ9BUsSmbCUgyQ6YbthZByETnuk2NL7lfO4PqwerT53QaNmwYfV5QkM+zzz7NO++MY+7cuTz22GOM/+CDaMC0WCy0b38yHo+Htm1PICEhIXrs4sWLueGG6/nyyy+ZNWsmw4YOZdq076OB90C1bXsCNWrUiD7fuGEjzzzzDHPmzAZg0qRJjB//AeXl/t2O2qVLl67R2fdIJMK0ad8zbOhQfv3lFz7773+575/DWbXbbu/p6emceuqpu53hr+Xm5nLfP4czadIkpkyZwrChQ/n2228Jh8OwI6ifcOKJAJSVlfLyyyO57NLBfPzRh5SWlrJp0yZeffUV3nnnnejPYTKZqFdv76shUlJS6NPnjOgs95w5s7nrrju4447bAejVq3f0lnLseH8vvPBc9HrxH6ZN44svPo9+jsnJydSrX/FaDz/0EE88/hgTJ07k3088xr///UT0PCIiIiIicnyosiE8EDIRsbqxm1xYsYPVRsBXRsm6VZjtTpwpNXAkVMNssREJmyGyI4gHrBC0gN8MAVPFo9wEZUDQDIkOKA2R4ty1lPhAFBRU3OJrJ+tf3CPcqHGTxjHLxVeuXLnHcvZp075ny5Yt0efVqqfQvn176tevH10KHwyG+O23OXts3DZj+gy8Xm9M21/JqpOFw7Hry4Xc3LUsmD8/pmbB/AUUFm6PadupTp260f/f6/UyY/qMmP6VK1cxZ87saGC22WxkZ+89/O5NJBJh7tzf9rht2w/TplFcXBx9npSUTIcOHVm4cCFffP45/fv3540xb/LNt9/xzbffMfLll9myeUvMz7HzS5UF8+ezadPmaHtCQiI33HgjP/z4I599/gWPPfZEzOy9ccySk5N4+pln+PiTT6KPPn1Oj64OsNtt1M7cFdonTJjAIyMeZsKECdE2ERERERE5flTZEL5621YsESsWkwULFkIhPyUbV+EvK8KZVA2r0wUWMxFzBByAwwqhEJTboNwKATOUW6DcDJsCsB0oNVXcsizoxVteueXbBQW7ljMDtGjRMuaa4L9SvXpqdKMwgLy8iiXLu1u4cCFe7677izscThKTEqmeWj3aFgiUx2zYttP69espKSkxNlfKtsJCYxNlZaUEg0FjM+3atSMhYdfPX1JSstf3tb1oe3QJNkC1lJSY/v0JBoNs3rwrIO+0fft2/P49Z+c9Hg8vjRzJff+6n/bt25ORkUFGRgannHIq9/3rX9El5LsrLS3llVGjWL16dcxKApvNTp06deh7bl9effU1brjhRtjL51itWnUaN24S86hfv/5uNSYs+1jOLyIiIiIix58qG8Lvn/EufxZtwoIFEya8JfmU5m/E5naDxUw4HCQSDmIyhTBZIuArhvIABCLgs0IhsCUEa0uhnIql6cEdYb2GjeVb9gyM+7N8+bKYZdl1s+ty1VVXx9TsT2FhQUyYrWa4xpwdIdJs3rXBWSQSJhwKs23bri8ArFYr1avvCuU7JScnx8zQHoyaNSt27t5drVqZe/2yYdmyZdHrpAEcDsdeN5zb/edhxzXUlWE8HsBsMe+1/Yorr6RTp87RTdTWr1/PpEmTmDRpElu3bt3npm0///w/Lh08iGefeYYF8+fH/Fzs+FwuuvhiTjnlVAoK8mM+x82bN5OTs3w/jxy2bIldRSEiIiIiIsevKhvCi8rLuOjrxxk2exTfb5hFWbCs4t1azIQjAYIhP5EImMvLMRVtB58fvF7wFkNBPmzIh0I/JHrA7qyYGQ+YwGeBgIuvl/9hfMn9+mHa92zcuOs+0TabjUsGXsK1114fU2c0cNAg+p7bl61bY8NbvXr1yM7Ojqnt1q0bqam7NgkrLS1j48aNlJbuCoU2m40GDXZdW75Tm7Zt9hqW9ydneU5M4GzYsCEXXXxJ9PnOTch230xup9LSUoqKdi3v9ng8tGjRIqYGoGnTZtHbpkUikUptaGez2WjatJmxmZY77uW9U1HRdmbNmknrVq13u0VbAc8+8zQjHn6IEQ8/xFNP/odt2wp2O0us0tJS3nlnHJdffhldOnfiiScej7k0ICkpiTZt21BQEPtlSlHRdobefTcXDRiw18fgQQP5+KMPo/UiIiIiInJ8q7IhfKeJf/7EoJ8fotVXV/Pmtl8I2yAUCRKOBDGbLJisSeBIBVcqJNWCGmnQoBZUS4HUahCxQ8BSMQseNkEENm/dxp+FuwLWgVi5chXffRu7M3dCQiI33XwTEydN5o477qR374pNu/qe25fHH3+Cb7+bwt13303dutn8MmNGdPMugDp16nDd9TdEg3PrNm246uqrY8Ll8uXLmDt3LsuXL4t53U6dOnLlP/4RfX7BBRdw5plnxSyTPhAzZkznzz93XW+dkJDIsGFDeWPMm/znyaf45JOJ+7392Nzf5kYDqdVq5exzzqF7jx7R/jvuuJOOHStuHwZQXFzM3N923Z/7QLRrdxJXXb1rxUH3Hj24+OJLYnZ0z8lZAYbbiIVCIUp2u27eX14evTZ9dx06dGTsuHEMGXJFTPtHH37I6tV/Rp+bTCZsVtsen2P9+g0Yds89ZGTsuYqgZ6+ePPLoo9HnN9xwIz9Pn84f8+Yz7YcfGHDRxTH1IiIiIiJy7DOlZTar3JbaR9gvpz9Pii0Ru8VFoqP6jq3Pd2MC7EEIlIHLDLYgWMNgDYElAtYIz/w6if/8PCn2uAPg8Xh4+uln6NR51+3C/kogEOCtt95k1Msvc/fQoQwaNDgaliORCH6/n1AohN1uw2bbdR/p7du38+8nHufrr7+mYcMGPPf8i9Stu2sjtEgkgs/nIxKJ4HA4MJvNRCKR6AZuK1euov+F/QB46OERXHDBBdFjJ02axIiHH4Id9y6/8847Sd7Htdrbt2/H5/NFQ+bmzZu5/1//YtasmXt9X8FgCL/fh9lsxul0xtxW7aeffuL22/Z/r3Dje2XHsdu2FRAIBElNrRFzy7SCgnwee+xRvp/6Pf958inOOKPi1mOhUIhZM2fy8ssjcTpdXHf9dZx0UvtoUN85Ph06dOSxxx8nLS2N7dsLWbZ0GVu2bCU1tTontT8pGvbLysp4/vnn+OjDD7nl1lsZMmRIzI75ZWVlbNiwkXC44kuJ1NRUqlWrzqpVf9L/wn5kZ2fzwosvxezKvmTJEgYN3LXyQEREREREjn1Vfibc6D9LPiFsNmO3ufYM4AARKjZjMzsrZr7D5oq2SMUs+LwNfx5UAGfHkuWhQ+9mypTvCAYP9NrmCKEdta++8gq//DIjel20yWTC6XTi8XhiArjf7+Ojj8bz9ddfw47AOG7cuJgdwU0mEy6XC7fbjcViYe3atTHXjh+oyZMn8eRTT5KXl7vHLc62bt3K66Nfo7y8PKZ9p5UrV/HmmDEUFORH26xWCx6PB5fLFRPAc3KW8+ILz+129F8LBALk5ubCjg3RMjIyYgJ4ebmfiRMnRneZn/b9VLZvr1gib7FY6NylC+++9z5vjBlD+/Yns787uJlMJlJSqtGxUyf6ntuXzl26xMy2L5g/ny8+/xyAkS+9xDdffxPzO+B2u2nYsEF0c7bq1VNjvqhJTEzEbt/1GQPYbJVbuSAiIiIiIkc/iyexxsPGxqpsadFavt34GybMuKwO0px7bnCGKQLmMJgjYAqBOUJJwMsbC7/l6s9fMlZXSiAQ4Ltvv2X9hnVkZtYmJaVadPZ5d6FQiI0bNzJ27Nu88cbr0WN/+vFHPAkesrOz99hILRKJkJuby8iXXmTcuHExfYsXLyIYCNKsWVNcrl23OotEIqxauYo3xrxOhw4do8vbt23bxkcfjgege/ceNG/ePHrM0qVL+fGHH6LPc5Yv5/3332flihUUFhayctVKPvlkAo8+MgKb3c4ZZ5yO211x3oKCAj7+6MNo2F26dCk5OSto0LAh1atX32MsfD4fU6dO5cEHHiA3Ny+mb292f6/hcJjJkyYRCofIyKgZc+6ioiLef/89Rr40Mtq2YkXFsvTmzZrHbMJWXu5nypSpVKtWbY/xWbduHSUlxdSv34DExMQ93n95uZ///fQ/Hn30kZgvOaZN+55AMEB23WwSEhL2WBkRCoXIzc1l3Ni3Wbp0KZs3b6Z58+Y0bNQIs9lMMBhi6pQp/Pzz/2KOExERERGRY9tRtxz9QDR0pPNp9u2k2hPBYqLrskdZ5dvzVld/h4yMDE7ucDJtWrfF7fYQCAZYtHABv/8+d4/7Wxv17t2bDh064nZ72LhpAz9Mm8bChQuNZTE8Hg89e/WiXbuTCJSXM2vWTKZMmWIsO2AZGRkkJHj2+V6NS+jnzfuDK4YMMZYB0LBhA7p170GD+g0JBAPMnfsb30+dusc9zQ9Ghw4d6da9G4mJiSxYsJAvv/h8n+fNyMigZ89eNG/RnM2bNx/QuLLj/Xfu3IUmTZsCsGTxEr7/fmrMNeB706pVKzp26kT9eg0IR0IsX7aMX36Zsdcx7d+/P81btGTGjJ/3uE+8iIiIiIgc+47JEA7QxFGLz+oNp5o9gZOW30uuX7eJ2pu+5/bllltuZ9asXxn79lsxwfHaa6/niiuHkJBQcX/tYDDIO+PG8cILz+92BhERERERETlQx2wIB2jjyubaGr0Yuu5d/OG9X9d8vOt7bl/++c9/4fF4CIVC+P1+IpEIVqsFhyP2vtrLly9j2NChrFmzJqZdREREREREDsyeFzMfQ+Z713Br7psK4PsRDoWJRCpu3WWxWHC73Xg8npgAHolEWLliJU/+50kFcBERERERkUNw1G3MJn+vnJwcNm/ZTHp6BikpyVgsu3bs3rm53McffcSDDz7AmjWrY44VERERERGRyjmml6NL5TVs2ICmTZuxdu3aA9rMTERERERERA6cQriIiIiIiIhInBzT14SLiIiIiIiIVCUK4SIiIiIiIiJxohAuIiIiIiIiEicK4SIiIiIiIiJxohAuIiIiIiIiEicK4SIiIiIiIiJxohAuIiIiIiIiEicK4SIiIiIiIiJxohAuIiIiIiIiEicK4SIiIiIiIiJxohAuIiIiIiIiEicK4SIiIiIiIiJxohAuIiIiIiIiEicK4SIiIiIiIiJxohAuIiIiIiIiEicK4SIiIiIiIiJxohAuIiIiIiIiEicK4SIiIiIiIiJxohAuIiIiIiIiEicK4SIiIiIiIiJxohAuIiIiIiIiEiemtMxmEWNjVWW3O7DZ7FitNiyWnd8fmDCZTIZKERERERGR40skEgEq4l0oFCYYDBAIlFNe7jeWyhFU5UO4yWzG5XThdLoo9/vxeUsoD/gJh0KEwiGIVOm3LyIiIiIiEj8mExazBbPFgt3mwOlKwO5w4PN58fq8RMJh4xESZ1U6hDscLjweD2VlJZSVFhMMBoiEQ8YyERERERER2QuT2YLVasPtScTtTqC0tBS/32sskziqsiHc40nEarVSWLiVQLlf4VtEREREROQgmcwWbHYHKSk1CAaDlJYWG0skTqrkxmwJCUmEiZC/ZSPlvjIFcBERERERkUMQCYco95WRv2UjYSIkJCQZSyROqlwI93gSCUXCFG/LJxQqN3aLiIiIiIjIQQqFyiuyViSMx5No7JY4qFIh3OFwYbVaFcBFREREREQOk51B3Gq14nC4jN1ymFWZEG4ym/F4PBQWblUAFxEREREROYxCoXIKC7fi8XgwmatMLDwuVJnRdjldlJWVENA97ERERERERA67QLmfsrISXE7NhsdTlQnhTqeLstJibcImIiIiIiISB5FwiLLSYpwK4XFVJUK43e6g3O8nGAwYu0REREREROQwCQYDlPv92O0OY5ccJlUihNtsdnzeEs2Ci4iIiIiIxFEkHMLnLcFmsxu75DCpEiHcarVRHtC14CIiIiIiIvFWHvBjtdqMzXKYVIkQbrGYCYc0Cy4iIiIiIhJv4VAIi6VKRMPjQpUZ6ZCWoouIiIiIiMRdKBzCZDIZm+UwqSIh3ASRiLFRREREREREDrdIpCKTSVxUiRCub11ERERERETkeFAlQriIiIiIiIjI8UAhXERERERERCROFMJFRERERERE4kQhXERERERERCROFMJFRERERERE4kQhXERERERERCROTGmZzY74DbpTU9NZn7fS2CwiIiIiIkc5s9lM9x69adiwkbErqri0mG+/+oqCgq3GLomTzKyG5OdvNjbLYaCZcBEREREROSxMJhMvjHyVXn1ON3bFqJZSnbHvfUTtrCxjl8gxRzPhIiIiIiJyWDRr3pLRb4ylx2kdCYVCxu4Y/3roEUqKi3nh2aeMXRIHmgmPn2N6Jrx69VTad+hEp85do4/2HTpRvXqqsfRv0aNnH0a/+Q633HansUtERERE5LiRnV2fK/5xDZ4ED36//y8DOEBJcTEpydWMzYesQYOGXHrZlQy95z7uvPte+pxxFi6X21gmEjfHdAg//cyzeO6FUbww8rXo4+VX3uDLb3/gs6+mctY55xoPOWAWi5Xs7PoxbRk1M2jevCXZ9RrEtIuIiIiIHE/Ou+BCklNSMGHCZDIZu/fKZDrw2gNx6mnd+eDjT3nvw0ncdudQLrpkMAMHX8ZjTzzF19/9yD3/fACLxWo87G+TWTuL8Z/8l//9MpfLh1xl7Jbj2DEdwncqKS5m8eKFLF68kKVLFlFSXEx6egZ33jWc7j17G8v/0kknd+CLb77n8X9rqYyIiIiIiFFqahoAESJEIgd29WskcuC1f2XgpZfz2BNP0aBBQ8r9fn6bPYuPP3yfiZ98xKJFCzBbLHTteirZ2dnGQ/82iUlJuF0uLBYzDpfT2C3HseMihG9Yv45/XD6Qf1w+kCsuu4SL+5/LsiWLSU5J4Zy+5xvL/5LNasNmsxubRURERERkx6x2xf81H/DstslkwmQ+9Hhyyqnd+MdV1+FwOpn563QGXXIBN91wFU8/+QT/+fcjXDVkEEMGD2DG9J8JhcLGw/82y5Ys5rprruDqKy/ljddGGbvlOGbxJNZ42NgYb263h+KibcbmQ9aqdRs6dOzM9sJtTJzwUbTd6/VSt149Wrc5gXK/n7y8PAYOvpyGDRsxf/4fMefIrJ3FFf+4mjYntCM1tQYX9r+YFq3a0LBRY4hEqJ1Vh44du1BSUkx6RgYdOnYmLy+X1av/ZNjw+7hsyD/o0bMPhYXbyMvLjTk3QKfOXbn19qFcOuRK+p7bj8zM2ixetJBgMBCtOe+8Czn7nPMoKSnm5I6duOvuexlwySBatmzFypUrKC4uijmniIiIiMiR1KNnH7zeMnJz19K7zxmMGzvGWLKHTl264nS6+GHaFGNXpQwdfh+NGjVh+dIl3HvPXWzevMlYQmHhNqb//CPbtxdG21wuN1dfewM33HQbFw64mC5dTqWkpDjm3/A7s0GTJs3JyVnOjbfcxvU33Mr5/fqTXa8eC+bNi/l3fL8LBtC27YmUlBRH30f9+g246dY7uOraG+h34QBOOKEd6zesoyB/1+3Zdn8dr9/HsOH30av36axauYLCwr8/NwEkJlXH6y01NsthcFyGcHaE39ZtTqAgfyvffvcV191wC+1Oas/SpUtYvy4vWnfzrXdw8cDLCAYDWG1WBg66nMaNm2C1WklISKRlq9Y0adacNatXAdChY2d8fh8DB15G8xYtSUtLp06duvTodToBfzkLdgv5dw+7jzvuuocGDRuRlpZORs2anNiuPb37nMG8eb+Tv3ULANdcfxN9zjiLevUacNElg6idVYe0tHSaNW/Baad1548/5kZrRURERESOtCMVwhs0aMglgy7D4XTy0YcfMPPX6caSvWravAUvv/IG3Xr0IqNmTdLS0qlXvwF9Tj+LatWq88uM/wHQslVrbr7tLmpl1uaMM8+mV+8zyMioSXpGBm3ankiHTp3534/T8Hq9ANxz7/107noqa1avYuGC+Zx1zrn85+kXaN3mBNLS0klLS6dxk6b06nU6uXlrWf1nRabY+Tp16mZzxhnn0PaEE8nKqsv69XksXDA/5r3/XRTC4+fQ13schapXT+WkdicDsOrPVSxbspj58+aSnJxC79677mGYWTuLkzt2pqyslE8nTeTDD97j9luu58n/e4zS0hJWrVrJ7bdcz52338S3X38VPa5p02ZM//knup/Sge6ndODrr77AZrVyxplnRzd/uHjgYM67oD/esjKefvIJunQ4gcsGD2DhgvnUzqrDXUPvjdkowmaz0bBhI55+8gk6ntSKywYPYNWqldTKrM1ZZ/eN1omIiIiIHK/SM2qSkJhESUkxCxfErnDdl+SUFIbfez+1s+owe9YvDBxwHl06nMCY0a/g8/k47/wLOL9f/5hj6tbNJiWlOv+6dygdT2rFQ/cPZ+vWrTRv3pI7hw6Pqd1dYmIiy5ct4567b6PjSa244LwzmfnrdJKSk7n2+ptJTkmJqc/KqkNJcRHDh93B0/95nNV//hnTL0en4yKE18qszVvvjOetd8Yz9t0P+WjCZzRt3oL8/Hw+nfwJAN9P+Y6yslJO7tiZzNpZANFvtnJylvPDtKls3LCeX3+Zzrq8XCIRCAUC/PrLdObM+pWCgvzo623YsIHXR4/C6y3D6y3js/9Ooqy0lOSUlOjmD31OPxub1cqkiR/z8YfvEwoFyVm2lBeefZKtW7fSpElTeuy2aZzJZGL27F+Z+EnFjH7OsqVM/98PANSuXSdaJyIiIiJyvPP7fGwv3LXUfH+6ndaTRo2asG5dHk88NoI//1xFKBRk9GsvM3XKNzicTk4/46yYY4LBAK+OepGpU74B4OuvvmD0qyPxl5fTps0JNGjQMKZ+p88+nczNN1zNjz98D8D6dXm8Nmok+fn5ZKRn0LhJs5j6kpJiXnzxWX74fgqfTp7Ar78c2My+VG3HRQhPSEykRYtWtGjRimbNW+L2uFm0aAH33H0rv82eBcAP06ayauVKMjJq0qv3GVgsVrp170koHObLz/9LKBQ0nnaf1qz+M2ZJe8HWLZSWlkSfZ2fXp0aNGvh8Xub9MTfaDjB//h+s+XMlLpebZs2bR9vLy8tZtGBBTO3WrVsIBHZdcyIiIiIiIuDxJFC9RsUO7X+lbr1s7A7HHv+GB5j16y94vWVk1s6KuT3xpo0bmTlzRkztgnm/U1iQT0JiEukZNWP6dvJ6yzin7/l8POlzpv74K1999wP9LxpIKBjAZDZjtVhi6rcVFJCzfGlMmxz9josQvnPZ+O23XM+gi86nS4cTuGrIoJjrKUKhYPQbqW7de9L3vH40btyEvNy1lb4uJRQKGZtiWCxmzGYzkQgEg3uG+zKvF5PJhMUae9/CcGT/5xUREREROZ5t3rSRkuIi3B4PHTt2NnbvlcVqxWQy7fXf8CUlxYTDEcxmMxbLrugUDAQOeKZ9dxcPHMzdw+8jPaMW8+f9wa8zZtD+5A5k1KxlLIVDeB2p2o6LEL5z2fivv0xn1aqVxu6oqVO+YdOmjdSv34D+/S/GYrXy9Zef/+2/+PkF+Xi9XmxWK+lpGTF9FouVjPQMgsEgRdu3x/SJiIiIiMi+rVq1koUL52OxWOjd5wyaNm9hLNlD0fbtBINBUlKqGbuoV78+drsdr9dL/m6XnyYmJe2x5NzlcmO12QkEyvH7fTF9O/U5/WysFgvvvj2GO2+7gREP3ceD/xpOfv6uc8ux77gI4Qdq/bo8Zs/8BU9CAk2bt2DTpo3R6zz+TtsLC1m5MgeH00m3nr1iNmDr1ft06mRnU1S0PbpUXkRERETkaBQO7zm7vC+miInwXmajK2vihI/Ytq2AzNpZjHj0/2jVuo2xhDZtTuDRJ54kO7s+CxbMp6SkmPr1G9CjZ59ojcVi5ZRTu2Gz2ViyeFHMxFxqjTS677Z/E8A55/WjWrVq5OXmMn/evJi+nWw2G+FwmNLSXbuQl5SWENrttmZy7FMIN5gy5Vu2by8kFArx/ZRv97gu5O8ybuybrF+XR5eupzLm7fcYes99PPGfZ/jn/Q/hcDiY+t03e9yzXERERETkaFBSXITL6SZv7VoSk5I4v19/2rU/eZ+Pjp260vXU01i7drXxVJX22+xZjHn9VUpKSqhfvwGjx4xj8mffRDdq/uKbH3htzDjatDkBi8XMnFm/8t03X+H2uPnXAyMY8dh/GP7PBxn3/se0P7kTG9avY/z4d2NeIxKJMOTKq/nPU88z9J77ePmVNzi/X38C5eV89unEfe4ntXTJImw2G/36D+C88y7klFO7cePNt5Nao4axVI5hCuEGkUiYSCRCfn4+Uw7DLPhOy5Ys5t+PP8KaNatp1rwFF10ymF69z8BssTJ50gSee+ZJ4yEiIiIiIkeFhQvn0/bEduTnb+XVUS/yz/sf5pXX3trn48WXX6OwsJDxH8SG3YP18Yfvc8N1V/LHH3OJRCrulrRzo+bU1FTy8/OZNPHj6KWqzz3zJJMnTcDmcHDmWedw4YCLadiwEatX/8m/H3+EZUsWx5x/zZ+r+PmnHznltO5cdMlg2nfohLesjNdeGcmnkyfE1O5u9KsvM3fObOrUyeZfDz3C08+NpGbNWuTnFxhL5RhmSstsFjE2xltqajrr8/Z9rXY83ffACM497wI+++8knnj0IWP3YdG8RUuSk1MIBAMsXrgQr7fMWCIiIiIictSw2Wx8+Mln5CxfykP3D8fn9xtL4sblctOiVStsVhvs2LxtX/tEVa+eSoNGjbFaLHut69S5K4//3zNsWJfHZYMHULNWJvXq1a/0v+MbNGhIekZNtm8vZMniRcbuIyIzqyH5+ZuNzXIYKITvpk2bE3jiyeew2az865/DmDPrV2OJiIiIiIgcgEaNGnP/Q49Rv2EjcpYt3eetdaf/70fefectY3OVZAzhxxKF8PjRcvTdnN33PGrUqMGc2TMVwEVEREREDsGKFTlcefklXHvVZfz44/fMnTNrj8frr408agK4yN9FM+E71KhRg2HD7yc5pRpvvzmaX3+ZbiwREREREZHjWPMWLbn1trvZtGkjIx66z9h9VNNMePwohIuIiIiIiBznFMLjR8vRRUREREREROJEIVxEREREREQkThTCRUREREREROJEIVxEREREREQkThTCRUREREREROJEIVxEREREREQkThTCRUREREREROJEIVxEREREREQkThTCRUREREREROJEIVxEREREREQkThTCRUREREREROJEIVxEREREREQkThTCRUREREREROJEIVxEREREREQkThTCRUREREREROJEIVxEREREREQkThTCRUREREREROJEIVxEREREREQkThTCRUREREREROJEIVxEREREREQkThTCRUREREREROLElJbZLGJsjLfU1HRjk4iIiIiIiMRRfv5mY5McBlUmhK/PW2lsFhERERERkTjIzGqoEB4nWo4uIiIiIiIiEicK4SIiIiIiIiJxohAuIiIiIiIiEicK4SIiIiIiIiJxohAuIiIiIiIiEicK4SIiIiIiIiJxohAuIiIiIiIiEicK4SIiIiIiIiJxohAuIiIiIiIiEicK4SIiIiIiIiJxohAuIiIiIiIiEicK4SIiIiIiIiJxohAuIiIiIiIiEicK4SIiIiIiIiJxohAuIiIiIiIiEicK4SIiIiIiIiJxohAuIiIiIiIiEicK4SIiIiIiIiJxohAuIiIiIiIiEicK4SIiIiIiIiJxohAuIiIiIiIiEicK4SIiIiIiIiJxYkrLbBYxNsZbamo66/NWGptFBOjVqxcpKSkxbaFQiMWLFrM8Z3lMu4iIiIjIwcjMakh+/mZjsxwGCuEiR9CNN93E5ZddRq3MTMLhCK+Mepmnn346pmbqtO9p0rhJTFt5eWCvtSIiIiIiB0MhPH60HP0wGz9+PLl5eYwfP97YJccxjyeBt8eOZfjw4WTVqUNRURHLli5h0+a9/w9fOBxmzeo1LF2yhKVLluy3VkREREREqi6FcJEj4OFHHqZ79+4EgkFeefUV2rZpw9lnn80748YZSwEIBkNMnjyJPn360KdPn/3WioiIiIhI1aUQLhJnXbp2pVu37phMJr768kv+/fgTxhIRERERETlGKYSLxFn3bt2okVqD/IJ8Jk2caOwWEREREZFj2DEbwvv378/SZUuZ/dtvfP7FF6zNzWXWnDk8/PAIFi9ZwtrcXD7+ZAIeTwIAHTt2ZPbs2eTm5ZGbl8fyFSv44acfufGmm4ynhh3n//yLL1i6bClrc3Ojx61es4ann3nGWL6He+65h5Wr/mTO3Lmceuppxu792vmz7XzNvT1WrvqToUOHGg/9SzuvYX9p5EgmTZ7Mn6tXk5uXx8JFi3jooYf3Wfve+++xctWf5OblsWzZMl586aXo2FbWgX4WxnEY8+ab3HnXXSxctIjcvDxycnKi76MytQD9+vVj8ZIl5OblsTY3l2XLlvH1118zaOCgmPfw9tix5Obl8dVXX8W0A1x88cUsWbqEZcuWMeSKK6LtLVu1xGazsmb1GqZNmxZzjIiIiIiIHNuO2RC+U43UVFKrV2fL1q3UqlmT/gP6s61gG+FwmNatW3LmmWdEa0u9ZZSWllBWWordZqNhg4YMHz6cp56J3YF64CUDGfHII7Rt2xa324PP66W0tITS0hK83jJKikti6vemXr162O02CgsLmTt3rrF7vwLBICWlFe91fw+f32889IB16tyZtm1PIFBejt9fTnJyMpdefhk33XyzsZTOXbrQoWMn8vJyyV27FpfbTb9+/Xj66aeMpQfsQD6LnePg83qJRCLUycri0ssuo8zrZfWfq7HZ7Zx19tlc+Y8rK1ULEI5EKNvxufq8XlxuNy1bteKRxx/jrrvuir6HH374AW9ZGXXq1qVfv37RdoCTO3bA40lgw6aN/Py//0Xb09IzAPjzzz93qxYRERERkePBMR/Cy/1+Xnj+BaZOnQLArFmzuPfee9man4/N5qB+/foAzJw5k+6ndaNZ02Y0bdqUTp068d9PPwWgW7fudOnaNXrOdiefRHJyMhvWr+fyyy6jSZMmNGvajGZNm9G8WXMefvihaO3etGvXjnbt2hGJRFi6eDGlpX8d2nf3308/pX27dtHX3NujTevWjHzpJeOhBywlKYkXXnieJk2acPaZZ7Js+XJcTiddu3YxlpKUkMC/n3icbqedRpcuXZg8eTKRSISOnTvRo0cPY/lfOtDPYuc4vPbaawQCQTJr1+b3uXPp0a07Z555JkuXLMHpcNCuXbtK1e5+7mZNm9GkSRN69+zFLzNm4LDbObtv3+iM+U8//sj6jRtISkqid+/eu/0U0KpFS0wmE4sXLmLVqlXRdoul4s8uGAruVi0iIiIiIseDYz6ER4gQCAaiz/ML8gmFQ4TD4Zg6o40bNvDe+++zecsWkhITqFWzprEEl9tN+/bt97iH8/60a9eOf91/P5m1a7N9+3a+/e47Y0mVsGLFCl54/nkAlucsZ/nSpQBYzBZDJazNy+PD8R9Fn3/23/9SUFBAUmIybU84Iab2YBzIZ8GOcPvdt99GVwIUFhYC4HG7jaWVqmXHGHz44YeUlZWSlJRE2xPaArBq1Sp+mT6DSCRCqzatadCgAQB9+vShZq1aeMvKmDV7tuFsIiIiIiJyvDrmQ/iBatK4CW+PHcuSpRXXi+fuuLd3Rnq6sZSvvviSdXl5pKSkcMeddzLl+6n8/scfjHvnHc4660xjOQDtT+7AsmXLmDhpEh06dMBfXs6777wTneGtarZv3x7zvKSsNOb57rZu3hwzm79y5UpKikswmUxYLXuG9r9Smc9id8UlpeStWxd9PnDgQOpkZTFw4MCYOg6gtlPnznz63/+Sk5MTvY782eeew+327HaWCt9//z0FBQXUrp3FWWefDUDHzp1ISUlh06bN/PTjj8ZDRERERETkOKUQDjRo0ICRL4+kV69eWC1WclbksHTJEpbn5OAvLzeWM23aNPpdcAH/fvwJ5s6dS2lpCampqfTo0YMXR77M8OHDjYfgcNhxezyYTCYikQh+n481q9cYyw6IcZOxvT0OdmO2v8OmTZsJhg9uqXVlP4vdlZaWMO+PecbmvdpfbZeuXXnxhRdo164dgWCQpcuWsXTJElb9uYpgMGQs57vvvmPlypU4HQ5OPvlk2LEU3Wq1smDB/Jil6ABF24sASNhLoBcRERERkWObQjhwWrdu1KtXj/z8fG67/XZ69ehJnz59ePCBB6LLlI02btjAqFdGcf5559G8WXMuvvhiFsyfj9PhoFefPsZypv/8M3WysrigXz/ycnNJTk7m4oGXHNQO4vHYmK0yaqSnx/wc7dq1IzExiUgkQjC0Z2jdn4P5LHYKh8MxM/L7s7/anr16kpaezprVa+h33vn06dWLPn36MPLFlygv9xnLYccXMz6/nzZt29CvXz+ys7Px+nwsXLDQWMqG9esBovsRiIiIiIjI8UMhHEhJScFssRIMhWJ2Nj+/Xz+qV6seU7svq1evpqS0zNi8h7lz5/LV118TCARp1bo1V1y569ZVByoeG7NVRt2sLC4ZeHH0+YX9L6RGairFxUUsWrhnCP3Pf/7DgoULefOtt/b4EuLv+CwOVaInAYvFQiAUYN2OwOzxJHBO3764XHu/ZvyrL79k3bo8qqVU47zzzyc1LY38LVuYPmO6sZSFCxbi9fn2uqO6iIiIiIgc2xTCgXl//EFR8XYy0tMZ9coovvvuO37/4w/6nXcea3PX4HZ7eHjECD788EPatm3LqFGjWJubS05ODkuXLWXpsqX88ssvdO7ciVAoxLx5fxhfIsZ7777LipUrcDmdDLxkYKU2dquKtmzZyvB7hvPjTz8xffoMLrjgAsxmM7///jvfGTae69ixIz179iQlJYVOnTrRp0/sjuKV+Sw+mTCBpcuWcv3112OzWWlQvwFLly1l/oIF3HLrrTHnffOttw64dtHixXjLymjYoCE//u8nvps6lZmzZnLSSSexYf160tPSGPnySEa//kb0mFWrVrFw/gIsFgunndYNl9PJ4iVLmDdvzyXvX3/zNatXryY5OZlBgwbt8UWEiIiIiIgcuxTCdywlfu7Z58hdu5bk5GSaNmuG1Wrl/fc/YPPGTZhMJlJSUqjfsCGehAScLhfl5QGcLhceTwIeTwKhUJh1eXm8+eabPPzgw8aXiLFq1SomT5qE1+ejbnZdhlwxxFhyVMnLy2X6jBlkZdWhbnZd/D4fn/33v9x3333GUmbOnMnSZcsIh8OsXbOG+fPnx/RX6rPwePB4Kj4Pk8mE1WqNfh5OhyPmvO4dn9WB1I4bO5bXXnuN/Px80tPSaNqkCV6fj5dHjqTUW4bFYiGtRhoNG1XshL7TlClTKCoqwuGw4/X5+G32nJj+nVatWsX4D97HW1ZG5y5dGDtuLJ06dzaWiYiIiIjIMciUltksYmyMt9TUdNbnrTQ2SxU3fvx4up5yCtN//nmvO5Afj557/nkuuOACVq9ZzVVX/mOPTdl2d+ddd3H99dfh8SQQiUQoKiri1Vdf3eMygqnTvqdxo8b4fT5C4Ypr7MvLA4wePXqPWhERERGRg5GZ1ZD8/M3GZjkMNBMu8jdo27Ytr776Kueddz6BYJD/Tv50vwEc4Llnn+XKK//B5599Ru7a3P3eu95kMsWsvNjbDL6IiIiIiFR9mgmXg6aZ8IprzXv06IHVagUgGAwyadIk7rrzTmOpiIiIiEiVpZnw+NFMuMghcLtcBIJBtm/fzpw5cxh6990K4CIiIiIisk+aCRcRERERETnOaSY8fjQTLiIiIiIiIhInCuEiIiIiIiIicaIQLiIiIiIiIhInCuEiIiIiIiIicaKN2Q5Bl65dqVWzprGZFStWMG/ePGOzyDGtbdu2NGrUyNjMho0bmTF9urFZRERERKoQbcwWPwrhh2DnfbKNPhj/AfcMHWZsFjmmPfn0UwwaOMjYfFzfR/5oYzKZaNYoC4ClK/KIRI74fx5EREQkThTC40ch/BDsDOEb1q9n+/bt0fYvv/qK5559NqZW5HBpcfZ1tO13R0zb1lV/8N3/DY5pO9zuvOsuzj7rrOjztPR0UlNTFcKPMJPJRK9T2nD6aSdQLTkBk8mEz1fOa+99w4Kla2JqO5zQhKsH9gZgzPgpzPpjebSve+fWXHZht92qYUlOHs+MnhzTJiIiIkcnhfD4UQg/BDtD+L5mvvcWjvZm3uTnWfzlaGPzMUPjsEvnq5+kXse+xuaoYMDHrLEPsGbWF8aufWraewit+t4EgNlixepwH5EQbrTz70MhfP9SqyVy70392bilkGdGTyYxwcU9N16A3x/kqVcn4S8PGA+plEHnn0bPrq2j4TsQDFFeHuD1979jxZoNMbX7C+Fd2jfjonO6AmCzWnA67UcshDepn8ll/btTK70aANu2lzDxq1+Z+ftyzd6LiIgcJIXw+NHGbIdRqNxHeVlR9BH0l8GOoLV7e6jcZzz0mKJx2JPxZ48Zh6DfWL5fy6aMY8IdnZhwRycWfXVsf4lxLLJaLFitluhzt9NBgtuF11d+yAG8bu00Op7YmHA4wsefT+fWB1/nzhFjGP7vcXsEcIDZ83J4fsxnPD/mM2bPy4npmzFnKXeOGMOdI8bwyZe/xPTFU9sW9bnt6r5kZlTH7w/g9weonpLIPy7uRa9T2hjLRURERKochfDDaPdwtHtAyps7JaZ92ZRxxkOPKRqHPRl/9p2PT4d1J2/uFGO5HMOSEt1YrRY2btkGgMNpw2w24fWVG0srLTsrDY/byZ+5m/h++vy/nCWORCIsycllSU7uX9YeCU6nnb692+Ow2/jxl4Xc/tAb3Prg63z23SwwQY8urUlKcBsPExEREalSFMKrCHdKBn0f/YpBoxczaPRietz5Bqn123Du498w6LVFXDzqdzpd+QRWR8U/MPvc+z6DRi+mxdnXxZxnX+2e1ExOu2UUF4/8jUGjF3PJqHmccd9H1GjQNqbuSNM47JJSpykXPju9YixeW8SA52fS8663/pb3mtn6NHrf8y4DXpzFoNcWRcf7opfmkN3hnJjaGg3a0mvoOC4ZNa+i5uW59LjjdTypmTF1Ujl1Mmtw05CzuahvF+x2K62a1uX2q8/lsgu64XTaqZOZyrWDTycl8eBDZVq1JEwmE+s3FRAIhozdALRuls2oJ27gjaduiT6ee+hqMmqkGEsrJS01mWcevIo3nrqF15+8mecfvoZbrjyH2hnVjaUHrE6tGtRMq0ZhUSlf//g7oXCYSCTCtBkL2VpQRGpKEk0a6PdSREREqjaF8CoiEg4R8BYT8JYQiYRxJtbg5MEPYrHa2fpnxQxWvU7n0rhb5a+t9aTWpvsdr1O7TXdMFhvlZUWEIyGq12vFqTe/RGr9qrOEU+Owm0iEgLeE8rIiAr5SrC4PGc060vOuN8k++Wxj9QHLPvlsTrn+OdIatcNic1LuLd61HN5bTMBbHK1Nb9yeU28aSXqT9gCUlxVhNlmo2aIr3W8fjTslY7czS2WkJHlo1awuDerWxGI2k5aaTOtm2THPWzSug8NhNx56wFwuBwChUNjYFVUeDFJc4qW4xEtpme9vnAGPUOb1UVzipczrx+N2cELL+vzz1gG0bFLXWHxAaqan4HTYyN9WTOH2kmh7UUkZ6zYUYLWaqZtZI+YYERERkapGIbyK8BZt5ZsnLmbqs1cSKCvGXb0mJfl5fP7gOXz3f4NY8+vnmMwWarbsYjz0LzXudglJ6fUo3ryaLx86r2Lp8+0dWTPrC5wJqTTpeZnxkCNG47BLYd5yPvvXGUy4oxOf3N6BT27rwJrZX2KxOWncYzAm08H9+Wa26Y7F7mLT0plMHtYtdjn8PT1Yv+CnaG2TXpfjTEplc84cJt/TnQl3dGLyPd3ZnDOHpIz61O96Qcy55cAtWLqGm+57lXcn/gjAuxN/5JphI2Oe3zliDJu2FhqO3L8Lz+rMcw9dzXMPXU3X9s0A6Nq+WbTtuYeu5sKzOkfrl61Yx/AnxnLniDE88dInlJT+PXszbMkv4oGn3ufOEWO4/aE3uOm+V/lp5iIcdhtndD8Bk8lkPOQvWcwWTCYTgUCI6imJPHTnQB4dNpisWqlsLy6F3b54EBEREamqDu5f8XLYmW12cud+F93ErCQ/DyC6DPtAmUxm0pt2IBwOseSbtyjevBqAcDDAip8/JuArJTG97kEHusPtWB2HrHa96f/8rzGPky990FgWI+gvY8m3b1JeVoQzMRVXcpqxpFKcSalUz26J2WozdgHgrlaTanWaEfCWsOCzkfhLKq5Z9pdsY/WvnxEOh0jObGQ8TCqpZloK5YEg+duKAHC77ASDYUpKvcbSA+Jy2klMcJGY4MJur/hs7XZbtC0xwYXLefCz6wcrEAzxzQ+/U1LqIzkxAY+78mG5ds2Kpewbt2yjeeM61MmsQa306nQ+qeLLBhEREZGjQXwSh1RauNxP0aY/o88XfzmaD65rUenbTrmS07C7kzFbrHS4fET02t9BoxfT6663sbkSsLuTDznQHS7H6jhYbU7s7qSYh9WZEFPjSk7jtJtfrrhue8d7PeO+j7C7k2LqKmvlTx/h3b6F5MxGdL99NBe99Bt9H/uSEwYMjfn5HUnVsbuTsLkS6HXX2zFj1uHyEZgtVl0X/jewWMxEIhGCO5aMV0tOIBwJH/TO6O9NqphRv2bYSKbNWADAtBkLom3XDBvJe5MqZtsPJ4/bybWDT+fFR66NXmv+6LDBJHicxtIDtnPzurTUZJbk5LJuYwHbCkuYv7TiSzURERGRo4FCeBVVXlaEv6jA2HzQwqEgBasXsnn5nD0eGxdPx7t9i/GQKuFYHYfVMz/ng+taxDx+GXNPtN+dkkHPu9+idtsehAPlbFnxG5uXz6Fg9UJCwYMLZzttzpnD5/efxcyx97N52WxCAR+J6fVofvpVnPnARNIbV1z/vVOo3MvWlb/vMV6bl8+JWboulbNzQ7QeXVrjsNu4+7rzeeOpW+jRpTV2m5Xbrz73b9kg7UhI8DgZen0/Op7YhPJgiEXL17Jg6RpyVm2IftlwMMoDQSKRCDaLhc3523nomfcZ9vjbLFuxLjq77/VW7hZ/IiIiIvGmEF5FRcJhqOQGSa6kGtg9yTFtZYWb8BZtwWQysXbO10x9esgejzkfPEYkcvD/MD6cjtdxqNX6NBLS6lKYu4z/3nc6U568nKlPD2H2+48QKj+4Zcq7C/rLWDV9IlOfuYJPbuvAFw+cQ+G6HJxJqdHrvH3bNuMrqfgCZMm3b+0xXlOfHsKiL141nFkOVGFRKQuXrqWopIzyQJClK/JYsHQNRSVlBIIhlq1Yx+KcXPz+Q79VWbw1a5hFrfTqrFq7kX8+MZbnXv8vL4z5jHETpuE7hFuvbdxciM8fID0tmRrVd60ISfA4qZOZRigcZmMlr6EXERERiTeF8KOUr7giHGW2Oi16fXRm2+64q9cyVMLmpTMBaHH2dTTpeWncrnuOh2N1HBzuZMxmC6Ggn1B5xUZZJpOZRqdchM0Vu2x9d6FyH5FwCFdyOkkZ9Y3d++QvLSTo27XbNDs2yStYvQiL3UX7gf8iq23PmH45NLnrt/L2x1MpKvayJb+IV9/9mlff+ZqCbSUUbi/h9Q++5fX3v6WwuGI/hKqkPBAgFA6TWi2Rail7/j66XHYsFhOB8lB05ttkMnFKh+a4D+Ja8J1yN2xlS/52UpI8nNntRCxm847ztqBmegqFhSUsWVGxb4SIiIhIVWVKy2xWuWnGwyA1NZ31eSuNzVXe+PHj6XrKKXww/gPuGTrM2L2HFmdfR9t+d7B65ucxS48BmvYeQqu+N2EymbE63UTC4ehmZAs/H8WyKeNi6ht27c9Jgx/AYrMTDPiIBIMEy70E/aUkptcjUFbMmjlfMfvdh7E63HS7eRTpTU8Gk4lgwEc4UDEbZTKbmTn2AXJ/+ybm/Oz28y1ZupTTe/c2dh+043kcOl/9JPU69t3rz7679KYnc+qNL2F3JVKyNQ/v9s0kZmQTCYYo9xWTmF4Pb+Fm1s2bxm/jH48el5LVhO63v44rOY1wMECw3IvZZqcwd2n0OvpTbx5J7TbdCfrKojP/Vocbs8VKqNzLzLEPsGb2l7Djtm7dbnuF5FoVG7AF/WWEQ0FMJjOhgJ9pL1xDYe6y6Ovvbue4Tf/5ZwYO3Pct5aZO+54mjZvw008/cungS43dx7QEj5NhN1xIJBLhyVcmYjabGHbDhQA89erEQ96p/NILutGjS2umzViwz+vAbxxyFk3qV1zbbzabcO/YXbzM6yccjlBS5uXFNz9nS37FxnEAaalJDLvhAqqnJBIIhvD5ynHYraxcs4lnRk+mbu007rr2PDxuJxu3bKOgsITMjFRCoRBlXj+1a6aytaCIWX8s59NvZ0XPeyDatqjPtYP74HTYo7PqTqedUCjMx19MZ8r/5hkPERERkQOQmdWQ/PzNxmY5DKruVOBxxmKv2KjL5krAZDJjtlijG3ZZ7HtuZLRqxiQWfv4ygbJirDYn4VCQxV+NpmDNYgBs7kRSsprAjuA07cVrWfjFK5Tmr8ds3nVuEyZcSXu/r271GhXtWzZvMnYdNhqHCpuXzWbOe49QWrCBhBpZ1Gh4IkGfl5njHiDgLYluila9XsuY4wrzljNvwjN4t2+Jjh07vsiw7dj4zWK1EwmFdmxGV/Hzh4PlFKxeyIzXh0UDOEBp/jqmPnUFK3Zs5hb9fJweMEVIqF57t1evvI4dO5KUkEgkEiEv9/ibwfS4nCQluKL30nbYbbiddrw+P37/oV37f6DcTkd013SP24nJZMJkMuFxO0lMcJHgdmE2rBrZkl/EexN/pKCwGKvFTGKCi3A4gtdXjt1mZe26Lbz+/ndsyS+iZlo1WjSug9fnZ/R731Ja5sdiMZORlkKjepXf2G/e4j95ZdzXbNyyDYfDhsNho6CwmLc+msrUn+cby0VERESqHM2EH4KdM31en49wKBht/+TjT7j//vtjao82DRo0YOzYcWTXy+aD999n+PDhxpLjgsbhwD322GMMuGhA9LnVasfhsO93JrxPnz48+dRTJCYmMXLkSzz/3HPGEhERERGJA82Ex49mwv8GLqcTjych+rA7D/6ax6qiZq1aOFxOfH4/a1avMXYfNzQOB87udMT8HTgcf30v6qSkJFwuJ15vGTk5OcZuEREREZFjjkL4IRg4cCB1srL2eBzI9eFVXa2aNUlKTMDv87Emd62x+7ihcThw9wwdtsffQp2srH3OggPUr18fm81BSXExebm5xm4RERERkWOOQrjsVWJSEmaT+bgPRxqHw8vpdmE2mygsLGTePG2oJSIiIiLHPosnscbDxsZ4c7s9FBdtMzbLEZSRkUEwFOL3uXOZMGGCsfu4oXE4vGpm1KSsrIxfps9g9pzZxm4RERERiZPEpOp4vaXGZjkMtDGbiIiIiIjIcU4bs8WPlqOLiIiIiIiIxIlCuIiIiIiIiEicKISLiIiIiIiIxImuCT8EXbp2pVbNmsZmVqxYoZ2eRf4mbdu2pVGjRsZmNmzcyIzp043NIiIiInIQdE14/CiEH4Lx48fT9ZRTjM18MP6DY+Je4SJVwZNPP8WggYOMzUz/+ef93oNcKs9kMtGsURYAS1fkEYkc8f88iIiISJwohMePQvgh2BnCN6xfz/bt26PtX371Fc89+2xM7d8pu8M5dLjiUaw2Z7SteNMavn/mSsoKN8XUSgWNWeW1OPs62va7I6Zt66o/+O7/Bse0HW533nUXZ591VvR5Wno6qampCuEHyGQy0euUNpx+2glUS07AZDLh85Xz2nvfsGDpmpjaDic04eqBvQEYM34Ks/5YHu3r3rk1l13YbbdqWJKTxzOjJ8e0iYiIyNFJITx+FMIPwc4Qvr+Z770FGaN5k59n8Zejjc37lNWuNycNuh+rzYnJbMbm8FC8ee0xEyg1ZpXX+eonqdexr7E5KhjwMWvsA6yZ9YWxa5+a9h5Cq743AWC2WLE63EckhBvt/Ls7VkJ4arVE7r2pPxu3FPLM6MkkJri458YL8PuDPPXqJPzlAeMhlTLo/NPo2bV1NHwHgiHKywO8/v53rFizIaZ2fyG8S/tmXHROVwBsVgtOp/2IhHCb1UKHE5vQo3Nr6mTWwGIx8+7EH/nhlwXGUhEREakEhfD40cZscRIOBigvK9rrI1TuM5bvV97cKXw6rDsT7ujE7HdHEAz6jSXHBI1Z5QUDvj3GKjpmlfyZl00Zx4Q7OjHhjk4s+urAv/CQyrFaLFitluhzt9NBgtuF11d+yAG8bu00Op7YmHA4wsefT+fWB1/nzhFjGP7vcXsEcIDZ83J4fsxnPD/mM2bPy4npmzFnKXeOGMOdI8bwyZe/xPTF021Xncs/Lu5FvTrpWCz6T5iIiIgcffQvmDgpWLsoGmiMj2VTxhnLRWN2UPLmTtljrCbc0YlPh3Unb+4UY7lUAUmJbqxWCxu3bAPA4bRhNpvw+sqNpZWWnZWGx+3kz9xNfD99/l9e4x2JRFiSk8uSnNy/rD1StheXMeuP5fxn1ESWrVhn7BYRERGp8hTCqxBXUg3OefQLBo1ezKDRi7nopTmccd9HZLXtaSyttGrZLeh+22v0f+4XBr62MPoal7wyn5Z9b4yp9aRmctoto7h45G8VNaPmccZ9H1GjQduYuqrgcI5ZZuvT6H3Puwx4cRaDXlsU8xrZHc6Jqa3RoC29ho7jklHzKmpenkuPO17Hk5oZU1cVpNRpyoXPTq/4eV5bxIDnZ9Lzrrf+ls/3WB2zw6FOZg1uGnI2F/Xtgt1upVXTutx+9blcdkE3nE47dTJTuXbw6aQkuo2HHrC0akmYTCbWbyogEAwZuwFo3SybUU/cwBtP3RJ9PPfQ1WTUSDGWVkpaajLPPHgVbzx1C68/eTPPP3wNt1x5DrUzqhtLK+WND75l9HvfkvPnesJV9IsCERERkf1RCK9igt7S6PJhs9VO9Xqt6HrD87Q85wZj6QFLrd+G7re9Sq1Wp2JzJxL0lUVfI+Atobx016ZyntTadL/jdWq36Y7JYqO8rIhwJET1eq049eaXSK3fJubcVcHhGLPsk8/mlOufI61ROyw2J+Xe4l1Lu73FBLzF0dr0xu059aaRpDdpD1DxPkwWarboSvfbR+NOydjtzFVAJFLxuZcVEfCVYnV5yGjWkZ53vUn2yWcbqw/YMT1mh0FKkodWzerSoG5NLGYzaanJtG6WHfO8ReM6OBx246EHzOVyABAKhY1dUeXBIMUlXopLvJSW+f7GGfAIZV4fxSVeyrx+PG4HJ7Sszz9vHUDLJnWNxSIiIiLHDYXwKsRbtJVvnrg4uoT441tPYsnXYwCo3+n8gw4mGc074UysQdHGVXx23+l8cnuH6GtMvKsLOdPej9Y27nYJSen1KN68mi8fOq+i7vaOrJn1Bc6EVJr0vCzm3Efa4RqzzDbdsdhdbFo6k8nDusUu7b6nB+sX/BStbdLrcpxJqWzOmcPkeyquO598T3c258whKaM+9bteEHPuI60wbzmf/esMJtzRiU9u78Ant3VgzewvsdicNO4xGJPp4P5n4Vges8NhwdI13HTfq7w78UcA3p34I9cMGxnz/M4RY9i0tdBw5P5deFZnnnvoap576Gq6tm8GQNf2zaJtzz10NRee1Tlav2zFOoY/MZY7R4zhiZc+oaS0cvst7MuW/CIeeOp97hwxhtsfeoOb7nuVn2YuwmG3cUb3EzCZTMZDRERERI4LB/evbam06nVb0v/5X2Me3W/f/2ZX4WCA5d+/S+nWdTgSUnAkpxpLKsXmSqRGwxOxOva+vNVkMpPetAPhcIgl37xF8ebVsON9rPj5YwK+UhLT6x50SKusqjBmzqRUqme3xGy1GbsAcFerSbU6zQh4S1jw2Uj8JRXX9fpLtrH6188Ih0MkZzYyHnbYZLXrvceYnXzpg8ayGEF/GUu+fZPysiKciam4ktOMJZVytI3ZkVYzLYXyQJD8bUUAuF12gsEwJaVeY+kBcTntJCa4SExwYbdXfAZ2uy3alpjgwuU8+Nn1gxUIhvjmh98pKfWRnJiAx10xSy8iIiJyvIlPmhLMVht2d1LMw+ZKiKmxOtx0uPwRLnx2RvR62vP/8z0J6XVi6iprzcwv2L5hBa7kNLpc8xQDXpzF+f83lQ5XPEpSRv1onSs5Dbs7GbPFSofLR0Sv5x00ejG97nobmysBuzv5kEPagTqSY7byp4/wbt9CcmYjut8+mote+o2+j33JCQOGxvz8jqTq0ffV6663Y8asw+UjMFuscb3G2Wpz7jFmVmfsmLmS0zjt5pcrrtve8V7PuO8j7O6kmLrKOlrH7EizWMxEIhGCO5aMV0tOIBwJH/TO6O9NqphRv2bYSKbNqLht17QZC6Jt1wwbyXuTKmbbDyeP28m1g0/nxUeujV5r/uiwwSR4nMZSERERkeOKQnicbF31Bx9c1yLmsfv9li12J91uHkXDUwdgtlrZ+uc8Ni+fw5aVvxPyH9yM2E6l+ev4+tH+/DTyJtbN/4Hy0iLc1WrSsGt/znzgE+p3Pj+mPhwKUrB6IZuXz9njsXHxdLzbt8TUHy5Hcsw258zh8/vPYubY+9m8bDahgI/E9Ho0P/0qznxgIumNK65l3ilU7mXryt/3GK/Ny+fELMM+3FbP/HyPMftlzD3RfndKBj3vfovabXsQDpSzZcVvbF4+h4LVCwkFDy707XS0jtmRsnNDtB5dWuOw27j7uvN546lb6NGlNXablduvPvdv2SDtSEjwOBl6fT86ntiE8mCIRcvXsmDpGnJWbYh+2SAiIiJyvFIIryJSG7ShWnYLyrZt5LsnBvHd/w1m6tNDmDH6brzbtxrLKy0cDLBu/g/8NPImJt7Vhcn3dGfj4ulY7C4anNIfgLLCTXiLtmAymVg752umPj1kj8ecDx4jEqka/4g+3GMW9JexavpEpj5zBZ/c1oEvHjiHwnU5OJNSo9cs+7ZtxldSAMCSb9/aY7ymPj2ERV+8ajjzkVOr9WkkpNWlMHcZ/73vdKY8eTlTnx7C7PcfIVR+aF9ccIyO2eFSWFTKwqVrKSopozwQZOmKPBYsXUNRSRmBYIhlK9axOCcXv//Qb1UWb80aZlErvTqr1m7kn0+M5bnX/8sLYz5j3IRp+P6GW6+JiIiIHM0UwqsIh6caZouVcDBAwF8abc/udC7uavveXCzoK4VwGGdSKom1Ghi798lfWkh52a7dqnfavHQmAC3Ovo4mPS+N2/XfB+NIjFnQVxLT5i3aSsHqRVjsLtoP/Nffcmu0w8nhTsZsthAK+gmVV2zAZTKZaXTKRXss9d9dqNxHJBzClZwecwnDXzkWxuxwyV2/lbc/nkpRsZct+UW8+u7XvPrO1xRsK6Fwewmvf/Atr7//LYXFZcZDj7jyQIBQOExqtUSqpez5e+Ny2bFYTATKQ9GZb5PJxCkdmuPWteAiIiJynDOlZTb7u+5Hc9BSU9NZn7fS2FzljR8/nq6nnMIH4z/gnqHDjN2wI8y27XcHW1f9EbOU2siTWpteQ9/Gk1ob7/YtFG9aQ0KN2ticCWzfuIrU+q3xFeWzedks5nzwWPS2Yo6EavS8+y1SajchHAoS9JdhtljxFm7h+2eupKxwEycMuJvmfa4i4C8lEq74B7HV7sJstREOBVn4+ajozKPV4abbzaNIb3oymEwEAz7CgYqZK5PZzMyxD5D72ze7vfMKO8diydKlnN67t7G7UqrCmJ1680hqt+lO0FcWnfm3OtyYLVZC5V5mjn2ANbO/jL6Pbre9QnKtis3Egv4ywqEgJpOZUMDPtBeuoTB32W7vvMLUad/TpHETfvrpRy4dfKmxu1I6X/0k9Tr2ZfXMz2OWnxulNz2ZU298CbsrkZKteXi3byYxI5tIMES5r5jE9Hp4Czezbt40fhv/ePS4lKwmdL/9dVzJaYSDAYLlXsw2O4W5S6OfUTzGjN1+16b//DMDBw40dkf9neN7uCR4nAy74UIikQhPvjIRs9nEsBsuBOCpVyce8k7ll17QjR5dWjNtxoJ9Xgd+45CzaFK/4hp8s9mEe8dtzcq8fsLhCCVlXl5883O25FdsHAeQlprEsBsuoHpKIoFgCJ+vHIfdyso1m3hm9GTq1k7jrmvPw+N2snHLNgoKS8jMSCUUClHm9VO7ZipbC4qY9cdyPv12VvS8fyUtNYnbrupLgtsFgNNpx2a14POVR++D/vEX05kxZ6nhSBEREfkrmVkNyc/fbGyWw6DqTnMeZ0rz1/HrW/+kcN1ynEmppDc+CZPFyrzJz1OyJReTyYwrOY3q2a2w2nZtbOQv2cZvHzxG8aY1mMzmis21zGZC5T5MFgsANoeHYNCPzZkQ3awrHAmxfcMKfhv/BIu/3LXjeNBfxrQXr2XhF69Qmr8es9kaPcaECVdSjWjt7qrXqGjfsnmTseuwOZxjZrHaiYRCOzaj2zFmwXIKVi9kxuvDomFy5/uY+tQVrNixMZnFXrE5ms3pAVOEhOq1o7U7dezYkaSERCKRCHm5ecbuw2bzstnMee8RSgs2kFAjixoNTyTo8zJz3AMEvCXRTdGq12sZc1xh3nLmTXgG7/YtmC0VvxOEwwT9Zdh2bPx2uMesMo7U+FaWx+UkKcEVvZe2w27D7bTj9fnx+w/tGv0D5XY6orume9xOTCYTJpMJj9tJYoKLBLcLs2FFzJb8It6b+CMFhcVYLWYSE1yEwxG8vnLsNitr123h9fe/Y0t+ETXTqtGicR28Pj+j3/uW0jI/FouZjLQUGtWr3AZ8ZpOZBPeuXd5t1oq/V+fuO8Lb9r4rv4iIiEhVoZnwQ7BzRs7r8xEOBaPtn3z8Cffff39M7bGsQYMGjB07jux62Xzw/vsMHz7cWCIGffr04cmnniIxMYmRI1/i+eeeM5bIDo899hgDLhoQfW612nE47PudCdf4ioiIiFSOZsLjRzPhfwOX04nHkxB92J3H1zWPNWvVwuFy4vP7WbN6jbFb9iIpKQmXy4nXW0ZOTo6xW3Zjdzpi/r4cjr++x7XGV0RERESqKoXwQzBw4EDqZGXt8djX9eHHqlo1a5KUmIDf52NN7lpjt+xF/fr1sdkclBQXk5eba+yW3dwzdNgef2N1srL2OQuOxldEREREqjCFcDlkiUlJmE1mBZ5KcLpdmM0mCgsLmTdvnrFbDpHGV0RERESqKosnscbDxsZ4c7s9FBdtMzbLUSIjI4NgKMTvc+cyYcIEY7fsRc2MmpSVlfHL9BnMnjPb2C2HSOMrIiIiUjmJSdXxenfd9lcOH23MJiIiIiIicpzTxmzxo+XoIiIiIiIiInGiEC4iIiIiIiISJwrhIiIiIiIiInGia8IPQZeuXalVs6axmRUrVmhHZpH9aNu2LY0aNTI2s2HjRmZMn25sFhEREZHDTNeEx49C+CEYP348XU85xdjMB+M/OO7uFS5SGU8+/RSDBg4yNjP955/3e/9vObxMJhPNGmUBsHRFHpHIEf/Pg4iIiMSJQnj8KIQfgp0hfMP69Wzfvj3a/uVXX/Hcs8/G1MrfL7vDOXS44lGsNme0rXjTGr5/5krKCjfF1EqFFmdfR9t+d8S0bV31B9/93+CYtsPtzrvu4uyzzoo+T0tPJzU1VSH8MDCZTPQ6pQ2nn3YC1ZITMJlM+HzlvPbeNyxYuiamtsMJTbh6YG8Axoyfwqw/lkf7unduzWUXdtutGpbk5PHM6MkxbSIiInJ0UgiPH4XwQ7AzhO9r5ntvgWdv5k1+nsVfjjY2H1MOZCwqOw5Z7Xpz0qD7sdqcmMxmbA4PxZvXHjMhvPPVT1KvY19jc1Qw4GPW2AdYM+sLY9c+Ne09hFZ9bwLAbLFidbiPSAg32vm3dDyG8NRqidx7U382binkmdGTSUxwcc+NF+D3B3nq1Un4ywPGQypl0Pmn0bNr62j4DgRDlJcHeP3971ixZkNM7f5CeJf2zbjonK4A2KwWnE77EQnhSQluBp5/Cq2aZuN2OYhEIuRvK2byNzOZ+ftyzd6LiIgcJIXw+NHGbIdRqNxHeVlR9BH0l8GO8LR7e6jcZzz0mBUOBmJ+9kMZh7y5U/h0WHcm3NGJ2e+OIBj0G0uOCcbfl5gxq+TPvGzKOCbc0YkJd3Ri0VcH/oWHHD5WiwWr1RJ97nY6SHC78PrKDzmA162dRscTGxMOR/j48+nc+uDr3DliDMP/PW6PAA4we14Oz4/5jOfHfMbseTkxfTPmLOXOEWO4c8QYPvnyl5i+eGnZpC4j7h5EhxOa4HLaKS3z4fcHqFE9iX9c3IvunVsZDxERERGpchTCD6PdA8/uoSdv7pSY9mVTxhkPPWYVrF0U87Mfr+NQGcbfl52PT4d1J2/uFGO5HGWSEt1YrRY2btkGgMNpw2w24fWVG0srLTsrDY/byZ+5m/h++vy/nCWORCIsycllSU7uX9YeCduLSwmGQsxb/Cd3P/IWtz/0Brc++DrTZszHbDbRtX1zHHab8TARERGRKkUhvIpwp2TQ99GvGDR6MYNGL6bHnW+QWr8N5z7+DYNeW8TFo36n05VPYHW4Aehz7/sMGr2YFmdfF3OefbV7UjM57ZZRXDzyNwaNXswlo+Zxxn0fUaNB25i6qsCVVINzHv0iOhYXvTSHM+77iKy2PY2llVYtuwXdb3uN/s/9wsDXFkZf45JX5tOy740xtTUatKXX0HFcMmpexft4eS497ngdT2pmTF1VkFKnKRc+O73i53ltEQOen0nPu976Wz7fzNan0fuedxnw4iwGvbYo5nPJ7nBOTO3RNGZHWp3MGtw05Gwu6tsFu91Kq6Z1uf3qc7nsgm44nXbqZKZy7eDTSUms+Js/GGnVkjCZTKzfVEAgGDJ2A9C6WTajnriBN566Jfp47qGryaiRYiytlLTUZJ558CreeOoWXn/yZp5/+BpuufIcamdUN5YesLwN+dz7xDhGvv0lRSUVK4sikQj/m72EMq+f5EQ3CZ5de0SIiIiIVEUK4VVEJBwi4C0m4C0hEgnjTKzByYMfxGK1s/XPihmsep3OpXG3yl8v60mtTfc7Xqd2m+6YLDbKy4oIR0JUr9eKU29+idT6bYyHHHFBb2l0ybXZaqd6vVZ0veF5Wp5zg7H0gKXWb0P3216lVqtTsbkTCfrKoq8R8JZQXrprc730xu059aaRpDdpD1DxPkwWarboSvfbR+NOydjtzFVAJFLxM5QVEfCVYnV5yGjWkZ53vUn2yWcbqw9Y9slnc8r1z5HWqB0Wm5Nyb/Gu5fDeYgLe4mjtUTdmR1hKkodWzerSoG5NLGYzaanJtG6WHfO8ReM6OBx246EHzOVyABAKhY1dUeXBIMUlXopLvJSW+f7GGfAIZV4fxSVeyrx+PG4HJ7Sszz9vHUDLJnWNxQcsFA7v8z36ysspDwSNzSIiIiJVikJ4FeEt2so3T1zM1GevJFBWjLt6TUry8/j8wXP47v8GsebXzzGZLdRs2cV46F9q3O0SktLrUbx5NV8+dF7FcubbO7Jm1hc4E1Jp0vMy4yFH1M6x2Lns+uNbT2LJ12MAqN/p/IMOcxnNO+FMrEHRxlV8dt/pfHJ7h+hrTLyrCznT3o/WNul1Oc6kVDbnzGHyPRXXnU++pzubc+aQlFGf+l0viDn3kVaYt5zP/nUGE+7oxCe3d+CT2zqwZvaXWGxOGvcYjMl0cH/qmW26Y7G72LR0JpOHdYtdDn9PD9Yv+Clae7SN2ZG2YOkabrrvVd6d+CMA7078kWuGjYx5fueIMWzaWmg4cv8uPKszzz10Nc89dDVd2zcDoGv7ZtG25x66mgvP6hytX7ZiHcOfGMudI8bwxEufUFJaub0Z9mVLfhEPPPU+d44Yw+0PvcFN973KTzMX4bDbOKP7CZhMJuMhB61urTScTjvbtpf8be9fRERE5HA5uH+Zy2FnttnJnftddDO3kvw8gOhy9ANlMplJb9qBcDjEkm/eonjzatixQdqKnz8m4CslMb3uQYe0yqpetyX9n/815tH99v1vEBYOBlj+/buUbl2HIyEFR3KqsaRSbK5EajQ8cZ9j6a5Wk2p1mhHwlrDgs5H4Syqu1fWXbGP1r58RDodIzmxkPOywyWrXe48xO/nSB41lMYL+MpZ8+yblZUU4E1NxJacZSyrFmZRK9eyWmK17v962qo3Z0aRmWgrlgSD524oAcLvsBINhSkq9xtID4nLaSUxwkZjgwr7j+mi73RZtS0xw4XIe/Oz6wQoEQ3zzw++UlPpITkzA466YpT9UCR4nfU47ASLw61ztji4iIiJVX3ySl1RauNxP0aY/o88XfzmaD65rUelbSbmS07C7kzFbrHS4fET0et5BoxfT6663sbkSsLuTDzmkHSiz1YbdnRTzsLkSYmqsDjcdLn+EC5+dEb0G+fz/fE9Cep2YuspaM/MLtm9YgSs5jS7XPMWAF2dx/v9NpcMVj5KUUT9a50iqHn1fve56O2bMOlw+ArPFGtdrnK025x5jZnXGjpkrOY3Tbn654rrtHe/1jPs+wu5OiqmrrJU/fYR3+xaSMxvR/fbRXPTSb/R97EtOGDA05nemqo3Z0cRiMROJRAjuWDJeLTmBcCR80DujvzepYkb9mmEjmTZjAQDTZiyItl0zbCTvTaqYbT+cPG4n1w4+nRcfuTZ6rfmjwwb/rddsW8xmLjijE5kZ1Vick8vsP2J3dBcRERGpihTCq6jysiL8RQXG5oMWDgUpWL2Qzcvn7PHYuHg63u1bjIccFltX/cEH17WIeez+xYLF7qTbzaNoeOoAzFYrW/+cx+blc9iy8ndC/oObGdypNH8dXz/an59G3sS6+T9QXlqEu1pNGnbtz5kPfEL9zufH1IfKvWxd+fse47V5+ZyYZdiH2+qZn+8xZr+MuSfa707JoOfdb1G7bQ/CgXK2rPiNzcvnULB6IaHgwQW5nTbnzOHz+89i5tj72bxsNqGAj8T0ejQ//SrOfGAi6Y0rrv/eqaqM2dFg54ZoPbq0xmG3cfd15/PGU7fQo0tr7DYrt1997t+yQdqRkOBxMvT6fnQ8sQnlwRCLlq9lwdI15KzaEP2y4VDZrBaGDOjBaZ1asm5jAW99OHWfm8+JiIiIVCUK4VVUJByGSi6rdCXVwO5JjmkrK9yEt2gLJpOJtXO+ZurTQ/Z4zPngMSKRv+cfxocqtUEbqmW3oGzbRr57YhDf/d9gpj49hBmj78a7fauxvNLCwQDr5v/ATyNvYuJdXZh8T3c2Lp6Oxe6iwSn9AfBt24yvpOILkCXfvrXHeE19egiLvnjVcOYjp1br00hIq0th7jL+e9/pTHnycqY+PYTZ7z9CqPzQvrhgx9L2VdMnMvWZK/jktg588cA5FK7LwZmUGr3O+2gbs6qgsKiUhUvXUlRSRnkgyNIVeSxYuoaikjICwRDLVqxjcU4ufv+h36os3po1zKJWenVWrd3IP58Yy3Ov/5cXxnzGuAnT8P0Nt16rnVGdf912MV3aN2PJilyeenVSdLd0ERERkapOIfwo5SuuCDyZrU6LXtuc2bY77uq1DJWweelMAFqcfR1Nel4at+u/D4bDUw2zxUo4GCDgL422Z3c6F3e1fW/IFvSVQjiMMymVxFoNjN375C8tpLxs1w7f7NgYrmD1Iix2F+0H/utvuTXa4eRwJ2M2WwgF/YTKKzalMpnMNDrloj2W+u8uVO4jEg7hSk6PWY7/V/ylhQR9JTFtR9uYVQW567fy9sdTKSr2siW/iFff/ZpX3/magm0lFG4v4fUPvuX197+lsLjqhcvyQIBQOExqtUSqpez5O+Zy2bFYTATKQ9GZb5PJxCkdmuM+hGvBnU47l15wGvffcQnpNZKZ+NWvvPDG55SWaTM2EREROXqY0jKbVW669TBITU1nfd5KY3OVN378eLqecgofjP+Ae4YOM3bvocXZ19G23x2snvl5zHJigKa9h9Cq702YTGasTjeRcDi6KdvCz0exbMq4mPqGXftz0uAHsNjsBAM+IsEgwXIvQX8pien1CJQVs2bOV8x+92GsDjfdbh5FetOTwWQiGPARDlTMRpnMZmaOfYDc376JOT+7/XxLli7l9N69jd2VsvNn37rqj/1e1+5JrU2voW/jSa2Nd/sWijetIaFGbWzOBLZvXEVq/db4ivLZvGwWcz54LHpbMUdCNXre/RYptZsQDgUJ+sswW6x4C7fw/TNXUla4iRMG3E3zPlcR8JdWrDQArHYXZquNcCjIws9HRWdrPam16XbbKyTXqthMLOgvIxwKYjKZCQX8THvhGgpzl+32zitMnfY9TRo34aeffuTSwZcauyul89VPUq9j373+vuwuvenJnHrjS9hdiZRszcO7fTOJGdlEgiHKfcUkptfDW7iZdfOm8dv4x6PHpWQ1ofvtr+NKTiMcDBAs92K22SnMXRr9jE69eSS123Qn6CuLrpawOtyYLVZC5V5mjn2ANbO/hEMYM3b7XZv+888MHFj52/AdrRI8TobdcCGRSIQnX5mI2Wxi2A0XAvDUqxMPeafvSy/oRo8urZk2Y8E+rwO/cchZNKlfcb2+2WzCveO2ZmVeP+FwhJIyLy+++Tlb8is2jgNIS01i2A0XUD0lkUAwhM9XjsNuZeWaTTwzejJ1a6dx17Xn4XE72bhlGwWFJWRmpBIKhSjz+qldM5WtBUXM+mM5n347K3rev9K6WTY3DjkLu81KKBTG6/PvsWDof7MWM/GrX2IbRURE5C9lZjUkP3+zsVkOg6o7JXqcsdgrNt+yuRIwmcyYLdboJlwW+54bGa2aMYmFn79MoKwYq81JOBRk8VejKVizGACbO5GUrCawIwxNe/FaFn7xCqX56zGbd53bhAlXUg3D2StUr1HRvmXzJmPXYVOav45f3/onheuW40xKJb3xSZgsVuZNfp6SLbmYTGZcyWlUz26F1bZrXPwl2/jtg8co3rQGk9lcsSGZ2Uyo3IfJYgHA5vAQDPqxOROiP384EmL7hhX8Nv4JFn+5a5f20vx1TH3qClbs2Jgs+vk4PWCKkFC9drR2p44dO5KUkEgkEiEvt2I3+3jYvGw2c957hNKCDSTUyKJGwxMJ+rzMHPcAAW9JdFO06vVaxhxXmLeceROewbt9S/T3jR1f/th2bPxmsdqJhEI7NvDbMWbBcgpWL2TG68OiAZyDHLPjncflJCnBFb2XtsNuw+204/X58fsP7Xr+A+V2OqK7pnvcTkwmEyaTCY/bSWKCiwS3C7Nh9cyW/CLem/gjBYXFWC1mEhNchMMRvL5y7DYra9dt4fX3v2NLfhE106rRonEdvD4/o9/7ltIyPxaLmYy0FBrVO/jN+iwWMwmeXTu+H8md30VEREQqQzPhh2Dn7J3X5yMcCkbbP/n4E+6///6Y2qNNgwYNGDt2HNn1svng/fcZPny4sUQM+vTpw5NPPUViYhIjR77E8889ZyyRHR577DEGXDQg+txqteNw2I+7mXARERGRqkIz4fGjmfC/gcvpxONJiD7szoO/5rGqqFmrFg6XE5/fz5rVa4zdshdJSUm4XE683jJycnSrpP2xOx0xfzMOh2YvRUREROT4oBB+CAYOHEidrKw9HgdyfXhVV6tmTZISE/D7fKzJXWvslr2oX78+NpuDkuJi8nJzjd2ym3uGDtvj76ZOVpZmwUVERETkmKcQLnuVmJSE2WRWoKwEp9uF2WyisLCQefPmGbtFRERERESweBJrPGxsjDe320Nx0TZjsxxBGRkZBEMhfp87lwkTJhi7ZS9qZtSkrKyMX6bPYPac2cZuEREREZEqKzGpOl7vrlsEy+GjjdlERERERESOc9qYLX60HF1EREREREQkThTCRUREREREROJEIVxEREREREQkTo7pa8KbNG5Ci5YtsFgsMe2FhYVMnTo1pk1EREREROR4pWvC4+eYDuFDhw7lxptuxm63xbQvz1lOrx49Y9p21prNJjasX887777LK6NGxdSIiIiIiIgcixTC4+eYXo6+afNmli1dwtIlFY8N69cbS6J21hYVFZFVpw7Dhw/n7bFj8XgSjKUiIiIiIiIiB+WYDuHvjBvH2WefTZ8+fejTpw8//PSjsSRqZ22Xzl149513CASDdO/enX/+815jqYiIiIiIiMhBOaZD+MEoLS3hvvvuY8q332I2m+nduzft2rUzlomIiIiIiIhUmkL4Pnz00Udszd9KWnoGPXvGXj8uIiIiIiIicjAUwvdh2rRpbNqwEbvdRvMWLYzdIiIiIiIiIpWmEL4ff/75JwDVq1c3domIiIiIiIhUmkL4fpSUlQKQlJxk7BIRERERERGpNIVwERERERERkThRCBcRERERERGJE4Xw/aidmQnAlk2bjV0iIiIiIiIilaYQvg8eTwIZNWsBsH7DBmO3iIiIiIiISKUphO9D/wH9qVO7Nt6yMubPn2/sFhEREREREak0hfC98HgS6NevH26Ph9Vr1/LTjz8aS0REREREREQqTSHcoFPnzowdN5b27dtTVFTEuLFjWbVqlbFMREREREREpNKO6RB+y623Mn/BApYuW8rSZUvp1+8CY0nULbfeysJFi/joo4/o2LEjJSUlvPHGG7z7zjvGUhEREREREZGDckyHcKfDgceTEH24nE5jSYxwOMya1WuYMGECl116Kc89+6yxREREREREROSgmdIym0WMjfGWmprO+ryVxmYRERERERGJg8yshuTn69bM8XBMz4SLiIiIiIiIVCUK4SIiIiIiIiJxohAuIiIiIiIiEicK4SIiIiIiIiJxohAuIiIiIiIiEicK4SIiIiIiIiJxohAuIiIiIiIiEicK4SIiIiIiIiJxohAuIiIiIiIiEicK4SIiIiIiIiJxUiVCeCQSBkzGZhERERERETnslMXiqUqEcJPJhEmfu4iIiIiISNxVZLGIsVkOkyoRwiORCGZzlXgrIiIiIiIixxWz2UwkohAeL1Ui+YZCYcwWq7FZREREREREDjOzxUooFDY2y2FSJUJ4MBjAZnMam0VEREREROQws9mcBIMBY7McJlUihAcC5TjdHsymKvF2REREREREjgtmkxmn20MgUG7sksOkSqTe8nI/DrsDi81u7BIREREREZHDxGKz47A7KC/3G7vkMKkSIRzA5/Pi8SRqNlxERERERCQOzCYzHk8iPp/X2CWHUZVJvF6fF5c7AatD14aLiIiIiIgcblaHE5c7Aa9CeFxVmRAeCYcpLS0lJSUNi9Vm7BYREREREZG/icVqIyUljdLSUiJh7YweT1UmhAP4/V6CwQBJyalYLAriIiIiIiIifzeLxUZScirBYAC/X7Pg8ValQjhAaWkxZrOF5GqaERcREREREfk7Waw2kqulYTZbKC0tNnZLHFS5EA5QUlIEQPUatbA73ZjMFmOJiIiIiIiIHCCT2YLd6aZ6jVqwW+aS+DOlZTaLGBurCofDhcfjwVtWQmlpMaFAOeGIrlcQERERERE5EGaTGYvNjseTiMudQGlpqZagH2FVOoQDmMxmXE4XTqcLv9+Hz1tGIOAjHAoSDoeJRACq9I8gIiIiIiISByZMJjCbzZgtVmw2J06XG4fDic/nxevzahO2KqDKh/Dd2e0ObDY7VqsNi8WMyWQCTMYyERERERGR41SESCRCKBQmGAwQCJRTXu43FskRdFSFcBEREREREZGjWZXcmE1ERERERETkWKQQLiIiIiIiIhInCuEiIiIiIiIicaIQLiIiIiIiIhInCuEiIiIiIiIicaIQLiIiIiIiIhInCuEiIiIiIiIicaIQLiIiIiIiIhInCuEiIiIiIiIicaIQLiIiIiIiIhInCuEiIiIiIiIicaIQLiIiIiIiIhInCuEiIiIiIiIicaIQLiIiIiIiIhInCuEiIiIiIiIicaIQLiIiIiIiIhInCuEiIiIiIiIicaIQLiIiIiIiIhInCuEiIiIiIiIicfL/R+7W+enwv6EAAAAASUVORK5CYII=;" parent="1" vertex="1">
          <mxGeometry x="440" y="970" width="692.09" height="230" as="geometry" />
        </mxCell>
        <mxCell id="HS-kTsl2HhBY35uQCvbo-11" value="" style="shape=image;verticalLabelPosition=bottom;labelBackgroundColor=default;verticalAlign=top;aspect=fixed;imageAspect=0;image=data:image/png,iVBORw0KGgoAAAANSUhEUgAAA4oAAAIRCAYAAAAMW0PMAAAAAXNSR0IArs4c6QAAAARnQU1BAACxjwv8YQUAAAAJcEhZcwAADsMAAA7DAcdvqGQAAMvrSURBVHhe7N13dBRVG8fx7yabukkggZBQAyRAkN5rKAGUXgSxoiKKotLsBaWIBUVBRFAQ66tSBRQRG0pROiJNgYTeQgmk9933j5CVmVASSCDA73POngP33pnd7D5Tnpl771gCy4Q7KARzP/2MlbY1pJSOw8XVBQA/t0w8cKP+tk74+tk4NHkWVXbG4uHIrvf2LU5iMQ9SRvZly987+HSbg1N+5XBx8wDAM9AP/7R43m7ny7eLlzB63BuG97yYed8sIDS0srn4nJKSknj99Vc5FnOcMa+MJTg4CIC0tFQ+/PBDPp4xA4Bp06bTuEkTABwOB2vXrOGJJ4bTNrItzz//IjabDYC406fx8fXF1dX1rHfJ5nA42LplCyNGvMi+ffsAGDlqNL169XK2mT9/PqNHjaRx4yaMffVVSpUqBcCxY8cY8eKLrF27BoA2bdvy/PMvEBSU/XnPJ2d97056j1atWmGxWMxNyMhIx83N/cy/M/jkk4+Z8v77ANSqXZuRI0cSFlbFtJTR2jVrGDjwIbp262r4PqKjd9P71p7Odi+PHEW3bt1wc3M7a2mjzMwsflj8PS+9NMJZdvb3n/ObLfpukbP+0cceo3//B5zrzfk8F3L2OjMyMkhLS8XHx9fcDM685ycff8xHH013lvXs2YshQ4cQEFDC0PZsDoeDXbt28vxzzxIdvRtMv7n5+84Lm83GCy+OoGPHjueMsxxnx0zLlhE88+yzVKhQwdzM4MjhI7z66lhWrlwBcMHfMzS0MhMmTjrvOo8dO4a/v/85f5ML/Z7m2DfHkPm3zonxi633XMvmfKaOHTvy/AsvUqxYMWfbHHa7HbvdgdWa/V2f/Xm+njmL6tWrO9vGxMTw/HPPsnHjRmeZiIiISFGWnaEVErvFQobFlQyLlQyLlTSspJ15y+zs1IHDknnWy35WDdjtDhz2LBwOOw6HHXtGJplZDux2B1lZdsN7FQZPDw8GDBhAUFD2iSnA35v+diaJADNnfU1s7EkALBYL9erXo/8DDzjrc+zYuYMlS5aQnp5mKM/IyGDlyhU89dSTziTxcvz+22889dSTrFm9moyMDHM1DoeDI4ePsGPHvwBMencCGzasJysry9Bm//79LFu2/KwljbZs3sxjjz7KkiVLSE1NNVfjcDiIjT3Jli1bzFXnNGb0KKZMeZ8TJ07gcBivXTgcDk6cOMH7779nSBKvhPT0dL788ksOHjxg+FwOh4Pjx48zceJEQ5IIsGDBfEa8OIJ//vnH8L3mSE1N5ccff2Tw4487k8SCkJSUxIsvPM/kye+d83vkzHv/888/xMQcBWDlyhW8+OIL542XjIwM1qxezTPPPu1MEi8mOno3H374AUeOHM31nW3dsoUlPyw2tC/KlixZwieffEzc6dOG8vT0NH766SdOnYo1lOf444+Vzm3d4XCwfdt2JYkiIiJyTbEU1h3FOZ9+yu9+60golYLlzN0NL2sWnrjQelskPn7eHHl/FqG7YvBwZN/NsvmWJNHPi+SX+7L17118/Hcm8X6lcXX3AsDN1xtfewoTbvblf7Nm8d60aYb3LErMd1xy7lCEhlamY6dOlA4uy5Gjh1jyww8FmiycLSgoiObNm1O7Tl3crG7s2bubNatXs3XrVnNTGjduQus2rfH2trFx4waW/vorSUlJ5mbnZLPZiIiIoH79Bnh72zgac4S1a9Y673LmV85nKeZXnLj40yz7fdklr+tSnO/uU+fOnWnUOLt83do1LF588YQnNLQyrdu0pXKlUDIyM/L93V6Oxo2b0LhJY4KDSpOcnMTGjRtYsWLFed87KCiIyMh2VL8p+07YP9v/YenSX4mJiTE3zRObzUZku3bUr9+AjPR01q5dwy+//GJudk04+7s5duwYv//22zm3o7NFtoukefOW/LN9G/PmzTNXi4iIiBRphZYofjrlfdaW/odTgengagXAwyULDwu03dAcHz9P4j+aR0j0CWfXU0/v4iT6eBD3wq3s2LqfT7Zlkugb7EwUXb088CGVt9rZGPTkk2z79x/DexYl50sUpeg7X6IoIiIiInKjKLSup598MRO7S3bXtfT07FdyahZJaXbijqcSfzINtwwHDosDh8WOw2InMyOZrNRkEk+lkxyXiSPLDhmZzpcjJY3MtCyW/ra8SCeJIiIiIiIi17JCSxSXrVrBjN4f4rbdinucG25xVjySLHiediX+VCKHD8aQ6l+MhJJexJbKfp0u7kqinyu7d+3HkZ5FGR8rgW6ZlLYkUtqSSHlrPCl/TGXU+PxNYiMiIiIiIiJ5V2hdT290HTt25Kmnn8bLyxuA9evXM3TIYHMzKYLenfQeDRs2BCAlJZnxb73FkiVLzM1ERERERK5bShRFRERERETEoNC6noqIiIiIiMi1SYmiiIiIiIiIGChRFBEREREREQMliiIiIiIiImKgRFFEREREREQMlCiKiIiIiIiIgRJFERERERERMVCiKCIiIiIiIgZKFEVERERERMRAiaKIiIiIiIgYKFEUERERERERAyWKIiIiIiIiYqBEUURERERERAyUKIqIiIiIiIiBEkURERERERExUKIoIiIiIiIiBkoURURERERExECJooiIiIiIiBgoURQREREREREDJYoiIiIiIiJioERRREREREREDJQoioiIiIiIiIESRRERERERETFQoigiIiIiIiIGShRFRERERETEQImiiIiIiIiIGChRFBEREREREQMliiIiIiIiImKgRFFEREREREQMlCiKiIiIiIiIgRJFERERERERMVCiKCIiIiIiIgZKFEVERERERMRAiaKIiIiIiIgYKFEUERERERERAyWKIiIiIiIiYmAJLBPuMBcWlLDwegQEBOPm4YWLBcBibiIiIiIiIiIX5MDugIy0FGJjjxL171/mBgWuUBLFoDKVCKl0E8lJ8Zw8fpSE+FOkpaficBT4W4nc0Jq17MiqlUvMxSJXleJSrhbFnhQVikUpaBaLBQ93T3z9/CkRGIy3zY99e7YTc3iPuWmBKfCup2HV6lO2fChROzfz7/aNHD9+mNS0FCWJIiIiIiIil8DhcJCalsLx44f5d/tGonZupmz5UMKq1Tc3LTAFmiiGVauPp5eNLZtWEx8Xa64WERERERGRyxQfF8uWTavx9LIVWrJYYIliUJlK+BUPYMc/f+nuoYiIiIiISCFyOBzs+Ocv/IoHEFSmkrn6shVYohhS6Sb27t6hJFFEREREROQKcDgc7N29g5BKN5mrLluBJIph4fVITopXd1MREREREZErKD4uluSkeKpUb2iuuiwFkigGBARz8vhRc7GIiIiIiIgUspPHj+IfEGQuviwFkii6eXiREH/KXCwiIiIiIiKFLCH+FO7uHubiy1IgiaKLBdLSU83FIiIiIiIiUsjS0lOxWMyll6dAEkWwaBIbERERERGRqyA7FyvYTLGAEkURERERERG5XihRFBEREREREQMliiIiIiIiImKgRFFEREREREQMlCiKiIiIiIiIgRJFERERERERMVCiKCIiIiIiIgZKFEVERERERMTAElgm3GEuzK+IyN6sWrnEXFzgKoaE0LpNa/yKFcOeZWf7P9tYvWoNKSkp5qYXFRQUxOOPP0bJkgFkZGQyd+48li9fYW4mUqQ1a9mxULa9alWr4VfM11zslJmVxd49ezh16jS9evagUePGLFu2jB9//EnblhRaXPr7F6dipUpYXV3NVU7xcQns2LmDiIgIOnXqyN+b/mbuvHlkZWUxcOBD1KtXB4C//vqbadOmmxeXa5xiT4qKwojFix2bc+TE4pWkY3/R0KxlR1YsnWcuvmTXRKLYqVNn7rv/XgJLlsBisRjqMjLSWbVqDe9MmEB8XLyh7kIqhoTw+huvERQUREZGOtOmTWfevPnmZiJFWmEciACmT/uA0LAwc7FTzjZz8mQsTz71BDZvGwkJCYwaPYZTJ2MLbdvy8vKiV88etGnThqDgIGJjY1m7bh0zv57JqVOnzc3lKimsuOzduxcDBz6Em5u7ucopOiqKt8a/zSuvjCUwsATp6WlMnfIBC7/9jrFjX6F582YA/PnnKkaMeMm8+CULCwujw83tsVrdiN4ZxeIlP5ibyBVwI8VeSIUK3Na3DzVq1qJEiQASEhL4a+NG5syey779+83N5QorjFi82LE5R3RUFA8NfMRcfEH+/sVp1qw5tWrWZNXqVflO8nReXTQUdKJY5LuePj74cYY/MYRSgSVzJYkAbm7uVKtWlYDi/uYqEbmCLBYL7m5u5uICE1KhApMmTeTBhx4krEoYvr6+hISEcFufPkybNo2mzZqaFxHBYrFgdbOaiwuMq6srjwx6mPfem8RtffrQq2cPmrdsbm4mN6DCjL0OHTowecp7dO7cmZAK5fGx2SgdHEznzp2ZMPEdIiIizIuIXNCb497gqaeeILJdGwIDS5qr5QZVpBPFW3v1pEvnzlhds3e0WVlZREdF8e233zF/wUJ+W/o7sbGnuOxboiJyXpv+2sT8BQsNr28XLmL7P//y++/LmPn1TLZt3casWbNYs2atefEC4erqyuDBjxMaGmquAqBEiQAGDXqE0sHB5iq5TsXHxbF48eJcsfnLL0vZuXMXH330Edu2buPbb79nwYJvzYsXiAYNGvDRjOnc1qcPHh7nv9Mk15eiEHt+fj64u7lht9tJTk4mLTXNWVe8eHHuv/9e/Ir5GZaRa98vvyx1xtvPP/9CWlo6AGlp6fz88y+GWBQpCK4235KjzIX5FVLpJg7ujzIXXxa/Yn4MHvw4JUtmX9WIj4vj7bffYdKkyaxevYa1a9ayfPly5s37htOxpzh0+DBJSUkA1KhRg0cfHcSjjz7KPXffSfMWzfH29mLnzl04HNlpZfHixWnfvh0+Pj7Y7Vls2LCRf/75l84dO9GxcyeaNGmCBTh06BAATZo05tbet9KkSRNK+pdgV1QUpYODueuuO2neogXVw8PJzMzk6aefZNCgR2jduhXJKcns3bOX3n1u5aknn+CB/vdTv0F99uzZS2xs7DnXG1alKs88/SQDBvSn1VnryBFSoQIPPTSAhwYOZMCAB+jarSuVK1Xk0MFDxMXFOdvJjaF8hbAC3/YAunfrSkBAAAAr/ljJ+5OnsHbNWudr3bp1nDh+gtLBwdSsVYu4+HhcXFw4fOgwVqv1nNuWq6srHTt2YvDgR3nooQHcdecdNG/RHHBhz57dzm3zXG6+uQNdu3bBzc2NjIx0Zs6czbBhwzlw4AB169TBw9MTH5sPKWmpbPprk3lxucIKKy5vuqk6DRo0wNXVldNxcbw3aTI//fSTITa3bduGXzE/GjdqRGJyMg67nfjEBE4cP0FkZCTly5cH4MCBgyxd+hsALVo057HHHuOhhx6iX7+7iWzbFl9fH6Kio8nMzDR9iv+MGT2SSpUqYbFYyMqy4+KS3evl7HXLlXWjxF7VKlXw8vJm1KgxTJ78PjNnziIgwJ/Q0DBcXCy4ubuzbes2Dh8+bF5UrpDCiMVt27Y54y0tLZWWES1xd3cnNS2VTz/5lPnzFzhjkTycD/sV8+OOO26nVetWhIWGYfOx4cCBPctBjZo1nee7eYnT851Xy5VVvkIY+/f8Yy6+ZEX2jmL18HACAwMByMqys2jxD+c88GZlZfHLr78SExMDwMOPDOSdd96idetWBAaWwK9YMWrWrMmjjz7Ke5Mm4u9f3LwKg+Ytm9OrZw969exB/Qb1neX1G9R3lud0KypXvhxdu3WlV88edO/elZEjR9KwYUOKFy9OeHg4Tz7xBGPHvsIjDz9MpUqV8CtWjIYNGzJ6zCiqVq2Sa72333U7Q4Y8TliVMPyKFSM8PJxnnn6GW3v1BKBuvbq8++4EdTWRIuPsbaBrt66UK1/O3MTpxRdf4KmnhlOrVi38/QOc2+aTTw5j5Msv4XqBSSJq1aqJl5cXALt2RvHpp58CsHTpb2zY+BcArq4u1K9b17Cc3JgCivvTseMt2fvmHl25qXq4uYnTgw89yOjRo2jcuCGBgSXw9fUlrEoYAx4cwNvj37zoMcNut7N27XoWLV5srpIb0JWKvZ9+/oVnnn2OqKjsRCQrK4vFi5dw+nT2WG13NytlSpc2LSU3krycD58dr6WCSgFgdbXSvHkz5/nu5cSpXPuKbKJYrlxZZ1eehIR41uahS1vnzp3p0a07bm7uOBwO4uPiOBZzjKysLCwWC9XCwxk+bJh5sQLh7x+Ar68P+/YfICMjuyuAt7c3zZs3Izk5mUNHDmO32wEIDgqiffv2pjVA+XLlcNjthnV4eLjTtm1bANysVlysVpKSk4iOimLv3r3OdupqIoXltj59WLr0F8Nr+rQPzM0uyt3dHbvdztGYGHbs+De727jDgYuLC02bNeG22/qYF3EKqRDi/PfefXvJyspy/n/P7t1kZmVf0SzmX5ygoCBnnVy/goKC+PiTGYa4/PHHxfTu3cvc9ILczowhO3kylh07/iUmJga73e48Ztx//33mRZxOnIxl0qT3eO6550hPSzVXy3WqKMReSkqKYT/ImX2sq2v2aV1ycgp79u4z1MuNI6/nwzldlxOTkpzHUYfDQWpKKolJSaSmpl5WnMq1r8gmim5u7s7Ja9LS0ojPQ7fKdpFt8fTyBGDTpr+58657uOPOu/ho+gwyMtKxWCzUql2LevXrmRe9bGlp6Uye/D797+/PnLnfkJWVnRSeOBHLCy+MoN/d97Jx40Y4M8C9TJkypjVkt336mWfpf39/vv5qpnOjLRlYkoohIWRkZvLVl1/Rs8etPDTwER544EEmvPMuycnJAASWKkW1qlVNaxW5MjIzMpzjJc5lx44dDBk6jLvuvJtBgx6nX7972bTpbwCsVjdq1qxpXsTJ09PD+e+kM/GeIyU1BceZizBuVitentn7ABEAe5aDlKTzJ3GHDx5izJhXuO22vgwa9Dj33HMvP/30Mw6HA4vFwk3Vq5sXcXr++Rf49tvvzMUiUMixdy4339yeYsWKARAVFcXmzZvNTeQGkdfz4RKBJRkw4CG6d+vBvjPDnDIzM5jx8Qy6d+vB2LGvFnicyrWlyCaKGRnpzjFLNpuNoOAL3yWoUL48wWWyu1lkZKSzetVq5/MVf/hxCYcPHwHA29uLypUqGpYtCPFxcfz7T3af4FOxJ7Hbs5O8uNOxzr7ie/b+N9bwXA7s3+dsu237dlLPGpzOmUlFtm//hzfHvcGC+fOYN282NevU5Pjx4wB4uLtRoUL2GAiRgnL4yBF27PjX8IqO3mNudtELOl999TUtW7Tgiy8/59vvFjJxwjscPnzIeVc8qFR2V3ORvEhNSWXXzl2m2NzJ8eMnDO0ysjI5fjJ7H3kuC7/9jsBSgcyYMZ1vv1vIx5/MIDklheSU7AsSPr6+VAz57462SFGMvf4P9Kddu/ZYLBaOHD3KRx/NMDeRG0RBnw8XZJzKtafIJooHDx5y3p2w2WxERLQ0NzFwcXHB5cwdyIyMTE6c/G+HHR8XT2ZGBpy5m3eh5yBdKrvDnqsbSH6lpJ7/yiNA02ZNGT16JPXq18PH1xcPD0/anzVAXqQw/PHHHwwa9Ljh9ca4ceZmFzXy5Ze4447bKVu6DO5uVsqWK0vHjh2xWi/+SI2YY/+dbJUtU9ZQFxQU7FxHUlISBw4eNNTL9SkuPo7XX3/DEJdDhgzL97O/Hn10kHMcuaenBwEB/nTv3hVvL29zUxEoYrHn6urKkKFDuPPO2/HwcOfkyVjee28yO3fuMjeVG0RBnw8XRJzKtavIJorr129g/77sB8ZaLBbatWtP/wf6m5vh5eVF//vvI6BECVLPJFoeHp6GB5KGh4dT3D97Bke73U6Kqeva+bieeSwHQMkSV/+ZMi1bNKdYsWJkZdn57vvFdO3anSFDhnHCdBVTpKgJDw+n+k03YbFYOBZzjCFDhtG1a3cWLf4Bu/38s53miN6929mdu2rVatSoUQPOPCC4Tu3azm7q+/btv+wLNnLj8CvmR6NGDXF1dSUhIYGxr7xKt649mDH9YzIzs0+mRApDQcSeq6srL7zwPN26dsHqauXQkcO8PHIkq1etNjeVG0js6VMFdj5cEHEq17YimyhmZWWx+IclpKbkBLs799x9F3PnzuHNN7MfCjplymTmzZ1Dr9634urqwubNm3E4HLi6utCtaxdu79uXiIgIBj/+GAEB/gAcP3mStWvXmd7tP1lnxgUCNG/ejHr169GpU2caFMK4xvwqXjz7bwBISkwE4Pjx46SkGbuoihQ1vr4+eJwZZ5hhzyQhPgGAuNhYHGQngBfyx8qVxMaeAqBkyQCefe4Zhg0byhuvv05YleyDYGpKKhs2ZI8DFsmLgOL+eJ4Z02q320k4s189efIkWZkXj0uRS3W5sefvX5zXX3+VNm1a4+rqSmZWJumpaQwZ/BhTp05m6tTJ9OrZw7yY3ADi4+IL5HyYAohTufYV2UQRYPHixcyZN8/ZBdVisRAQ4E/Dhg3p3Lkz4eHhzsG6AN9/v5ijZx6T4evry8OPDGT06JFUv6k6FouFtLR0vlvwHUeOHnUuY/bPP/86r5IEBwXx9vi3ePrpJwzvc7Vs3bqVzMwMXF1d6H3rrUyf9gEfTJ1KhQs8kkCkKNixcyfHjx0DoExwaSZOnMD0aR9w+x13YD3rzv357Ny5i2XLfnfeLSxXtizdu3ejStUqWCwWHA4HG//6ix9//NG8qMh57d23jwMHDgBQrFgxXhrxIh98OIUhw4YUiX2+XL8uN/YiI9tSp85/vSmsrlYqVapEtWrhzlfOODW58RTE+TAFEKdy7SvSiSLAJx9/wphXxrBz185cXcocDgenT5/m+++/Z+PGv9i5cxcvPPcCW7ZuzdX2xIlYJk2azOw5cwzlZnPmzGXFij8Myx87foI///jT0O5qmDNnLqtXrcFut+Ph4U5oWBhJKckcPHTI3FSkSImPi+fTTz/n9OnTWCwWAksFUiGkAlu3bnFOZnMxU6ZM5Ysv/kdCQvbdyBxpael8u+h7Ro4clWu7F7mYjz6awaHD2fvQ4sWLE1o5lKidu0hKTjI3FSlQij0pLAVxPpxDcXpjswSWCb/4AKGLiIjszaqVS8zFBc7fvzgVK1XCeubB3MePHWfvvnM/JygoKMg5A2h8XAI7du4wN7mgiiEhBJYKJCMzkx3/7nDOGFUU5Hy21JRUtv/zT66dgNw4mrXseEW2vYLi5eVFtfBquFmt7N9/gJgzVzzzw9XVlZuqV8fTy7NIbp9y7cXl2TF1oeOKFH2KPSkqikosXu75MIrTa0qzlh1ZsXSeufiSXVOJoogYFZUDkcjZFJdytSj2pKhQLMrVUNCJYpHveioiIiIiIiJXlhJFERERERERMVCiKCIiIiIiIgZKFEVERERERMRAiaKIiIiIiIgYKFEUERERERERAyWKIiIiIiIiYqBEUURERERERAyUKIqIiIiIiIiBEkURERERERExUKIoIiIiIiIiBkoURURERERExECJooiIiIiIiBgoURQREREREREDJYoiIiIiIiJioERRREREREREDCyBZcId5sL8iojsbS4SERERERGRK2jF0nnmoktWYIni0h++MBeLSCGL7NRP254UOYpLuVoUe1JUKBblaojs1K9AE0V1PRUREREREREDJYoiIiIiIiJioERRREREREREDJQoioiIiIiIiIESRRERERERETFQoigiIiIiIiIGShRFRERERETEQImiiIiIiIiIGChRFBEREREREQMliiIiIiIiImKgRFFEREREREQMlCiKiIiIiIiIgRJFERERERERMVCiKCIiIiIiIgZKFEVERERERMTAElgm3GEuzK+IyN4s/eELc7GIFLLITv207UmRo7iUq0WxJ0VFUY9Fn/IlqNivIbayxQCLufqC3NzdcLFaOPLLDnZ9udZcLVdRZKd+rFg6z1x8yXRHUURERETkBlJtWBtKN61M2eahlG1eOV+v4CYhlG0WSr1nbjavVq4zuqMocg0r6CuWNpuNFi1a4unlZa4ySE1J4Y8/VpKUlGSuEinwuMyRl/jcvXs3W7dsNhef0+133k3vPrdx5PARhg4eZK6Wa1BhxF7NWrWpXLmyuTiX/MSeXP8KIxYLUt03elIsrCS2Mn7mqjzx9PLEnp7FgibjzFVyFRX0HcVrIlHs3qMnt91+B5UqVyY9NZ0NG9fzxeefsnnTJnNTkRtKQR+ImjRtxhvjxlMqKMhcZXAsJobnnn2KNatXmatECjwuc+QlPufNm8PLLz5vLj6nwUOHMWDAw+zfv4/uXTuaq+UaVBixN+bV1+nd+zZzcS75iT25/hVGLAKEhoVxX/8B1KvXgFKBgaSmp/HP9m3MnT2TX37+2dz8vOq+3hO/0AC8S19aoujmYSUrNZPFrSaaq+QqKuhEsch3PR099jXGvPI69es3xL94AEHBwXTu3JWJEycT0aq1ubmIXIakpCSio6PYueNfdu74l927d5OZkUlaWipRu3Y5y6Ojo3Q3Ua6azIxMdu/e7YzHs19HjxwxNxe5LEePHDHEWOyp2HOWK/aksLXv0IFPPv+S3r1vo3Llyvj4+lKyREkiIlrz5vgJDBk63LxIoXJc9q0mKeqKdKLYp+/t3HJz9lXeBfPnEdmmJQMffIDdu3cTFBzM40OGYbPZzIuJyCXaumUzDz5wH716dKVXj65M/3AKaelpxJ2O47VXxzjLH3zgPnWxkqsmLT2N6R9Occbj2a8pkyeZm4tclimTJxlibOe//wLwx58rFXtyRXl72/D08MThcJCamkJqagqOM9mah4cnvfveno+bKA5wnMn28vgq4+rP+OD7GeTf8cyy5nXK9aZIJ4rt2rXH18+PrVs389rYMcQcPcofK5fz7oS3OBl7kipVqnD7XXebFxORQla7bl1GjhnL0OFP0qJlKz6YPoMPps+gUZMmRLZrz9jX3mDo8CcNy4RUqsRzL4zguRdGEFKpkqGufYcOfDB9BvMXLmLegu94fdx4ateta2gjkh+NmjTh7YmTmL9wEfMXLuLd96bSomUrc7NcbDYbQ4c/yZxvFjJ/4SK++Gom9/UfkOuipGJWzIYOf5KRY8bSqEkTRo99jS+/ns3d99zrrBv72htEtmtvWKZnr968Pm48PXv1NpSHhoUx5tXXmbfgO+YvXMS0jz6he4+ehjZy48myZ7Fnz25GvvQCDerWokHdWnz6yQwy0jMAKOZbjLr16pkXKxAV3EoyIuh2gq3+nLarR9GNosgmijVr1SY0rCoZ6RmsW7va0M3tl59/5sC+fXh4eHLTTTUMy4lI4asYUpEuXbrRqUtXxrzyKhERrWnapDlNmzajRs2adO3ag3btOhiWCQ4K5pZbOnHLLZ0IDgp2lo8e+xrj355ERERrqlYLJzy8Ot179GTylA+5NQ/jgkTM7us/gClTp9GxY2eqVgunarVw2nfowNvvTKTvnXeZmzvZbDbefW8KDw18hGrVwgmpWJF69Rrw9DPP8dSz/409U8zKubRr14EuXbrx1NPP0bv3bdStV9+ZGLZr14GuXXtQo2ZNwzL1Gzake4+e1G/Y0Fl2a+/bnN0Lw8OrU7VaOC1aRjDmldcZPfY1w/JyY/l96VKGPD6IeXPnOMvmzJnFkaOHAbC6WQkoUfKsJS4srzcUK7gF8mJgX/xcvPg9cStfnV6OQ3cTbwhFNlEsU7YsPjYb6Rnp7Nmzx1xN9O5oAEoElDBXicgVUjq4NImJiYwe/TKTJ7/Lvr17zU0u6I677qFz5y7YsfPpJx/RuEEdunftyNo1qwnwD6DvHXeaFxHB29ubl0eNYe2Gvw2vRT/8TIOGjfDxsREdFcXIl1+kRngYd97Rh40b1+Pj68u99/bPdUc7R5vISGrVqs2J48d5bNBA6tepSY9unfjxxx9IS00FxaxchJeXF+XKlmP6tA8YPfpl1qxebW5yQSGVKvHAgwMJ8A9g7ZrVdO/akcYN6vDpJx9hx077dh1o38F4EU5uHElJScQcPWoo8/XxxdXVCkB6ehoHDuw31F+Qw4EbrrT3qUOQa7HcGaLDQZhbEC+Vuh2bqydLEzcz/eSPxjZyXSuyiaKnhwdWNzdzcS4l8nHlREQKVnJSEtOmTWH211/x0bQP+HbhAnOTC2rZMgJvbxtrVv3JW+PeyJ5MJyqKzz77mNhTsZQODqZZi5bmxeQGZ7FY8PLyxmazGV/e3litVubOmc2A/vcyd/YsADZv2sSMj6YReyqWwJIlqWm6q3Mh0VFRPDlsCG+8NhYUs5IHP/74A+9OeJvZX3/FtA+nmKsvqF37DpQpU5ojh48wYcJ4oqOyJw57a9wb/LNtGzabDzVq5D1+5frXuUsXgkplzwR9+PARfv0l7zOfAlTzLEv/gHa8UvoeKrqXMtZ5lOWFoL54ubjzW+IWZpzM37rl2ldkE8W8stuzzEUicoWcjjvN1q1bzcV5VqFCCHa7ncphVZxjyeYvXMTw4U/jY7Ph5W0jsKQuBolRUlISzz/7FDXCwwyvtq1bsGb1KmKOHuWOu+7hx19/Z+2Gv1m5ei09e/bBnpmFxcUFVxdX8yrhTLeuLVs2UzIwkMlTPuTnX5fzxptv06hJE2cbxaxcSFpaKlFRu8zFeVaxYiU8PDzx9vZi9OixhhirULEibu5ulAg0nszLjeuBhwbSu3dfrG5WEuLj+fzzT9h3jl5453RmMpp/Ug6wPfUANhcPXijVl0pupcABN3mU59mgPni4uPFb4hY+OvHTfxPY5NxI1A3F616RTRRjYmJISkzExcWCj6+vuRpvb28ATp48aa4SkSskIz0j7welC3DY7Yb/2+1Z7Nu7l6hduzgdF2eoE7mYxwYP4bHBQwgMDGT79q1sWLeBunXrEljqwifYSUlJDB38KNOnfUBMTAxBwUF0696D96dM49HHhxjaKmblXOx2B4kJCebifLOf4wz8xLFjegyHOA1/8mkef3wIPr6+JCUl8fnnnzL766/MzS7CQZYjizdj5rE9dT82Vw9eCO5LR7/6PBN0Kx4WK8sSt/LRiR/PyhDN2aJcz4psorhm9Sri4k7j4eFJWFgVQ53NZqNKWFXsdjt7du821IlI0VQysKTzAk+OhIR4LBYL69auyfWYg149unLXHX1Y/vtvhmVELqZN23a4urgyZ9ZM7u93N0MHD+K1saOdz7+7kKSkJN6d8DY3t2tNrx5d+PWXn/H09KRzl26EVKqkmJUCdfbEXgAJ8XFkZmYSe+Ik99x1e6740mM4hDMTat133wN4eHgSd/o0kya+k++4cN4UdEC6PZM3js5je+oBvF086BfQFjeLlZWJ25l2fIl52GL20EQNUbwhFNlEEWDjxg0AtGkTaXguzIMDHyEkpCIJ8fFs2Lj+rCVE5GpLSk7G7sjCy8vb8LiABg0a4W16xMCWLZux2+20aBFxzmc/maeSF8kLN6sVh91BclKisywhKQl7ZqahndktnTrTrXsP5/+jo6L45ecfSU1NxebtTXBQsGJWLklaehquVlf8/QOcZbXr1qVSpVBDu782biAxIYHyIRUYMPBhQx1nHvsSGhZmLpYbhM1mY8Kk9+nVqzdu7m7Y7XYSkhLp3ec2ZxflkWOyx1PnV6YjizeOzmV76gEAViZuZ+rxxbpveIMr0onil//7nKhdOwkKDub1N9/i3fem8ukXX3Jf/wdwcXVh2e+/8cP3i8yLichVtH7dWk6eiKV0mdK88srrDB46jKkfTqdTpy6kp6cZ2s6ZPZPoqF0EBQfz9oRJfDB9Bq+PG8+7703lt2V/MHSY8VmMInmxa9curG5WOnXtzgMPDeTW3rfx0EMP43+RWbKrVq3KyNGvMOebhTz3wgiGDH+CAQ8+jLe3NwcO7mfN6lWKWbkkWzb/DUDXbj146+2JPP3sc7w5fgJeNk9Du19+/pnly37H6mplwICBzPlmIa+PG8+b4ydkPw/03fc1mc0NrF37DrRo0RJX1+xx1i4uLpQrW875GKCq1cKpUL6CebHzc5y5pXjmlWnP5LXDs3jl8NdMPfY9DvNtxHO95LpWpBPF6KgoXnvtFXbt3EHxYv6079CBRo2yJxX4YfH3jH1llHkREbnKNm/axPz5c0lKTCSsShUeGfQ4TZo1Z/nyZcTHxRvaRkdFMXLkCFb9+QceHh5ERLSme4+etO/QAb9ifmzfvs3QXiQvPpg6mc1//025suV48slnGDP2NQJLBXHq9ClzU4PVq1cRHR1NtWrh9Lv3fh5++FFCw8LYu3cv0z/8ABSzcom+/N/nbNm8GW9vbzp36cp99w8gMyOTtWvWmJsy9pVRzPz6S1JTUrjpphp079GTLl27ERpWhQMHD7B3X/4eQyRyLo4sO/aM3BNC2nHwT+pB3UkUACyBZcIvOxYiInuz9IcvzMUFqknTZgQFBZFlz+Lff/4hOirK3ETkhhPZqV+hb3uXKjQsjPDq1XF1cWX37t1s3bLZ3MTg7PapKSn88cdKkpKSzM3kGlBU4jLnuHE6Li5f4wbPjsULLauYLXqKSuydT6s2bSlerFie4sVms9GiRUs8vbx07nMNKuqxWHNkF7wDbXiX9sPV6+KPozubxQJu7layUrP4qUv+HgEjhSuyUz9WLJ1nLr5k10yiKCK5FfUDkdyYFJdytSj2pKgo6rFY48VOuHq74V7ME6unG7hYzE3OywK4Wl3JSslk1cNfmqvlKiroRLFIdz0VEREREZGCtfuDlaQcOEXKkQQS9pwiYffJPL/id8dyausRto37ybxauc7ojqLINayoX7GUG5PiUq4WxZ4UFYpFuRp0R1FEREREREQKlRJFERERERERMVCiKCIiIiIiIgZKFEVERERERMRAiaKIiIiIiIgYKFEUERERERERAyWKIiIiIiIiYqBEUURERERERAyUKIqIiIiIiIiBEkURERERERExUKIoIiIiIiIiBkoURURERERExECJooiIiIiIiBgoURQREREREREDS2CZcIe5ML8iInubi0REREREROQKWrF0nrnokhVYorj0hy/MxSJSyCI79dO2J0WO4lKuFsWeFBWKRbkaIjv1K9BEUV1PRURERERExECJooiIiIiIiBgoURQREREREREDJYoiIiIiIiJioERRREREREREDJQoioiIiIiIiIESRRERERERETFQoigiIiIiIiIGShRFRERERETEQImiiIiIiIiIGChRFBEREREREQMliiIiIiIiImKgRFFEREREREQMlCiKiIiIiIiIgRJFERERERERMbAElgl3mAvzKyKyN0t/+MJcLCKFLLJTP217UuQoLuVqUexJUVFUY9GnfAkq9muIrWwxwGKuviA3dzdcrBaO/LKDXV+uNVdLERDZqR8rls4zF18y3VEUEREREbkBVBvWhtJNK1O2eShlm1fO1yu4SQhlm4VS75mbzauV65TuKIpcwwr6iqXNZqNFi5Z4enmZqwxSU1L444+VJCUlmatECjwuc+QlPnfv3s3WLZvNxed0+51307vPbRw5fIShgweZq+UapNiToqKwYvFy1X2jJ8XCSmIr42euyhNPL0/s6VksaDLOXCVFQEHfUbwmEsWbO3aides2HDt2jHcnvG2uFrlhFfSBqEnTZrwxbjylgoLMVQbHYmJ47tmnWLN6lblKpMDjMkde4nPevDm8/OLz5uJzGjx0GAMGPMz+/fvo3rWjuVquQYo9KSoKKxZz1K5bl+7demLz8eHo0SN5Pj+u+3pP/EID8C59aYmim4eVrNRMFreaaK6SIqCgE8Ui3fXUZrMx4qVRvDHuLXr26k27dh3MTUSkACUlJREdHcXOHf+yc8e/7N69m8yMTNLSUonatctZHh0dpbuJctVkZmSye/duZzye/Tp65Ii5uUiBUexJUTB02HCmT/+EO+++h+49el7x82PHZd9ikmtFkU0UW7RsxedfzuSOu+7G4uKC3W43NxGRArZ1y2YefOA+evXoSq8eXZn+4RTS0tOIOx3Ha6+OcZY/+MB9ee5iJVLQ0tLTmP7hFGc8nv2aMnmSublIgVHsydXUqEkT5nyzkIcefhQfX19zdR45wHEm28vjq4yrP+OD72eQf8czy5rXKderIpsoPjDgQapVC2fDhnV8+cXnZGVmmZuIyFVSu25dRo4Zy9DhT9KiZSs+mD6DD6bPoFGTJkS2a8/Y195g6PAnDcuEVKrEcy+M4LkXRhBSqZKhrn2HDnwwfQbzFy5i3oLveH3ceGrXrWtoI5IfjZo04e2Jk5i/cBHzFy7i3fem0qJlK3OzXGw2G0OHP8mcbxYyf+EivvhqJvf1H4DNZjO0U8zK+Sj2pLA88shj3HRTDSwWC3a7HccVuLVXwa0kI4JuJ9jqz2m7ehLdaIpsonjq9CmmfziF++65i7S0VHO1iFxFFUMq0qVLNzp16cqYV14lIqI1TZs0p2nTZtSoWZOuXXvk6goTHBTMLbd04pZbOhEcFOwsHz32Nca/PYmIiNZUrRZOeHh1uvfoyeQpH3Jr79sM6xDJi/v6D2DK1Gl07NiZqtXCqVotnPYdOvD2OxPpe+dd5uZONpuNd9+bwkMDH6FatXBCKlakXr0GPP3Mczz17H9jzxSzcj6KPSlsDoeD6Kgovv7qf2RmZJqr8ySvNxQruAXyYmBf/Fy8+D1xK1+dXs4VyE2lCCmyieJTw4fy7sQJ5mIRKUJKB5cmMTGR0aNfZvLkd9m3d6+5yQXdcdc9dO7cBTt2Pv3kIxo3qEP3rh1Zu2Y1Af4B9L3jTvMiInh7e/PyqDGs3fC34bXoh59p0LARPj42oqOiGPnyi9QID+POO/qwceN6fHx9uffe/rnuaOdoExlJrVq1OXH8OI8NGkj9OjXp0a0TP/74A2mp2RcsFbM3NsWeXE0JCYnM/OpL7ry9NwkJ8ebqvHM4cMOV9j51CHItljtDdDgIcwvipVK3Y3P1ZGniZqaf/NHYRm4IRTZRFJGiLzkpiWnTpjD766/4aNoHfLtwgbnJBbVsGYG3t401q/7krXFvZE+mExXFZ599TOypWEoHB9OsRUvzYnKDs1gseHl5Y7PZjC9vb6xWK3PnzGZA/3uZO3sWAJs3bWLGR9OIPRVLYMmS1KxZ07zK84qOiuLJYUN447WxoJi94Sn25GoaNuRRxr4yqkAmk6vmWZb+Ae14pfQ9VHQvZazzKMsLQX3xcnHnt8QtzDj5s6FebhxKFEXkkp2OO83WrVvNxXlWoUIIdrudymFVnON55i9cxPDhT+Njs+HlbSOwZEnzYnKDS0pK4vlnn6JGeJjh1bZ1C9asXkXM0aPccdc9/Pjr76zd8DcrV6+lZ88+2DOzsLi44Orial4lAL8vXcqWLZspGRjI5Ckf8vOvy3njzbdp1KSJs41i9sam2JNr3pnJaP5JOcD21APYXDx4oVRfKrmVAgfc5FGeZ4P64OHixm+JW/joxE//TWCTcyNRNxRvGEoUReSSZaRnsG/PHnNxvjlMsxrb7Vns27uXqF27OB0XZ6gTuZjHBg/hscFDCAwMZPv2rWxYt4G6desSWMp41dwsKSmJoYMfZfq0D4iJiSEoOIhu3Xvw/pRpPPr4EENbxayci2JPrg0OshxZvBkzj+2p+7G5evBCcF86+tXnmaBb8bBYWZa4lY9O/HhWhmjOFuVGoERRRK6IkoEl8fb2NpQlJMRjsVhYt3ZNrqnme/Xoyl139GH5778ZlhG5mDZt2+Hq4sqcWTO5v9/dDB08iNfGjib2VKy5aS5JSUm8O+Ftbm7Xml49uvDrLz/j6elJ5y7dCKlUSTErF6TYk6LOeVPQAen2TN44Oo/tqQfwdvGgX0Bb3CxWViZuZ9rxJeZhi9lDEzVE8YaiRFFEClRScjJ2RxZeXt6GKdsbNGiEt2ma9y1bNmO322nRIoKIVq0NdQCR7dqbi0Quys1qxWF3kJyU6CxLSErCnnnhGQJv6dSZbt17OP8fHRXFLz//SGpqKjZvb4KDghWzckGKPbnWZDqyeOPoXLanHgBgZeJ2ph5frPuGAkoURaSgrV+3lpMnYildpjSvvPI6g4cOY+qH0+nUqQvp6WmGtnNmzyQ6ahdBwcG8PWESH0yfwevjxvPue1P5bdkfDB1mfBajSF7s2rULq5uVTl2788BDA7m192089NDD+AeUMDc1qFq1KiNHv8Kcbxby3AsjGDL8CQY8+DDe3t4cOLifNatXKWblghR7ck1wnLmleOaVac/ktcOzeOXw10w99n328xkv9pIbghJFESlQmzdtYv78uSQlJhJWpQqPDHqcJs2as3z5MuLjjNN5R0dFMXLkCFb9+QceHh5ERLSme4+etO/QAb9ifmzfvs3QXiQvPpg6mc1//025suV48slnGDP2NQJLBXHq9ClzU4PVq1cRHR1NtWrh9Lv3fh5++FFCw8LYu3cv0z/8ABSzchGKPSnqHFl27BlZ5mLsOPgn9aDuJIqBJbBM+GXHRERkb5b+8IW5WEQKWWSnfkV22wsNCyO8enVcXVzZvXs3W7dsNjcxOLt9akoKf/yxskCmAJcrr6jEZZOmzQgKCuJ0XFy+xm6dHYsXWlYxW/Qo9qSoKCqxaFZzZBe8A214l/bD1cvNXH1BFgu4uVvJSs3ipy5TzNVSBER26seKpfPMxZdMiaLINayoHojkxqa4lKtFsSdFRVGNxRovdsLV2w33Yp5YPd3AxWJucl4WwNXqSlZKJqse/tJcLUVAQSeK6noqIiIiInID2P3BSlIOnCLlSAIJe06RsPtknl/xu2M5tfUI28b9ZF6tXKd0R1HkGlZUr1jKjU1xKVeLYk+KCsWiXA26oygiIiIiIiKFSomiiIiIiIiIGChRFBEREREREQMliiIiIiIiImKgRFFEREREREQMlCiKiIiIiIiIgRJFERERERERMVCiKCIiIiIiIgZKFEVERERERMRAiaKIiIiIiIgYKFEUERERERERAyWKIiIiIiIiYqBEUURERERERAyUKIqIiIiIiIiBJbBMuMNcmF8Rkb3NRSIiIiIiInIFrVg6z1x0yQosUVz6wxfmYhEpZJGd+mnbkyJHcSlXi2JPigrFolwNkZ36FWiiqK6nIiIiIiIiYqBEUURERERERAyUKIqIiIiIiIiBEkURERERERExUKIoIiIiIiIiBkoURURERERExECJooiIiIiIiBgoURQREREREREDJYoiIiIiIiJioERRREREREREDJQoioiIiIiIiIESRRERERERETFQoigiIiIiIiIGShRFRERERETEQImiiIiIiIiIGChRFBERERG5AX1YqQ3b6t3NgirdqOzhZ64+r7JuNsYGN+L3Rr15snJDc7VcJ5QoioiIiIjcYBr5BNPGKxhfmyfNQkP4qUYfKrtfPFms4O7DN5Xac3/V2tQoXYZnazSlhLuXuZlcByyBZcId5sL8iojszdIfvjAXi0ghi+zUr1C2vZq1alO5cmVzsVNqSgp//LGSpKQkc9U5jRwzlrp16vLzzz8xZfIkc7VcZworLm02Gy1atMTT6/wnJLt372brls3m4nO6/c676d3nNo4cPsLQwYPM1XINUuxJUVFYsViQ+hQL5e3qbfH088DVy0pWWhanjyVy87Z57EtLMDcHoJybjVmVIgkJDsTDzxt7RhbpSSm0XDeXfWmJ5uZyhUV26seKpfPMxZesSCeKoWFh3Nd/AI0aNaZEiZKcPHmCtWvXMGXyJGKOHjU3F7nhFNaBaMyrr9O7923mYqdjMTE89+xTrFm9ylx1TjM++ZymzZozb94cXn7xeXO1XGcKKy6bNG3GG+PGUyooyFzllJ8YGzx0GAMGPMz+/fvo3rWjuVquQYo9KSoKKxZztO/QgT5976D6TTVwdXVhz+7dLFwwn7mzZ5mbXtAfVXtTqXQprF6uuHi4kpWWyfEjcdy8fT6HM4wXg8u5eTOnUlsqBAfh7ueNPTOL9Lgk/rfrb54/8behrVwdBZ0oFtmup63atOXjTz6nd+/bqFAhBJvNRoUKIfTp05dPPvsfTZo2My8iIgUs9lQsO3f8m+sVHR2V57uJIgUtMyOT3bt354rLnTv+5eiRI+bmIgVGsSdFwYiXRvHm2xOJiGhNyRIl8S8eQP36DXl55Bimfjgdm81mXuS8Wuycx96YE2QmZ5KVmomrh5XAYD++r9aZUm7eznbBVm9mV2pNhaDAs5LEBGZGb1aSeB0rsoli8WLFyMzMYtbXX9K9a0caN6jD+5MnkZiQkJ0w3na7eRERKWA7//2XXj265no9+MB9ee5iJVLQ0tLTmP7hlFxx2atHV3VtlkKl2JOr7Z5+99Hz1lvxcPcwV+Hq6kqLlq0Y/sTT5qoLav7vHKKOxJCVnIE9JR1XTytlypRgUbWb8Xd1p5TVkwWhragYHIR7MR8cWVlkxCcwf882nj62ybw6uY4U2URx27atPPfcU4wZPZLoqOy7F1MmT+Knn5YAUKVKFfMiInKF2Ww2Bjz0MF/Pmsv8hYv4etZcBg8dlqermUHBwYwe+xrzFnzH/IWLmPbRJ/Tpm/sCUJ++t/PpF18yf+Ei5nyzkBEvjSIoONjcTMSgUZMmvD1xEvMXLmL+wkW8+95UWrRsZW6Wi81mY+jwJ5nzzULmL1zEF1/N5L7+A3LFdPsOHfhg+gzmL1zEvAXf8fq48dSuW9fQRm5Mij0pTF2798DLK/tO3549e7j/vruJbNOSNatX4XA4cHV1pVWbttSsVdu86AW12jWfrYcOkpmclp0serkTUiaIX6t15IewSEKCgnDzs+HIyiQjLp650VsYcvQv82rkOlNkE8XoqCjWrVljLubE8WNkZmSai0XkKpg+4zOGP/EUtevUpWq1cGrXqcvDjzzGu+9NyXVyc7bQsDA++PAj+vTpS1hYFUIqVqRFywhefGkkgx4bDGdOmqZ+OJ2XR46hUaMmVK0Wzk031eDOu+/hk8/+R0Sr1ubVigBwX/8BTJk6jY4dO1O1WjhVq4XTvkMH3n5nIn3vvMvc3Mlms/Hue1N4aOAjVKsWTkjFitSr14Cnn3mOp579b+zZ6LGvMf7tSUREtKZqtXDCw6vTvUdPJk/5kFsvMLZXrn+KPSlMbSIjKVO2LJy5u71wwTesW7OGmKNHmTdvNgnx8QCULFmCxk2bmpa+uJt3L2bz4f1kJqVgT07F1dOdchVKU7Z8Gax+PjiyMsmMi+f7vdsZFqPupjeCIpsonk949Ztwc3fj4MGD5ioRKWD1GzZk7Ya/c71GvDQKAIfDzsIF39C9a0dqhIcx6d0JJCUm0qhREwY+8qh5dU4339KJipUrE7VrF7f27Er9OjW5/767Wf3nH2RlZgEw8JFHad48guSkJN5683VqhIdx/313s2vnzjPdz+8wr1ZuEN7e3rw8akyuuFz0w880aNgIHx8b0VFRjHz5RWqEh3HnHX3YuHE9Pr6+3Htvf0IqVTKvEs6chNWqVZsTx4/z2KCB1K9Tkx7dOvHjjz+QlpoKwB133UPnzl2wY+fTTz6icYM6dO/akbVrVhPgH0DfO+40r1auI4o9uZoqh4bhc+YibGJiIrt27XDWbd26ldNxpwFwc3OnTHAZZ11+dNz9C+sO7iYzKRlHejqunp642bxx4CAzLoHv925n4GHdSbxRXFOJ4u133k39+g2Jj4tj6a+/mKtFpIC5u7ljs9lyvdw9s8dGvPDCs7z4/LNER0UB8OHU91mxcjlWNyvVq99kWtuFrVuzhkEPP8S0D6cA0LxFS1xcXVi8eBGffjzD2Wb27K9JTU2hcmjoBe9ayvXLYrHg5eWdKy5t3t5YrVbmzpnNgP73Omf/27xpEzM+mkbsqVgCS5akZs2a5lWeV3RUFE8OG8Ibr40FoGXLCLy9baxZ9SdvjXuDpKQkoqOi+Oyzj4k9FUvp4GCatWhpXo1cJxR7cjXZvL1xsbgCkJWRSUpyirNu3549ZKRnAODi4uI8Tl+KUTGbsackgQXAARYLFsCelsLo4/+am8t17JpJFCPbtefhhwfh5e3N778t5Zt5c8xNRKSArV71JzXCw3K9cqaAL1asGB9M+4hVazawdsPfLPj2ezw9POHMoPrz+enHH9i7ezdhVaowd/63LPrhZ156eRShYWFwZir6kiVKYrfbadykmXOsz/yFi7jzrn64Wd3xsdnyPQZDrg9JSUk8/+xTueKybesWrFm9ipijR7njrnv48dffWbvhb1auXkvPnn2wZ2ZhcXHB1eXcsfn70qVs2bKZkoGBTJ7yIT//upw33nybRk2aONtUqBCC3W6nclgVQ1wOH/40PjYbXt42AkuWNKxXrh+KPbnelXf3YkZII9z8bFisVhxZWTgyMnBxdcU9IIBvwlpQ3NXNvJhcp66JRLFb9x68PHIMJQMD+WHx94x9Jbvbm4hcPSGVKjFq9Cu0jGhNcnIyy5f/TkpKCi3zMGlDdFQUjzz8IHPnziYuLo6KFStyx1338MnnXxrH2TjA4TA+6jUzI53du6P0iA45r8cGD+GxwUMIDAxk+/atbFi3gbp16xJYqpS5qUFSUhJDBz/K9GkfEBMTQ1BwEN269+D9KdN49PEhhrYOu93wf7s9i3179xK1axen4+IMdXLjUOxJYdq3dy/pGekAeNtslC79X/fSJk2b4evrC0BGegYnjx9z1uVVaasn31VuTrngYFx9/XBkZZIVd5qsuNPYk5Nw9fKmYrmK/FAtAn8lizeEIp8o3tr7Np5+7gX8AwJY9O1Cnn36CZ0cihQB7dp3oGLFShw8eICBD/XnqeFDufP2Pvz2+1Jz03OKOXqUkSNeoE3LZvS//x7+2riBAP8Aet56K0djjpKalorD4eCnHxfnmoZej+iQC2nTth2uLq7MmTWT+/vdzdDBg3ht7GhiT8Wam+aSlJTEuxPe5uZ2renVowu//vIznp6edO7SjZBKlUhIiMdisbBu7ZpcMdmrR1fuuqMPy3//zbxauUEo9qQw7d69m9Ons8ch2mw2Ilr/N6lb02bN8fcPACAlJZmo6OwhIXlV2urJ92HNKBMUjIuvH9izcMTF8XP0Fpbv3Y49KRFHSnayGFa2IourtMDPxWpejVxninSieGvv2xj25FP4+PgwZ9ZMXnj+GXMTEblKPNw9sLi4kJGRaXjQdEoeLuTc2vs2Itu1d/5/3Zo1rFmzisyMTIoX82ffnj3s3LETq5uVyMj2zi6pOWw2G63atDWUieRws1px2B0kJyU6yxKSkrBnXnjG7Fs6daZb9x7O/0dHRfHLzz+SmpqKzdub4KBgtmzZjN1up0WLiHPOvHt2XMuNR7EnhWnrls38vekvHA4HFouFdpEdmPbRJ7z3/gfcfc+9uLln3+Xbf2A/vy/N20VbgCA3D36o0pTyQWVw8S0G9izs8adZsGcL9xzazG0HNrF0/7/YkxJwpCTi4mUjrEJlllRrrmTxOldkE8X2HTow7MmnKBFQgvj4eBo0bGjok//Rx59pfJLIVbR1y2bi4+MpX648r7z2Bt179GTw0GG0atvG3DSXuvXrM37Cu3z6xZcMGf4EI14aRbfuvbC6WdmxI3ug/Nw5MzkWE0PVauF89r+vePe9qbw+bjxTPpjGz78u4777+ptXKwLArl27sLpZ6dS1Ow88NJBbe9/GQw89jH9ACXNTg6pVqzJy9CvM+WYhz70wgiHDn2DAgw/j7e3NgYP7WbN6FXNmzyQ6ahdBwcG8PWESH0yfwevjxvPue1P5bdkfDB32pHm1cgNR7ElhmztnFjFHjwLg5u5Gi5YRRLZr75zcLSE+nnnz5uS5912Qmzs/VG5C2VI5SWImjvjTLNm7lYGHtznb3XlwMysO7sCRlIgjJQEXT2+qlg/jx2rNsV1gTgK5thXZRNHb2+acFCOwZKDzeUQ5r9DQMM14KHIVrVi+jFlff0VaWiq33NKJ18eNp/8DD7Jvz15z01zWrVnN0SNHaNiwMQ8//Ch33n0PZcqUYfPff/PB1MlwZv0vjXiB7du3UbyYP+07dKB7j560bhOJxWJh+/b/DmAiZ/tg6mQ2//035cqW48knn2HM2NcILBXEqdOnzE0NVq9eRXR0NNWqhdPv3vt5+OFHCQ0LY+/evUz/8AM4c6dn5MgRrPrzDzw8PIiIaE33Hj1p36EDfsX8FJc3OMWeFLY1q1fx3HNPsX37NsMYfofDwYED+3l17Ghmf/2VYZkL+aZSPcoHl8HFtzjYMyH+NN/v3sq9B3PHU+/9m/ntwL+QlAgpiVg8valctgILwxqYm8p1whJYJtw4U8QliIjszdIfvjAXi0ghi+zU76pve0HBwdRv0BAXFwv//vOP81EZeVGzVm0qV64MQExMDGtWrzI3AVO703FxGodTxBWFuOTM5A5BQUH5jpnQsDDCq1fH1cX1gsue3S41JYU//liZ56v4UjgUe1JUXIlYzOsx9HwifIvzWXg9XH0C8PLwxSUxiR/2bKXfoX/MTQ2+qVCTVuWrkenhRpoli6zkODpt+oMdKYrBqy2yUz9WLJ1nLr5kShRFrmFX4kAkkl+KS7laFHtSVFwLsVjc6sbK2vXw8PDF2+HO8kN7ufPAhZPEHIsq1KRe6XKkkE66I5Ob1i43N5GroKATxSLb9VRERERERArH6cwMRuzbx+pjMby7e3Oek0SArvu38v7urfxx8hiP/LvVXC3XCSWKIiIiIiI3oAUnY+gXvZU3jx0yV13Ua8cPcl/UVpbHX/zxL3JtUqIoIiIiIiIiBkoURURERERExECJooiIiIiIiBgoURQREREREREDJYoiIiIiIiJiUECJogMsFnOhiIiIiIiIFDaLJTsnK0AFkijaHeDlZTMXi4iIiIiISCHz8rJhL9g8sWASxYy0FIoVDzQXi4iIiIiISCErVjyQjLQUc/FlKZBEMTb2KKVKh5iLRUREREREpJCVKh1CbOxRc/FlKZBEMerfv/DxLUHxEkHmKhERERERESkkxUsE4eNbgqh//zJXXZYCSRQB9u3ZSpXwBprURkRERERE5EqwWKgS3oB9e7aaay5bgSWKx44eIP70SWrXb61kUUREREREpDBZLNSu35r40yc5dvSAufayFViiCLA7agtpqSk0at5J3VBFREREREQKQfESQTRq3om01BR2R20xVxeIAk0UOZMsHj4YzU21WlK7QRuCy1TCy9tHdxlFREREREQuhcWCl7cPwWUqUbtBG26q1ZLDB6MLLUkEsASWCS/gJ278Jyy8HgEBwbh5eOFiAVCyKCIiIiIikj8O7I7sxxLGxh4t8IlrzqVQE0URERERERG59hR411MRERERERG5tilRFBEREREREQMliiIiIiIiImKgRFFEREREREQMlCiKiIiIiIiIgRJFERERERERMVCiKCIiIiIiIgZKFEVERERERMRAiaKIiIiIiIgYKFEUERERERERAyWKIiIiIiIiYqBEUURERERERAyUKIqIiIiIiIiBEkURERERERExUKIoIiIiIiIiBkoURURERERExECJooiIiIiIiBgoURQREREREREDJYoiIiIiIiJioERRREREREREDJQoioiIiIiIiIESRRERERERETFQoigiIiIiIiIGShRFRERERETEQImiiIiIiIiIGChRFBEREREREQMliiIiIiIiImKgRFFEREREREQMlCiKiIiIiIiIgRJFERERERERMVCiKCIiIiIiIgZKFEVERERERMRAiaKIiIiIiIgYWALLhDvMhSIiInJt8vH1x8fXD3c3d7BYzNXXBoeD9Ix0EhPiSUw4Za4VEZErQImiiIjIdSKgZGk8PTxJTEomPT0dh+PaPMRbLBbc3d3xsXmTmpZK7Ikj5iYiIlLI1PVURC4oNLQyU6ZOZfacObz66muUK1fO3OS6FxQUxLTp0/lr09/MmTuX0NDK5iYiV52Prz+eHp7EnjpNWlraNZskAjgcDtLS0og9dRpPD098fP3NTUREpJC52nxLjjIXitzoatasSeMmjQkKCmb//n3m6huGzWZjzJixNG3ajFOnYnnrrXHs23fjfR9JSUls376N+g0aEBZWhYoVK/Hbb0vJyMgwNxW5agJKBpGUnEJmZqa56ppmtzuw+dhITIgzVxnYbDZat25NeHg4dnsWp06py+qlCAoK4r7776dR48bs37+fpKQkc5MClfO73VTjJqpWq0rx4v4cOnTI3ExuUEFBQURERFC1alVt11fBdZkoPvjgQ0yYMJF7+t3DsWPHiIqKMjcRuaBBjz7GY489TrVq4cyeNdNcfcN45JFBdOzUidjYWMa9MY6///7b3KTAhIZWZuK77/Loo4+RkZnB1q1bzU0KVcuWEdxzTz9uuaUTDRo2ID4ujmPHjjnrT506xZHDR2jcuDGVQ0Px9PRk1Z9/GtYhRduzzz3HuHHjiGzXji1bthIbe9Lc5JoWEFCK+IQEc/E1z2634+frS1xcrLnKoF69+rz08kg6de5MQmIi69atMzeRswQFBdGwYUNOnDjhvOhls9mY/P4UOnXqRIMGDalfvwE/LllSqBfFcn63bt26ExnZjqCgIL777jtzs2vOub5fyb+2kW15ccRLtG/fQdv1VXBddj1193DH22bDy8sbq5vVXC0iedC4cRO6de+OxWJhyZIfWLlyhblJgWrbth3Vq1enVKlSRLaNNFcXmtDQynz44TQmvjuJvrffTtduXbn77nv49LMveGv8eGw2m7PtypUrWPrrr1gsFiIj21Grdm3Duq5Hbdq25dPPPuOb+Qto3LiJufqaEdkukltuuQWHAxYsWMiuXTvNTfKtyH03Fss13d30fBwOx7U7KU8R9Ohjj7Fs+QqW/PgTL454iRo1ajrratSoSWBgoPP/gYGBhnq5uAt9vyLXmquWKHoEVqTSPRMoWa+DuUpEioCbb+5AyZIlOXjwIHPnzDFXF7jffvuVLVu2cuTwERYvXmyuLhQ2m41nnnmOxk2a4OrqwsGDB1i3bi0nThzH1dWFyMh2PP/8C4ZlFn2/iGMxxwgKCrqiCe3VctNNN1GjRk18fHzMVdeU2/r0xc+vOL/++gtz58w2V1+Sa+W7mfzeBNasXn7B1x8rfuXhgQ+YF5XrUGBgKYoVK4blHMn32rVr2LVrJw6HA4fDQXRUFGvXrjE3kwu40Pcrcq25KomiR2BFyvV6BY/AqgS3fQz/mq3MTUTkKgoJCaFho8YArF+39oqMS4yO3s2AB/rTqdMtLFgw31xdKG6/4w7q1quL3W7n+0WL6NqlCw89+CA9undn7Zo1uLi4ENGqFR07dnQus2XzZjZv2YzVaqVps2aG9UnRZLPZGDVqJA0b1GPUyJHm6utealoaScnJzldON7g0U3l6mrrHCTz26KMMGTyYIYMHM2jQI+ZqEbmBXPHHY+QkiW62ACwOwAGupHH4l4nEbltubn5JHn3sMfr3f4D09HRef/1VFn23yNzEyWazMejRR+nYsSPFiwdgsUBiQgIrV65k0qR3iYmJMS+SS2hoZYYMHU7dunXx8/MjMzODE8dP8uvSX5g6ZQpJSUnc1vd2evXqRUJ8PO+9N8kw/ioiohUDBw4EYNq0aaxYsZyaNWsyePAQfP38WPz997Ro0YJ69etjtbqxe3cUU6ZM4cD+fQwb/gQNGjTEw8OD2NhYPv/sM7744vOzPh306tWLu++5h/Lly+Pu7kFKSgrRUVFMnTqVP//8w9D2XB55ZBDt2rfjwP6DfPLpxzz+2OPUqVsXDw8P4uPjWblixTm/q6CgIAYPHkKz5s0pXrw4DgecPh3LkiVLnN/Lud5j1epV3Hffvfj5FWP5suWMGGG8o2N277330aNHT8qVL4u7uwdpaWkcPXqUhQsX8MnHHzvb5efzjBw1ml69ehEdvZvet/aE8/xOOc7+vebPn8+c2bMAGPHSy9SpU5u//95MamoqXbt2wdfXj1OnTjF37hw+mDqVJ554gs5duhIQEEBycjLLli3jtVfHOj/P2etesGA+tWvVJqJVK/z8/EhJSWHDhvVMnPAO0dG7nZ8nKCiIIUOG0rJlS3x8fS/4t55L39tvZ9iw4WRkZDD2lVf4+eefDPV5Xf+YV16hevXqnDp1ivfee48tmzc71zFq9Ghq1KhBTEwM70+ejKur6zm/w7xsX5fq408+pX79+uzdu5ehQwYbEuKWLSMYPWYMAQEBLFmyhOefe9ZZd3///gwaNIikpCRGjxrFsmXLnHXnYrPZeOCBAXTs1IlSpQKxWt1ITk7mwIEDzJr5NfPnz7+k+CIfv0V+4iinbUCJALy8vChTpiwZGekcPHAIuyOLA/sP8sQTw/L83hdTq3Zt7r33Xho3auxcT2JiPJs3b2b69Ols2bw53/tQgObNWzBo0CBCw8Lw8vIiPT2NAwcO8OX//sf8+f9djCiM74Z87nNsNhvPPvccLVq0dLaNizvNqj//5L33JuXav55LhYpViYn5b1zt+Ux+bwKNGjXg2+++59VXx5mri6SgoFLs33vh7sKNGzdh7Kuv4u/vz2effUrp4NK0jIg45++YI6/nAK+++hpVq1Vl27Zt57zYkLM/27ljJy++aDxmBQUF8c6EiVSsWBGAo0djGPnyCEMMf/rZZ1SpUhWAI4eP8Pzzz7Fr105q1a7Nww8/TP36DfD29gYgMzOLvXt354rj/335FZUqVQJgz549rF79J7fddjs2m41dO3fh5e1FYGAgVqsrHh6eAGRlZTlnyN2zZw/33H1XrvXcc/ddzvfI+b7atetAqVKBuLq6ApCamkrUrl18NOMjfv/tNxo2bMR9999HnTp18fX1xWKxkJWVRWxsLAsWfMP7k993rjPndytVqhQAa9esYeDAh6hfvz4vjxzl7Ar7/aJF2Hx8aNeuHZ6enmRkZLB69SrGvvIKvW69lb59++LvHwDAyZMn+ezTT3OdD13q97l+/XoOHDhA9+7d8fPzw+FwGN7j7M96se+Xs87LKlasjNWa/R0mJyezceMGPvzwQ8Ox8kLyen539jnWr0t/oX///oSEhODi4kpMTAxff/VVru/qfPJyPCMf+98czuNJRAS+vr4kJyfz118bWbZsOcOHD8fd3Z1PPvmYKe9nx05BHX/kwq7oZDaeJcpT7tZXDUmixe7AYXelWGgjMhOPkHL88u9cNGrcmHr16pGVlcXKlSvYufP8B5cJEyfSpUtXvL29ychIx8XFFW9vb6pWrUrTpk3ZuGH9BWdYCgkJYdybb9GgQQPc3NxITU0FoHjx4tx00004cLBu3TratGlDu3bt8fTyYsWKFYYZvWrXqUX37j3wDwhg3fq17Ny5k4oVK9G7Tx/Kli1LpUqVqFYtnKysLNzd3ShZsiS1atWmbr36NGnShKysLFxcXPH19aFWrVokJCSyffs2AAYOfJghQ4dQqlQQDoedzMxMvLy8CAoKolXr1oa259OlazdatGiJxcVCRERLatepg9VqxWKx4OnpSZUqVahataphFsjQ0Mq8/c4EmjZrhre3N3a7A4sFfHx8qFWrNk2aNuHvvzc5v9uc9/C2edO8eXNKlSqFh4cHrlbreSeTsdlsvDNhArfd1pcSJUtgtVrJzMzE3d0df39/KleuzI4dOzh06FC+P0+bNm2dCU7O+5/rd8px9u+1c+cO52Dre+65h9q161CsWDEaNWqI1eqGi4vrmfetRbVq1ejatSvu7u7Y7Vl4e3sTGhpKcHAwS5cuzbXu0NBQGjRo4Dzoenp6EhJSkZo1axkmHPjk009p1qw5Hh7ZibPVmvOetalZs+ZFZ+zs3r0HderU4cSJE3zxxefExRlnG8zr+jMyMunYsRNVqlShRImSLPnhBwAeGDCAO+64g+LFi/Prr7+y+Pvvz/kd5nX7AnjnnYk8+NCD9O3b97yv9u3as3fvHo4dO0b9+vXpdeut+Pj4sGbNGubONXav3b9/P+3atSM4uDQWC8ye/V93xWLFitG8RQtsNhtR0dFs2rTJsOzZcmLvlls64ufnh4uLC5mZmXh6elKyZEnKlw9h9qyZlxRfLVtGMO7NN2nUqNGZE6d0LBbw9fXL9VvkJ47Kli1H7z59qFChAn5+2V2orFYrAQEBlChRArvDwexZM/McBxfSs2cvRo0aRc2atfD09HSOsfP29iYkpCIWi4Vlv/+e731ox44dGfPKWMpXqIDF4kJGRjoeHh6UKFGC5s2b4+Hpydq1ayGf21hev5v87nMmTXqPdu3a4+XlRVpaGnZ7Fr6+vlSrVg0fH1+W/f678+89n2LFS+Tp5Khz546ULVuGHTt3sWKF8WLhiy8+y/i3XuehB/tzb7+7sDsc9Ot3FyNfep6BAwdw6609sDtg69ZtPDzwASZNHM+tt/Zk564oDh/Oftbh+cpt3t489tjDvPzS8wwe/CgPPtifu+66nSpVwti6bTtJScmGz3I2Hx8bcacvPPlQ2bLliGzXDi8vL0qXLk39+vXP+zvmxGVezwFq1apF6zZtCAoKZnf0bvbv3+98344dO9Lv3vsoVSqIVX/+yZo1q8/6VNmzJt9UvTq1a9fBw8MDm82Lw4cPO/cbnTt3plv3Hvj6+uLu7s7mLZv56sv/ObeNatXCcXNzc67PxcWFgIASNGvWDA8Pd9atzd4f3H1PP4KCgnB3d8fFxYU6dbIvrrm4uJCZkYmHhwf+/v5Yrf/N3eDi4oKbmxvu7u4kJCQye9ZMw3pyyjhrX9auXXt8fX1xcfmvU5rVasU/IIBDhw6ybt063ps8hbpnLijndMF0cXHBZrNRt249KpSv4DzG5fxuOePBDx06xHfffUf58hW4pWNH/P39cXd3x8vbm4YNG+Lu7g6Aq6srFSpUoEbNmrRv3wE/Pz8sFgsWiwVvb29q1KjB0SNHnBMaXs736eXlRePGjfHy8oIzz/n09vamZs2anDp1iqSkZOdnvdj3+/LIUTz44EMEBgYavkM3NzcqVAihWdNm7Nu3zxBj53L2eiwWC2lpadnnd8HBuc7vcs6xfP18aN26DYGBQaSnp+PqaqVYsWI0aFAfu93OX3/9ZX4bg7wez/Kz/+VMAv/W+Hdo0rQJnp6eZGZmYLW6UqlSZcLCwvD29sbFxYVNm/5yHv8K4vgjF3fFup56lihP2VvH5koScYDFAY5Md8q1HUbxqk3NixYqi8XCunVreejBB2napDGtW7VkzuxZpKenERoaRt++d5gXMahXrz7lypUnMTGBN954g+bNmtK0SWOefHI469etIz0t3bxIvri5ueHm5sZTTz1Bs6ZNmDhxIikpKZQtW5Zq1aox/q23aNa0CcOGDiEmJgZfX19u7vDfuE+rm5WDBw/z2muv0qhhQ5o0bszoUSM5fvw4vr6+9O7d2/B+F1KuXHn8/QMY/9ab1K1Tm9639uTPP//AbrfTsFEjhgwZ6mw7ZOhwqlSpSnJyMh/PmEHrVi1pFZH93WZkpHPTTTW4//7c42ECAwM5efIkL774Ai+9NII/Vp7/LvOQIUNp3rwFnBlX0a/fPTRq2ICOt9zMZ59+wsmT/51UXOrnKSiBgSX5+quvadqkMf3738eBAwfw8PAkMrIdP//8C5Ft2xLZti1rVq/GxcWFxk2a5Jocw80t+yLBJx9/TNMmjWnapDHz588nMzOTsLBQbuvb19k2K8vOTz/9SJ/evWjWtAmdO3Vk6a9Lsdvt1K1X19D2XIKCg3FxceHo0SPn7Haa1/WvXLmChQsXkJGRTuPGjbnrrrupVbs2vXv3wd3dgw3rNzD5vffMq3fKz/YVUrEiVapUveCrUuXKeHtnn4wEBwdjs3mTmZlFTMzRs971P7t37wHAz6+Y4fc4efIkqalpuLq6ERCQfQX7fIYMHU6NGjXJzMxkyZIldLzlZho1bEDvW3vy7bcLSUyMNy+SZ/feey8VKlQgNvYk4996kyaNG9OmdWtnXNerX4877rzTsExe4mjt2jXc3KE9devUZtq0D8nIyODYsWMMfOgh57ZPPuLgfGrVrs1DAwcSEFCC06dP8e67E2lQvx4NG9TjiSeGsXHjRjIzLm0fanWzEhd3mvcnv0/rVi1p2qQxjz36KHv27MHd3YPOnbtQs6ZxkomC/G7ys89p2qwZVapWITMzk49nzKBZ0yY0a9qEhx58kN+W/kZy8sWTv4KSfqY7akZGBq5WK40bNaBhw3ocPnKU2NhYSpQowe19+1CzZg3zohf11FPD6XtbH0qUKEF6ejqpaal4e3vTvn0kI17874795XJzc6NEiRIX/B1z5PUcYOlvSzl+7Dj+/v60adP6rHeD1m3a4ufnx8GDB8/bbf7335c5Lwp4eHhSt249Z139+vWd41yTk5P5888/CAkJ4Z5+9xAQUAKA9PQ0tmzezNJfl3L8+HHnejp37nrOSbVKliyJr6+vufiy5OzLchI/h8NBSkoKSUlJpKVlX8Q7m8PhIDb2JLt27eTYsWPOi0Curq5EtmtH39tvNy9yQZUrVyYlJZkTJ44712WxWKhfvz7u7u4cP36cxMT/Zv0tVqwYbSPbwZmL+pfzfQYFBQEWjhw+QnLyfxc0/Pz8aNO2raHthfTu3ZsOHTo4E9W4uDiWL1/GunVrSUlJASC4dPBF950563FxceHPP/+g7229ada0iXMf5+vrS58+fQyTsQGULBnIwYMH6d//Plo0b8YjDw/k0KFDeHh40qHDzYa255LX41l+978PPvgQlStXIikpiY9nzKBN69a0ad2aWTNnUuJM7w2zyz3+SN5csUSxVPNBuPmUzE4S7cYkMSdxdGS6EVj/bvOiherNceMY+NBDrF+ffYUiKSmJV199lX/++QcXFxfCq4ebFzHw9PLEYrFgtztITc3eyAGW/rqUQYMe4aOPphva55fdbmfF8mX8/ttvAHz26SfOq7P//vsPX331JZw5Ic+5Olmi5H8zls2bO5d7+93N7Fn/dVWbP38+P/ywmMzMLIKCStG6tfGgdz52eyZff/0V//vf/+DMmLKnn3qKf//9F1dXVxo2bITtzPOQatWqicPh4IfF3zNp0rskJSU5v9vff/8di8VCw4aNcu2QExMT+Wj6NL5ftIjvvv2Wd955x1CfIyQkhCZNm+Lq6sqGDesZPmyYs6tGTEwMEyZM4M47bmft2jWX9XkKyu7de5g+fRqcGeO2fv16AE6diuW77751fp7ffv+N1NRUbDYbpYL++x1zrF+/jvfem+T8/zfz5nLs2DHc3T0oV668s/y5Z5/hmaefdnaxiomJ4d13J3D48GE8PDypXv0mZ9tz8T6zU3bYz90zPT/r/+Tjj/lr4194enrSu3cf+t//AGXKlOHw4cNMmTrlrLXmlp/ta+KEdxgx4oULvt4c9wbbtmV393JxdcFiccHhsDvvVObV1q1bSUlJxWp1xdfXz1zt1LJlBDVrZsfeTz/9xHPPPuPsyhYdvZuXX3qJ++6917xYnnTocDPVwsPJzMzk+++/d26XZ+/D3N09qFUrd0znNY4uJj9xcC6RbSMJCgoiMTGB99+fYugqvvTXpTzQ/35effVVwzJ59dvS3xjwwANMn/6h8y7bn3/+waxZM0lJScHf35+atWqZFyuQ7ya/+xyPM3eAHA674Qr4+vXrGD58KG+9+aZh/YXprfETiYzsyKZNm7G6ulK6dGlmzprLbX3v5t1J75MQn0BAQHHq1atjXvSCmjdrStOmjQBYsuRnOnXqQZs2tzBhwnskJSZRs2YNunTpZF7skuX1d8zrOcCWzZvZ9Pem7N+tUWNCQkLgzMWOunXq4nA4Ljiee+XKFUSf9aiualWrUat2bWw2G/XqNXDeWdq/fz/fL1pE+w4dqFChAgCZmZnMmjWLfv3u4YknhvHiCy84H91TsmQJGjRo4FxvDofDwaZNf/HggAE8/thjfL/4O+cFjrO7/Z3rIse5dOhwM3Xr1nUmicePH2fM6FE0a9qEFs2bEdm2Le9OnOh87nBU1C7GjB5FZNu23NanDzd3aM8Xn3/mjG9vb28aNGhoeI+LOXz4ME8Mf4L27doZZuG22+0sXLiQDu3b8fLLLxkeexMcHARw2d9nYmIC48a9QadOt/DwwwM5cuY8DKB8+QqGC0gX+n7btG3rTOBjY08yevRIhgwezEMPPsgXX3xORkYGFouFKlWq5LqQdbaIVq3x9fXl0KFDvD3+Lec++Ox9XOnSpZ0X03PEx8fzvy8+d54vrV+/jpUrVmC32wkICKB+/fqG9mfLz/EsP/vfC+0vX3/9NX768SfsdvtZnyTb5R5/JG+uWKJ4bPkUMvcdyU4SHbmTRIvdQVZ6IkfXfWVetFDt27eP5s1bMPn995kzdy5fz5zF4MFD2LMn+06Cj8/5TwIB1q1dw/Hjx/Hz8+PFF0fwxRf/44EBAwgNrWxuekmysrKIPU/X14MHjQ+kPfsqV46YmBh8fHx4eeQoZs2ew5y5c3lj3JscPnyYtLRUPDw88fXL21XHmJhj/PLzz4aypKQkNmxYT2ZmFv4BxWnYsCE1atbE19ePhIQE1qz5r2tBjj//+JOUlBSK+xenRg3jVemTJ09edLwXQK3atQgMDCQtLZU///zTuSM6l8v5PAUlPi7unJ8xLi6B1atWOf+fmJhwzh0iQEZGBjt2/Gsoy0lYLBaLc6wIZ+K6a7eufDTjY+bMncv//vclrVu34cjhwwD4Fy9+1lryLz/rT0pKYvL7kzl8+DCVQyvTpm0bkpIS+fTTTy86DiM/29eKFctZ9N2iC75++eWXc/4OhaV2ndr4+WXHXs7FnoJSpWqVM10asyhXtjxjx75meLm6Znd/ykn6c+Qnji4mP3FwLjVq1MBqtXLgwEHDuMuCkJSURGJiIoMHD+HrmbOYM3cuk99/n+SkZBISEpzdRc9WUN9Nfvc569evZ//+/bi7ezDgwQeZPWcOw4YNv+CJ4pWSlpbGF59lX5A8efIUqWlpuLq44O2VPQYrr+rUqYmfry9HjhxhxsefknTmeDVr9lx2792Lh7s7FcqXNS92SfLzO+bnHGDF8mUkJCRQpkxp2p/puRPZNpLAUoHEHI1h4bffOtuey5q1a0hPTwOgRMkAGjduTJeuXSldpjScSWBWnTmeVQypiLu7BwDp6emUKV3WuW13797DmbDldJU1i42N5aPpH2UnAitXMPm9yeYm+ZKzv+HMmL4fflhsSIiSkpL43/++cM4J8ewzTxMXH8ebb73FrNlzmPjuJPbt28fRo//13rjY/sHs4IEDzhlY//nnH2fSmZKSwsaN2Rdfl/66lFOn/hsqkfP7Xe73efz4CRZ/n/23bdm8mYOHDpibXJTNZjNcpEhNTSOybXvn56gSVhWHI/v4b7Vanb1fzqV8+eykNysri/79HzTs+xs0aEBWViZWqxUPz+xuujnOdY4VFx9HVlYWFosFq/W/Lrlm+Tme5Wf/Gx5eHV9f3/PuLzds2HDOi7mXe/yRvLliiWJq3EEO/jqKjEMxzgTRkCRmJHJg2SQSov87ab4SHnv8MSZMnEDLlhFUrFiRkJAQ7ru/f57vskVH72bM6NFs27YNNzc3atWuzZAhQ5k5aw7vTZ58prvC1dOyZQSffvo5t956K2FhYZQtW4527SJ5/PHHnf388yo9PeOcV0sPHz58pv95dtIZEJA9XjAtLS3X2DaAozFHSU5OOueJmt3uyNOJfIUKIbi7u5OZmcWJE9ndRs7ncj5PUWM/zx0+s1deGcuoUa/QsGFDKlSoQGhYGEOGDqNatWrmppckv+vfsnkzv/32G1lZdlxcXNi7Z2+eEoP8bF/vvDOROXPnXvD14YfTnCffaanpZGZmYrG44Ol57pNe65kTSofDQWbmf3d6Gjdugq+vDxkZGRw/fv7JQwIDS+Hm5nbe2LscOXHt7u5B28i2dO3W1fC6UJKR1zi6mPzGgVlO74eE+Evvfns+oaGV+eTTT3lgwADCw8MpV648jRo14oUXX7xgl7yC+G7yu89JSkrilTGjWfXnnwBUrVqN+/v357PPv+CLL/5XaD0d8uLkyVhnUrd+/Qa6druVFhHt+HDaf3d/8yKgRAmsbm6UK1eWObO/NDyao3atmljd3Agokd0tsCDk9XfMzznA4sWLiYqKwt3dgxYtWhISEkJEqwhcXV3Z9Pemi174+uXnn509gtzdPahbty716tV3dquLi4tjw4YN4OzqmM3b25t27dsZtu+zn3V4LqdPxxXos29z9mUAaWmp7Ny5w9zE4OWRoxg37i1uvvkWqlWrRps2bXj+hRHOO3xX2uV+n+Zzk/P1trmQGjVqGrqClilTxvAZ2ka2dSazF5LdVTl7PZUqVcq17+/Q4WZ8fM69jzP/HfmRn+NZfva/AQEBuLqef395+PBhEhMTzcWXffyRvLliiSJnksUDv44m/dAxQxfUrIyUq5Ik1qpdm65duuPu7sHatWvo2qULzZs15amnniA9Pe8DYNevX8fdd91J39t68/GMGURH78bFxYUWLVry+OODzc1zsbq6Oa9mFbTb77id0mVKExMTw5NPPkHzZk3p2qUL27dvNwy4vhwBAQFYz0wkk5aaTmzsSTIzM3FxseDimjvEAvz9z5yYO8jKzDJX58nhQ4edXTSsrue/AsaZ7h2F/XlcXF1wcSmc3zC/OnfuTOs2bbBY4PvvvyeybVuaNW3CO2+PxyWPd0RyupMElMidOF/K+lu2jKBDhw64urpgt9upWq0qjwwaZG52TnndvvI7RvHIkcMkJSVhtbpSoUJ2NzKzCiHZV20TEuLZuHGjs7xkyRJ4e3uRkZHB4UPZVy/P5eTJ42RkZJw39vLqXPGVE9exsScZOmQwdevUPudr4MCHDMsVlEuJA7PY2BMAWC5z2znXPvTOO+8iLKwKiYmJvPXmmzRr2oTItm359ddf832RLL8uZZ8THb2bQYMeoWuXzkycOIFt27Zht9upVbs2g/NwHCksx45d+EJcfsXFxREVFZ3r9e+Oneza+V/XzCvhUs4B/vhjJenpaVSsGMJtffueGSMcy/eLzj+7eo59+/axft1aZ6+RqlWrUbfOf905t2/f5kzuzp7lNjk5mV9/+TVXD4lF3y1i8eLv2b59u7NtYcnZlwG4u7ufd5/JmX1D+/btcXNzIysri40bNzLujTdYsXw5cHnb+qUqCt/ntm1bDUna4cOHc71/zuvnn38679j5jRs3kpiYvZ4ff/wx1z4/59WieTMWXWDW//zKz/EsP/vfhMT4M5Mynnu9OcfbsxXE8UfyJvcvUsjSTu/jwG+jST98HIsjO0k8tPL9K54kAoSEVMCvWPa02Yu/X+zckfz+22+sXZP/B8xGR+9m0qR36X1rT3777TdcXFy4qYbxqr7V6oqXqctO5dDKebqKdCnKlCkHZ6abzukqEBMTw+LvFzsHTueVv3+xc15lrVw5FDc3N+Lj49m5cwcHDxwkLS0NPz+/c3blDK9eHU9Pb5KTU9i9+79pyvMj5wqTl5cXTZpeeAKkgv48Li4uua7WVaxYEZutaDx0u2KlSnh5eRnGPwJ89dWX/PvvP+bm53Tw4EEyMtJzTeLCJazfZrPRr18/SpUqxe7o3fz55x+4ubnTs+etudZ9IRfbvvI7RnHr1q0cPJDdfShnvNDZOnbsSMWKlXA4HOzaZTyBzYmZ06dPExW1y1B3tv37DpCWlkbx4v40yePfmtf4+i+uixkmxrhS8hsH53Lo0CEcDgeVK4fSsmWEufqc8roPrVAhBBcXF8NY7qSkJL777ltOnYo1tC1ol7PPiYmJ4dNPPuHuu+5kzpzZZGZmUbFSpXxtKwUpy57/i2f+AQG4mi5EHj0aQ0ZGBsnJqbz+xnjuvqe/4XXffQ8ye848wzKF7VLOAXLuChYv7k+3rt1wd/cwJHgXk32Sn313JCgoyNntNDk5mRUr/lvHkaNHnImZp6cnqWmpufZnI0a8wP+++B/rzpo9srDk7Ms4M1lQZGRkrn1mrdq1adqsmXPfwJmujh9MncrXX3/F8OFD2b8//102C0JR+D6TkpI4fmYsJICfny9/b/4712d4/fVXWTB/wTl7cOU4eaYnVbVq1ZzjZQtbfo5n+dn/njiRfWHtYvvLsxXE8Ufy5oonigCpp/dxcMVYkg9Fc2jl+8TtvPiYtMJgz7LjcNixWl0pUdLY5aVsuewE62L69buXkaNGn7eLqcORfZA9+6SuYaPsAf2cuT3fonlL53N0ClrO+xf3N/bVDgnJ7rqZH/7+Adx1192GrhN33XU3TZo0weFwsHXrVvbt28evv/7CwYMHcXf3oFOnToaDScuWEdxyS0esVleio6NzPZ8vr9auXcM//2TvDCIiWnJ///6GepvNxj333EPNmjUL7PMcizlOUlISnp6ehgHfNpuNyMjIc87KdTVk36Fw4O7uQYC/v7M8JCSEwMDs51RdzLZt24iPT6B48WLUqm2c8CO/6+//wAPUq1+P1NRU5s2by+effU5MzDGCgkrR3/S7meV1++ISxyj+/vvvpKSkEBQcRP/7H3DGdmhoZe64806KFStGfHw8y343jseoWbPWmZiJMjwLzezXX39h3759WK1WunbrRpeuXQ31QUFBDHjwQbiE+DKvu1evXob67G2gH127Gd+zoOQ3Ds5l9apVxMfHExAQcM6xp23atqVnz+y/K7/70Kys7Njw9fUz7LMqVKhwwbE/BSG/+5zIdpGMe/OtXCfeOcxdn4uK2FOnycjKxL94MRo1yp4ApGbNGtStUzvXHd6//97C6dNxBAeX4tlnn6Rpk8aG+qvhUs4Bcu4KAhQrXpz4+Hh+WLzY3Oy8crqvmuVMYpPjxyU/cORIdjdVFxcXOnfuzNx583h88GC6duvK0888w9czZ/HupEnUMF2QLgw5+5scYWFVmD79I+bMnct7kyczf8FCPv74E265paNhOW9vL6pWrQJntudixc7dJbKwFZXvM+eYA+Dj48vTTz/F5Pff5557+tHntr68+uprzPtmAU899ZR5UYPVa1aTlpZK+fLlGTp0eK5jZMOGjXh88OOGsstlPuZc6HiWn/3vqj//JCYm5pz7yzZt2zr3l2criOOP5M1VSRQBkk9GE71oWKEmiTabjbFjX2PT35tzvX76+RcSE5PYty97AoH+/fsz/u23efSxx/j88y+ofZ4Dtpmvny9du3Zl3jff8NnnnzN27Gt8PXMWbdq0JSsry3kS+fffmzh8+BBWq5Xbb7+dj2Z8zDvvTGTqB9Mo7l/8nAN1C8KG9RvIysqiWbMWfPb55zz62GOMf/ttbuvbN88TM+RIS0ujfoMGLPz2W6ZO/YB53yxg+BNP4OvrS1TULj6a/iGcuWo0d+5cEhISCAurwtSpU5k79xvmfbOA8W+/TVBQEKdOxZ73+Yh5NendCURF7cLHx5ehQ4fx08+/MGfuXObO/YYff/qJe++7H29vW4F9nrVr1zhnrYuMbM/XM2cx7s23+HrmLMLDqxNfCOOsLsWfq/7k2LHsCWCeevppRo4azdChw3jnnYmUL5+3WRtXrlzB9u3bcD8zFuds+Vl/y5YR9OjREzc3d1asWM5XX33J2rVrWLToWzIy0mnQsAGPDz5/t7q8bl+X6quvvmT1qtVYLBbaRrbl+8WLmTv3Gz77/Avq1s1+FuuK5ctZsmSJc5nOnTsTFhaW6w7AuSQlJTF1yhRiYmIIDAxkzJhXWPT9YubMncu8bxaw8Nvv6Nw5+2Cb3/hKSkpizuzZxJ0+TWBgICNeetm57pxtYOiwYRfsInY58hMH57NkyRLmzJlNRkY69evX58uvZjLvmwXMmTuXRd8v5u2336FO3bpwCfvQdevXkZaWSrVq1fjs888ZOnQYI0eNZtCgQecdk1pQ8rvP8fb2pmXLlkyf/hFffT2T115/g49mfEyfPn1wdXVhd3S0oetzYalbtw6zZ33J0qVLqFs3+xh4y83tWbp0CbNnfUndusaZTtesWcexmBNY3dy47967+f33H/lg6iQsFhcyMzIICAjgxRef4dbePVm/fgOLFn1Peno6VauEMXHiW/z++48sXbqE5ct+5qsvPzWs+0pYtmzZJZ0DnP2oi6ioKBbnI1HkrO6rOex2O1u3bDZcxIqO3s3nn39OQkL24x4sFgthYVV48MGHGDv2Ne6++x6qV69eYENILubsfVkOT09PqlSpSkREKypVquQcw7h+3X/Pn/bx8WX4E0/y56rVjB//jvPxFFdaUfk+v/rqS3795RdnIuXu7kHLlhE89fTTjBgxgi5duxIcHJTrQovZxzNmsH79elxcXIhsF8m8b75h7txvnPvOD6dNo23b9ubFLkt+jmf52f/u27ePX375mfT0tFz7yzfeGIfVas21fy+I44/kzVVLFIuC1NRUpk6Zwt69e7HZfGjfvgMDBz5MmbJlWbUqe1KBi1mxYgUbN2zAw8OTOnXq0rVbV6pXrw5nDgY505rv27ePKVOmcOTIUdzdPWjYsCGR7SJxcXFh/vx5zp1GQZs06V3++GMlAHXq1GXgwIdp1aoV69auO+csqRdy+PBhfvrpJ/z8/GjWvDmhoZWxWq38888/jHtjnHOKYoC5c2YzadIkjh8/js3mQ1iVMEJDK+Ph4cH+/fsZP3684eT7UkRH72bMmDGsWb2arCw7pUqVokqVqoRVCcPLy5vDhw85+/gX1OeZMnUKu3btxNXVherVq3PLLbcQEODPwoULcu3IrpYtmzczfdo0Tpw4QUBACXr16sX9/fvjanVl+7bsh+/mxYoVK0hOTqZKlSqG523mdf02m41777uXwMBADh8+zBdffOGs++Tjj9m0aRPu7h5069b9vN0O87p9XY4RI15g8eLFZGSkU7y4P2FVwvDx8SUxMYGvv/6aESNeNLTv2bMXfn5+7Ny5I0/jklauXMHoUaOc0+2XK1eOKlWqEhpaGVdXVw6cmU6eS4ivBQvm8/zzz+dad842sHPnTtaeYxa5gpDXOLiYye+9x9SpU4mNPYmnpyehoZWpUqUq5cqVIykpiUMHD8Il7EM/njGD775bREZGOmFhVej/wAN069adXbt2GZ6xWljys89Zt3ad86LDTTfdROfOnWnYsCFubu5s3bKF8eMvP87zwmq14u3thc3b23nS7+Hhgc3bG29vr1wn0fv3H2Dy+1PZu3c/drsDdzcP9u8/wMJvF5GemYmrqwulSpYk8MxY5w8+nMH48RPZsXMXaWlpeHlmv5fV6oarq5U6pt4LhS3nxDe/5wB+fr64ubmRkpKSaybwvFizejUnTvwXg6dOneL333NfNJ87ZzbPPvMM//zzT6745sws2WvXrHF2py9sK1eu4MUXXmDbtm25Pk/OMxP37dvL2rVr+OqrL50Xt1xdXfHy8mL37qiLPkS+MBWV73PEiBeZPPk9Tpw44XweZA6Hw8GRw0cuehES4Jmnn2bmzK9JTEzAx8eXsCphhn3nhWL4UuX1eJbf/e/k995j9uw5hr8lNLQycXFxzJ07J9fvVVDHH7k4S2CZ8PxP3XQdiohoRYMGDdi3by9/nrkNnh9BQUHUq1ePm2rU4FjMMTZt+uucdztsNhsRERFUqxbOjh3/smLFCsNVxMJSs2ZN51i+NatXn/Oznc/IUaPp1asX0dG76X1rT0JDK9OsWXN8/fzYsH6Dc7rq84mIaEWdunVISUlhy+YtF21/KUJDK1OvXn0qVqrMzh072LZtiyFxPVtBfJ7LjZcroSBiberUD2jarBm7du3k6aeeMnQ9Koj151Vet6/LcXYM/fvvdtatXZfrd3188GDuvfdeUlPTeOftt8/7cO3zqVmzJnXr1qNUUCm2b9vGX3/9les9uMT4qlmzJuHVb6JixYoX3QYKUkHGwdnb5s4dO1mxYrm5Sb7fL7/7q8KQ132OzWajWbNmhFevftG251KhYlViYs4/C++1LCioFPv37jQXF5j8bHPvTnqPVq1asWPHDgY80P+C8VdQQkMrU6NGLW666SYOHjzIvn37zrl9XCnmz7Nz585csRoUFETz5s0JCanIhg0brurnNTN//qv1fTZu3ISqVbOTu3///ZeoqF35PraZ9xvn23cWtLwcz/K7/82JmdCwKmzdsvmi+/f8Hg8k/5QoykWZE0W5cTRu3IQxr4wlMLAkPyxenOvu2o2kz219GTp0KF5eXnz99Ve8PX68uYnIVVUhpArHjue+S3Gts1gslAosyf5955846krp2LEjz7/wIt7e3nzyycdMef99cxMRkevGDd31VEQubO3aNXz00XSSk5O5pWNHRo0ebRiYfqOoXr06bdq05ujRI3wzbx4fTJ1qbiJy1aVnpOd7krJrgbu7O+kZ6ebiq6JT5y74+flx6NChPHU9FxG5lumOolyU7iiKiBR9Pr7++PkVJ/bU6evmrqLFYiHAvzjx8adJTMieIOVqiWwXyYgRL+HnV0y9CkTkhqBEUURE5DoRULI0nh6eJCYlk56efs0mjBaLBXd3d3xs3qSmpRJ7IvvRBiIicuUoURQREbmO+Pj64+Prh7ubO1xkmv0iy+EgPSOdxIT4q34nUUTkRqVEUURERERERAw0mY2IiIiIiIgYKFEUERERERERAyWKIiIiIiIiYqBEUURERERERAyUKIqIiIiIiIiBEkURERERERExUKIoIiIiIiIiBkoURURERERExECJooiIiIiIiBgoURQREREREREDS2CZcIe5sKgKCgqiXr16uLi4sGPHv0RH7zY3KZJsNhvNmjXD08uTvXv2snXrVnOTIqlmzZpUrFSRuNPxrFix3FwtIiIiIiLXqQK9o2iz2fjs889ZsfIPRo0eba6+bI0aN+Kll0cyeswr3NKxk7N8xEsv8/uyZYwd+5qhfVFRo0ZNnnn2OcaOfY3efW4zVxdZvfvcxtixrzFs+BPmKhERERERuY4VaKL4yKBB1KhRk6NHj/DF55+ZqwtF3br1aNGiJcWL+9O4SWMaN25ibiIiIiIiIiL5UGCJYuPGTejQ4RaSk5P58n9fXrFuoZs2/cWK5cs4efIky5cvZ+3aNeYmIiIiIiIikg8Fliju27eX3rf2pFVESxYsmG+uLlSvvfYq7SLbMvaVMeYqERERERERyacCm8zmkUcG0a59Ow7sP8gTTwyDM5OhDB48BF8/PxYsmE/tWrWJaNUKPz8/UlJS2LBhPRMnvJPr7mNQUBBDhgylZUQEvr6+JCcn89dfG1m2bDnDhw/H3d2dTz75mCnvvw9nxijWqVObv//enCtZvPfe++jRoyflypfF3d2DtLQ0jh49ysKFC/jk44+d7Zzv2bIlPr6+OBxw+nQsS5YsYeqUKSQlJRnWey42m41Bjz5Kx44d8fcPICMjg107dzJz1kyGDh1GqVKlmD9/PqNHjTznMsWLB2CxQGJCAitXrmTSpHeJiYkxvMf55OfvHDx4CM2aN6d48eIX/DtHjhpNr169iI7eTe9bewIQEdGKgQMHAjBt2jTDJDdn/97z589nzuxZYPp9UlNT6dq1C76+fpw6dYq5c+fwwdSpPPHEE3Tu0pWAgACSk5NZtmwZr7061vl5LiWW8vObtmnblvvvv5/k5GTeHv9WrpgUEREREbmRuNp8S44yF16KLl270aJFS+wOB7NnzQSgYsVK9O7Th7JlyxIaGkqDBg2wWCxkZWXh6elJSEhFatasxY9LlpCRkQFArdq1eWv8OzRp2gRPT08yMzOwWl2pVKkyYWFheHt74+LiwqZNf7Fu3ToA7rnnHmrXrkNiQgLfffcdnEnA3pkwgdtu60uJkiWwWq1kZmbi7u6Ov78/lStXZseOHRw6dIiWLSMY9+abNGrUCE9PTzIy0rFYwNfXj1q1alOzZk1++22p8zOeS0hICK+/MY5bbumIzWbDbnfgcNgpU7Ys9erVxWq14unpxb///suy338HIDS0Mm+/M4F27dpjs9nIysokKysLm48PVatWpWnTpmzcsJ5Tp06Z384pP39nzvs1bdYMb29v7HYHFgv4+PhQq1ZtmjRtwt9/b3K+X5s2balevTqnTp1y/qa169Sie/ce+AcEsG79Wnbu3On8LGf/3jt37sj1+xQrVoxGjRpitbrh4uJ65n1rUa1aNbp27Yq7uzt2exbe3t6EhoYSHBzM0qVLc607r7H0yaef0qxZczw8shNnqzXnPXP/ps8++xyNGjWmXLnyuFrdWL58mfPvEhERERG50RRY19MLcXNzo2TJknzy8cc0bdKYpk0aM3/+fDIzMwkLC+W2vn2dbR988CEqV65EUlISH8+YQZvWrWnTujWzZs6kRIkAvLy8DOs+nyFDhtL8/+3dd3xUVfrH8c/UTDJphBR6gEDoiIBUkSbYEazoYq9r767uupa1N0RRFGUta0FFbKtg11Wq5afU0EtCIJCEtMlkMuX+/ggZmBvQABMI+H3P6yg557l3bkleyTPn3HMGDQZg4cIFnHfeBI7q24fjjxvNq6+8TFFRUTj2/PPPp02bNhQXF/H4Y4/Sv18/hg0dyrvvvI3fX82RvY9k/Dnn7LL3us499y8ceeSRBAIBPvroQ0468Xj69+vHs5OfxW53kJzcxLwJF154MV27dqOysjJ8rrXbVFSUk5XVgXPOOde8WYS9Oc/rrr+Rjh2zw+839JijOWbI0eHz7Nq1GxdeePEue4+utLRU3nrzLQb078dFF11Abm4uMTEuRowYyRdffMmI4cMZMXw4C+bPx2q10q9//zqTE+3N91IwGOLzzz/jjNPHMXBAf0484Xi+/uprQqEQvY7sFRHr9VZhGAbBYJDysrJwvYiIiIjIn9EBSRQBfvrpR5555unw1zPfm8HWrVtxOmNo1ao1AEOHDqVHj+4YhsGsTz/h6acn4fF48Hg8PPTQg3z+2eeEQqFd9rp7mZmZ9B8wAJvNxs8//8SNN9zA4kWLACgoKGDixImcM/5sFi5cwKhRo+nUuTOBQIBPPvmE119/HQCPx8MDDzzA8uXLcTpj6NGjp+lddsrMzGTQ4MHYbDbmz5/HP++6Kzxk9MUXX2D69Lfq9EZ2796dPn37YrFYmDOnZphp7VDIF198gTlz5mK1WunWvUfEdrvam/P8vWv7wAMP8O2332KxWOjb9yh69Nzzue6PtWvX8eKLUwFYvGgRP/30EwDbtxfz8ccfhY/nm2+/oaqqCrfbTXpGmmkv9fteAvjb7bdx2623hoeRFhQUMGnSRPLz84mJcdGlS9dw7F13/Z1HH3mEhx58gEmTngrXi4iIiIj8GR2QRNHv97NiRU5E3ZIlS/B6q7BYLNhsNgA6d+5CQkIC5eXlLFiwMCIe4Oeff6aqqspcXUePnj1IS0vD56ti7ty5v/t8YcfsjjuGYQZp1bI199//YESx2ewAxP1OT2a3bt1o0iQZn6+Kn3/+2dzML7/8QmlpSURd23ZtSUpKIhgMkZyUXOd9U1KaEAgEcTpjIrbb1d6cZ7fu3UlISNzjtZ07Zy5er5fkJsl069bN3BwVZaWluz3G0tJy5s+bF/66oqJ8jx8I1Pd7CWDDhg2cfMrJvDTt37w7Ywavv/4GQ4cOY3N+PgBNkpPDsR6Ph7feepP33nsvXCciIiIi8md1QBJFgFDoj+fMSUlJwWaz4/P5KC0tNTeTn59PRUWFubqONm0ycTqdBAJBCgu3mZsjpKTUPNfndMYwfMRwTj7l5IjSvXt38yZ1pGdk4HA49vh+8+fNo7S0PKKuZYtWOJ0O7HYb/fr3r/O+Rx3VD7t9Z9KzO/tynnu6tlsKtlBZ6cFut5OSkmJublTq870E8K9/3c899/yLvn370qZNG7I6dOC662+gU6dO5lAREREREdnFAUsU66O8ooxgMIjVasFqq3toqalNiYvbc89erfxN+fj9fiwWC3abw9wcobi4iEAgQHFxEddfdy29jui523L55ZeZNw0r2V5CMBja4/v17t2b+Hh3RN2m/Dyqq/14vV4efvihOu9XW2pnG92dfTnPPV3blCZNcLlcgEEwEDQ314vVZsVqtZirD4oTTzyRocOGYbHAJ598wojhwxk4oD9PPvE41l16HUVEREREpK66GcNBVFhYk8wkJibudvhj5y5dcLnizNV11PY8xsbG0n/AAHNzhLzcPHw+H4mJSfTqdaS5uV62by+mqsqLy+Wie/e6x53dqROJiYkRdVsLtuHxeHC5XBxxRK+Itvrat/P8/WtbWell7do/XhrCarUSH58QUde2bVvc7viIuoOlbbt2xMbGRjz/CPDmm2+Qk7PcHC4iIiIiIrtoVInivLlzKSgowOmM4YQTToiYVGXY8OEcd9zxfzgckx2zfy5fXpMMDBlyNBdedFFEu9vtZsKECXTv3p2vvvqSDRs2YLfbOfmUUxg3btxuYs/j5FNOjqjf1Xfffcf69RuwWq0MOWYow4YPD7f16NmTM844o85sreZjvOyyKyLaAc46+2zOOHPnzJxm5n380Xnm5eXt9toeffSQ8LVds2YNX3zxecR+drVrgtu7d+9wvdvtZsSIEXXO82Cp6RU1cDpjSGmyc8bZzMxM0tLSI2IBTjr5ZF597TUmTpxEVlZ7c7OIiIiIyJ9Ko0oUN2zYwJdffkF1tY8OHToyZcoUZsyYyXszP+Dhhx/BbrfXazIbgKcnTWT16lXExydw/fU38PkXX/LujBnMmDGTzz7/nPMvuJC4ODcej4d333mH0pIS0tLS+Mdd/+S/n3waEXv9DTfQpk2m+S0ifPrpp5SXl5ORkcHDDz/CezM/YMaMmUyZMoWMjGaU7WbJhTdef53NmzcTH5/AVVdfFT7Gd2fM4NvvvuOOO+7cbe/frvbmPGfMmEF5eXmda/v4E0+QkZHB9u3F4fUS92ThwgWsWb0agBEjjuWt6W/zyKOP8db0t+ncuctuz/NgmDtvLlu3biMxMZFbbr2Vu++5l+uvv4Enn3yK1q13zoxa69Qxp3LEEb0YNnwY55w7wdwsIiIiIvKn0qgSRYDJzzzDO++8S0VFOfHxCXTo2IGsrPaUlpYyY8a7BIP1e35uzZq13HfffSyYP59gMER6ejodO2bToWMHYmPjyM/fREHBFgA++OB97rjjDpYvX47VaqVVq1YRsStXrmThbmYK3dWMd99h6gsvUFxchMvlIiurPR06diAUMnj77em7TXAXLlzA7bffVucYO3bMJikpmdzcXH76qWbR+j3Zm/Oc8e47PP3002zbtg23Oz58bWNiYti4cSOPP/44s2fPNr9FHc9NeY5Vq1Zis1np0qULxx13HCkpTfjwww92e54Hw+JFi3hx6lQKCwtJSWnKuHHjuPCii7DZbSxbutQcTkWFR+soioiIiIjsYElr0bl+U0geYBkZGQwaNIisDh1ZsngR33///W6XVqiPrKz2HHlkb9q2a8/KFStYunRxeG09s+7du9O5S1fatm37h7G743a7GTJkCN179GTN6lXM3TGc9o9kZbWnW7ceZHfqxPr168lZvowlS5aYw37X3pznkCHHcESvI/B6vSxetJiFCxeYQ/7QkCHH0KdPHzZsWF/v8zzQau9Hp06dWbEiZ4/fR263mzFjTqW62qclMkRERETkT6/RJooiIiIiIiJycDS6oaciIiIiIiJycClRFBERERERkQhKFEVERERERCSCEkURERERERGJoERRREREREREIihRFBERERERkQhKFEVERERERCSCEkURERERERGJoERRREREREREIihRFBERERERkQhKFEVERERERCSCEkURERERERGJoERRREREREREIihRFBERERERkQhKFEVERERERCSCEkURERERERGJoERRREREREREIihRFBERERERkQhKFEVERERERCSCEkURERERERGJoERRREREREREIihRFBERERERkQiWtBadDXNlQ3E6Y3A4nNjtDmw2KxaLBbCYw0RERERERP6kDAzDIBgMEQj48furqa72mYMaXIMniharlVhXLC5XLD5fFVXeSvz+KkLBAKFQCMMAaNBDEBEREREROQRYsFjAarVitdlxOFy4YuOIiXFRVeXFW+XFCIXMGzWIBk0UY2JicbvdeCsr8HjKCfqrCRkH5sREREREREQOdVaLFZvDidudQGxcPB6PB5/Paw6LugZLFN3uBGx2O6UlhfirfRihoDlERERERERE6sFiteFwxpCUnEowEMDjKTeHRFWDTGYTH58IQHHhZqqrKpUkioiIiIiI7AcjFKS6qpLiws2wS87VUKKeKLrdCYRCQUq3byMY8JubRUREREREZB8FA35Kt28jFAridieYm6MmqoliTEwsdruDstIigkEliSIiIiIiItEWDPopKy3CbncQExNrbo6KqCWKFqsVt9tNSYl6EkVERERERBpSMOCnpGQbbrcbizVqaV1Y1PYY64rFW1lBwFdlbhIREREREZEoC/iq8FZWEOuKfq9i1BJFlysWj6dcy1+IiIiIiIgcACEjhMdTjquxJopOZwy+ah9Bf7W5SURERERERBpI0F+Nr9qH0xljbtovUUkUHQ4nVZUe9SaKiIiIiIgcQCEjRFWlB4fDaW7aL1FJFO12B36/nk0UERERERE50Pz+Kux2h7l6v0QlUbTZrISCAXO1iIiIiIiINLBQMIDNFpXULiwqe7NYLIRCGnYqIiIiIiJyoIVCISwWi7l6v0QlUTQMA8Mw14qIiIiIiEhDq8nFGmGiaLFYAWWKIiIiIiIiB170c7GoJIoiIiIiIiJy+FCiKCIiIiIiIhGUKIqIiIiIiEgEJYoiIiIiIiISQYmiiIiIiIiIRFCiKCIiIiIiIhGUKIqIiIiIiEgES1qLzvu96EbTpunk560xV4uIiIiIyCHOarUybPixZGV1MDeFlXvK+XzWLIqLC81NcoC0aJVFUdFWc/U+U4+iiIiIiIjslsViYdLk5xk5arS5KUKT5BRefeMdWrZqZW6SQ1Sj7lFMSWlK+w4dsdts4bpAMMja1asoLi6KiI2G4SNGcc6E81n06y9MfnqiuVlERERE5E+lc5duTH3pVYYf059gMGhujvD3u++jorycSU8+Zm7aL+3bZzFw0BCat2hBMBhiyZLf+OF/3+H1VppD/9T+VD2Ko48/gYmTnmPS5BfC5dkpL/Hp59/y8ayvOOGkU8yb1JvNZiczs11EXUazDLp06UZm2/YR9SIiIiIifyaZme244KJLcce78fl8f5gkAlSUl5Oc1MRcvc+GHDOMt979kDfefp/rbryFM88+l/HnTuD+Bx9j9hffcdsdd2Gz2c2bRU2Llq2YPuMjvp/3C+edf7G5+bDXqBPFWhXl5SxbtoRly5aQs3wpFeXlpKdncONNtzNsxLHm8D/U56h+fPLZ1zzwUHQ/7RARERERORyMGXcaScnJWLBgsVjMzbtlsdQ/9o+M/8t53P/gY7Rvn0W1z8fPPy7k3bffZOaMd1i6dDFWm43Bg4eQmZlp3jRqEhITiYuNxWazEhPrMjcf9g6JRHFz/iYuOm88F503ngsmnM1Zp5/CiuXLSEpO5qSTTzWH/yGH3YHD4TRXi4iIiIgI0LRpGgAGBoZRvyfVDKP+sb/n6CFDuejiy4lxuVgwfw7nnD2Oq668mMcffZBHHrqPi88/h/PPPYO5c34gGAyZN4+aFcuXcfmlF3DJhX/hpReeMzcf9mzuhNR7zJV7Ky7OTXnZdnP1fuveoyf9+g+ktGQ7M997J1zv9Xpp07YtPXr2otrnIy8vj/HnnkdWVgcWLfo1Yh8tWrbigosuoWev3jRtmsppp59F1+49yerQEQyDlq1a07//ICoqyknPyKBf/4Hk5eWyfv06br39TiacfxHDR4yipGQ7eXm5EfsGGDBwMNdefwt/Of9CTj5lLC1atGTZ0iUEAv5wzJgxp3HiSWOoqCjnqP4DuOnmv3HG2efQrVt31qxZTXl5WcQ+RUREREQOpuEjR+H1VpKXm8uoUcfz2qvTzCF1DBx0NLGxcXz7zZfmpr1yy+130qFDNitzlvO3225i69YCcwglJduZ88N3lJaWhOtiY+O45LIrufKq6zjtjLMYNGgIFRXlEX/D1+YG2dldWLVqJX+95jquuPJaTh17Oplt27L4t98i/o4fO+4MjjjiSCoqysPH0a5de6669gYuvuxKxp52Br169SZ/8yaKi3bO+Lrr+3h9Vdx6+52MPHY0a9espqQk+nkTQEJiCl6vx1y9zw7JRJEdCVqPnr0oLirk8y9mcfmV19C7T19ycpaTvykvHHf1tTdw1vgJBAJ+7A474885j44ds7Hb7cTHJ9Ctew+yO3dhw/q1APTrP5AqXxXjx0+gS9dupKWl07p1G4aPHI3fV83iXRLRm2+9kxtuuo32WR1IS0sno1kzjuzdl2NHHcdvv/0fRYXbALj0iqsYddwJtG3bnjPPPoeWrVqTlpZO5y5dOeaYYfz66y/hWBERERGRg234iJpEMTd3I8eOOq5eieKAQYNxuWL3K1Fs3z6Ls8+ZQIzLxTtvv8WC+XPMIbvVqUtXnp3yEkOHjySjWTPS0tJp2649o0afQJMmKcyb+z0A3br34OrrbqJ5i5Ycd/yJjDz2ODIympGekUHPI46k34CBfP/dN3i9XgBu+9s/GDh4CBvWr2XJ4kWccNIpPPL4JHr07EVaWjppael0zO7EyJGjyc3byPp1NTlF7fu0bpPJccedxBG9jqRVqzbk5+exZPGiiGOPlmgniofE0FOzlJSm9Ol9FABr161lxfJlLPrtF5KSkjn22J1T97Zo2Yqj+g+kstLDh+/P5O233uD6a67g0Yfvx+OpYO3aNVx/zRXceP1VfD57Vni7Tp06M+eH/zHs6H4MO7ofs2d9gsNu57jjTww/MHvW+HMZM+50vJWVPP7ogwzq14sJ557BksWLaNmqNTfd8reIh2sdDgdZWR14/NEH6d+nOxPOPYO1a9fQvEVLTjjx5HCciIiIiMifVXpGM+ITEqmoKGfJ4siRgnuSlJzM7X/7By1btebHhfMYf8YYBvXrxbSpU6iqqmLMqeM4dezpEdu0aZNJcnIKf//bLfTv0527/3E7hYWFdOnSjRtvuT0idlcJCQmsXLGC226+jv59ujNuzPEsmD+HxKQkLrviapKSkyPiW7VqTUV5GbffegOPP/IA69eti2hvzA6JRLF5i5a8/J/pvPyf6bz6+tu8897HdOrSlaKiIj78YAYAX3/5BZWVHo7qP5AWLWvWb6n9hGDVqpV8+81XbNmcz/x5c9iUl4thQNDvZ/68Ofy0cH7EchubN2/mxanP4fVW4vVW8vFH71Pp8ZCUnBx+YHbU6BNx2O28P/Nd3n37TYLBAKtW5DDpyUcpLCwkO7sTw3eZaMdisfDjj/OZOaOmZ3TVihzmfP8tAC1btg7HiYiIiIj82fmqqigt2Tms9PcMPWYEHTpks2lTHg/efy/r1q0lGAww9YVn+erLz4hxuRh93AkR2wQCfp5/7mm++vIzAGbP+oSpz0/GV11Nz569aN8+KyK+1scffsDVV17Cd99+DUD+pjxeeG4yRUVFZKRn0DG7c0R8RUU5Tz/9JN9+/SUffvAe8+fVr4e0MTgkEsX4hAS6du1O167d6dylG3HuOJYuXcxtN1/Lzz8uBODbb75i7Zo1ZGQ0Y+Sxx2Gz2Rk6bATBUIhP//sRwWDAvNs92rB+XcTw1eLCbXg8FeGvMzPbkZqaSlWVl99+/SVcD7Bo0a9sWLeG2Ng4OnfpEq6vrq5m6eLFEbGFhdvw+3eOgRYREREREXC740lJrZlQ54+0aZuJMyamzt/wAAvnz8PrraRFy1YRS+MVbNnCggVzI2IX//Z/lBQXEZ+QSHpGs4i2Wl5vJSedfCrvvv9fvvpuPrO++JbTzxxPMODHYrVGrP8OsL24mFUrcyLqDhWHRKJYO0T0+muu4JwzT2VQv15cfP45EeN7g8FAOLMfOmwEJ48ZS8eO2eTlbtzrcdJ/tE6MzWbFarViGBAI1E1AK71eLBYLNnvkui4h4/f3KyIiIiLyZ7a1YAsV5WXEud307z/Q3LxbNrsdi8Wy27/hKyrKCYUMrFYrNtvO1Cfg99e7x3JXZ40/l5tvv5P0jOYs+u1X5s+dS9+j+pHRrLk5FPbjfRqDQyJRrB0iOn/eHNauXWNuDvvqy88oKNhCu3btOf30s7DZ7cz+9L9RvzlFxUV4vV4cdjvpaRkRbTabnYz0DAKBAGWlpRFtIiIiIiKyZ2vXrmHJkkXYbDaOHXUcnbp0NYfUUVZaSiAQIDm5ibmJtu3a4XQ68Xq9FO3yqFlCYmKd4aWxsXHYHU78/mp8vqqItlqjRp+I3Wbj9VemceN1V3Lv3Xfyz7/fTlHRzn0fLg6JRLG+8jfl8eOCebjj4+nUpSsFBVvC446jqbSkhDVrVhHjcjF0xMiISWtGHjua1pmZlJWVhofFioiIiIhI/cx87x22by+mRctW3Puvh+neo6c5hJ49e/GvBx8lM7MdixcvoqKinHbt2jN8xKhwjM1m5+ghQ3E4HCxftjSi86hpahrDdplPBOCkMWNp0qQJebm5LPrtt4i2Wg6Hg1AohMezc3bRCk8FwV2W1DhcHFaJIsCXX35OaWkJwWCQr7/8vM445Wh57dV/k78pj0GDhzDtlTe45bY7efCRJ7jjH3cTExPDV198VmdNRxERERGRQ0koVHc4555YDAuh3Qz/3Fs//7iQaS8+T0VFBe3atWfqtNf44OPPwpNbfvLZt7ww7TV69uyFzWblp4Xz+eKzWcS54/j7Xfdy7/2PcPsd/+S1N9+l71ED2Jy/ienTX494D8MwOP/CS3jksae45bY7eXbKS5w69nT81dV8/OHMPc5vkrN8KQ6Hg7Gnn8GYMadx9JCh/PXq62mammoOPeQddomiYYQwDIOioiK+bIDexForli/joQfuY8OG9XTu0pUzzz6Xkcceh9Vm54P332PiE4+aNxEREREROSRUlJcR64ojb+NGEhITOXXs6fTue9QeS/8Bgxk85Bg2blxv3tU+efftN7ny8gv59ddfMIyaVRBqJ7ds2rQpRUVFvD/z3fBjaROfeJQP3n8PR0wMx59wEqedcRZZWR1Yv34dDz1wHyuWL4vY/4Z1a/nhf99x9DHDOPPsc+nbbwDeykpemDKZDz94LyJ2V1Off5ZffvqR1q0z+fvd9/H4xMk0a9acoqJic+ghz5LWorNhrtxbTZumk5+352cHD6Q777qXU8aM4+OP3ufBf91tbm4QXbp2IykpGX/Az7IlS/B6K80hIiIiIiKHjBNOOoXzLriE8845nfMvvIQr/notFovFHBZh8aLfuOaqS6nasVh9tMTGxtG1e3ccdgfsmPBmT/OWpKQ0pX2Hjthttt3GDRg4mAcefoLNm/KYcO4ZNGvegrZt2+313/Ht22eRntGM0tISli9bam4+KFq0yqKoaKu5ep8dVoliz569ePDRiTgcdv5+x638tHC+OURERERERP6Aw+Hg7Rkfs2plDnf/43aqfD5zyCHJnCgeTqKdKB5WQ09PPHkMqamp/PTjAiWJIiIiIiL7yO/3c9vN15LRrDmffTOXl15+gylTX9ltmXDeRebN5TBgcyek3mOu3FtxcW7Ky7abqw+o1NRURh57HCUlJbwz/Q3y8nLNISIiIiIiUk/FxcV88P4M5s75nkAwwLaCAjbnb4oo//34fT6b/al500YrITGRrKyObNy4ge++/crcfEhLSEzB6905G+v+OqyGnoqIiIiIiPwZaeipiIiIiIiINCgliiIiIiIiIhJBiaKIiIiIiIhEUKIoIiIiIiIiEZQoioiIiIiISAQliiIiIiIiIhJBiaKIiIiIiIhEUKIoIiIiIiIiEZQoioiIiIiISAQliiIiIiIiIhJBiaKIiIiIiIhEUKIoIiIiIiIiEZQoioiIiIiISAQliiIiIiIiIhJBiaKIiIiIiIhEUKIoIiIiIiIiEZQoioiIiIiISAQliiIiIiIiIhJBiaKIiIiIiIhEUKIoIiIiIiIiEZQoioiIiIiISARLWovOhrlybzVtmm6uEhERERERkQOoqGiruWqfRS1RzM9bY64WERERERGRA6BFq6yoJooaeioiIiIiIiIRlCiKiIiIiIhIBCWKIiIiIiIiEkGJooiIiIiIiERQoigiIiIiIiIRlCiKiIiIiIhIBCWKIiIiIiIiEkGJooiIiIiIiERQoigiIiIiIiIRlCiKiIiIiIhIBCWKIiIiIiIiEkGJooiIiIiIiERQoigiIiIiIiIRlCiKiIiIiIhIBCWKIiIiIiIiEkGJooiIiIiIiERQoigiIiIiIiIRlCiKiIiIiIhIBCWKIiIiIiIiEkGJooiIiIiIiERQoigiIiIiIiIRlCiKiIiIiIhIBCWKIiIiIiIiEkGJosgB8terrmLu3LmsW7+eNWvXccstt5hD5ABwu+O54cYbueHGG3G7483NjcKjjz9Gbl4eq9es5fMvv+Sc8eeYQ0REREQalBLFPzB9+nRy8/KYPn26uUmkXtzueF559VVuv/12WrVuTVlZGStyllOwdas59KD66puvyc3L49HHHzM3HVZuvfVWbrjhBm644QZuvfVWc3OjsDl/MzkrVlBd7aNL587c/+CDPPLY4X1fREREpHFRoijSwO657x6GDRuGPxBgyvNTOKJnT0488UT+89pr5lA5zKW6QrwypJi88fls+8sm1p2Vz8N9S0hwGBFxE598klEjRzJixAhmzZqNzWZl3LhxXHX11RFxIiIiIg1FiaJIAxo0eDBDhw7DYrEw69NPeeiBB80hcoA99thjPPXUUzz11FM8dgB76dJcId4bWchJbbwAbPdZibMbXNLJw4tHF+OyRiaLAFs2b+bGG27gl19+IdblYswppzTa4bIiIiJyeFGiKNKAhg0dSmrTVIqKi3h/5kxzsxwEHk8FT02cyFMTJ+LxVJibG8wVnSvokuxnWYmDoz7MIHtGc8Z9mUphlZXBzXyMaOkzbwI7jveDDz6g0uMhs20mJ510ojlEREREJOoadaLYv39/fvzxR3Lz8sjNy2Pl6tV8+7/v+OtVV5lDw88SPjN5Mu9/8AHr1q8nNy+PJUuXcvfd95jDada8OZOefprFS5awMTeX3Lw8Vq1Zw4cffcTQoUPN4Vhtdt55553f3e+envEy1w8aPJiFP/0UPq9Zs2Yx/uzx/Pjzz2zMzWXN2nW88eYbZHfMhr28DvV1+umnk7MiJ7zP3ZV9nXBlb+7FV998zZq167jvvn/xySefsn7DBjbm5rJ4yZI6sXvr3JEu/vdUMptnNKXko1RKP64pW2Y05a9jXAB0aWNjybQmbJ2ZGq7bU/1fx7jYOjOVBc8l87+nktn+YSr/eyqZhy51s+W9phS+n8oz10X29nTr3g2Hw86G9Rv45ptvItpq3XLLLaxZu47vv/+BL7/+mg0bN/Ll11/z+BNPsGrNGtatX8/zzz8fjh87dizLli8nNy+Pjbm5rFixgtmzZ+9xwpMrLr+CL7/+mlWrVoW/12u/j+pzf5+cOJHcvDy++e7bBu/Nqu+5DR8+nB9//JGNublMmTIlXO92x/PJJ5+Sm5fHF198Ef4Zqr3Gu35/56zI4fTTT99lrzvV55rtbp/mUvsebrvB0GY+giGYmhPPZq8NgLlbY/hikwuX1eDk1jU9jbvz26+/UlxcTFycm549e5qbRURERKKuUSeKAB5vJR5PBZUeD06Hg6z2Wdx+++089sTj5lAABgwcyBFH9MJfXY3PV01SUhJ/OW9CxLM92R2zee3VVxk3bhzJyclU+Xx4KyuJcTrp3bs3jz/+OMOHD4/Yb8sWLejRswdr162lYOtWEhMT6+y3voKBAJWVHryVlRiGQWJiElddfTVOh4PVa1YDcPTRQ7jo4ovC2+ztdfgj/kCACk/NPn+vVPl238tRH/W5FwBOp4PjTzyB7OyOrFm7hq3btpGUlMQFF17IXf/8Z0RsfV1xiosnr3JzRJYdpx0qvCHKPAZlHoMKr0Gpx7xF/WVm2IhxQklFiO7tbJx2TAybC0PYbTD8CAdd2tQkAQBp6RkArFu3bpc97F6zFs2JcTgpLy+nY4cOHHvssRRt24bNZqN3374MGjwYgJBhUOn11twfr5fYuDi6de/OfQ/cz0033RSxz5tuuolbbr+NTtnZOJxOvJU773mV10t5WXlE/O60a9cOgILNWxq8B66+5/bNN98wY8YMfNXVjBw5kosvuRiAO+74G926d6OwsJAnn3yClatWAlDl84XPu/bnbk/qe8123eeeSoWnEn8gQFpskBbuIOV+K4u3OyLeb87WGAIh6JgYwG3f/XH99ttvbCkowGq1kpKSYm4WERERibpGnSguWLCAYccMpXOnznTq1IkBAwbw0YcfAjB06LDwH867Sk5MZNKkp8jOzubE449nxcqVxLpcDB48KBxz/gXnk92pE77qap6b8hzZHTqQnZ3N7bfexuYtW1i3fgOb8jZF7LdJShMefPAhRg4fwdAhx7Bs6dI6+62v2vO64447qKz0kJralIKtWznz9DMYMWw433//P6xWK7169YqI35vr8Ec++vBD+vbuTedOnfdYevboweRnnjFvWm/1uRe1HHY71113bfj6zps7F4fDzshjR9K+fXtz+B8adoSTWKeFH1cE6H1FCa3OLqb1+CJajy+iw3nFvPlVlXmTeisuM7j40XLmLw8A8J/Pq7jjJQ8V3hBJbistUnf+WNlsNf8OBGtif09paSl33nknSxYvBuC/H3/MUxOfwltZSWJCPM2bNQPTvcvOzubYESOZN3cuMU4nJ558ckSvX79+/XDFxLB0yRJOGzeOTp06RdzfF6a+EI7dnbFjx9KxY0f8/gCLFi0yN0fd3pzbI488wsIF83HFxnLhBRcx/uzxnDp2LP5AgOlvvcWsWbPDsZOfeYaePXrQuVPn8M/dntT3mu26zz2Vvr1789GHH2IDrBgEDfCHYPLA7Sw9fQuXdPJQWGXFb1iIsRnE2HafKAL4qmq+Z5UoioiIyIHQqBNFsy2bN/PGm2+yddu2iD+cd7V69WomPfUUACtXrWRlTg4ANuvOXp4+ffpgs9mY88MPEZOLvDX9Lfr17ctZZ54R7omotWH9+vAslR5PBcuWLwfTfveV3eFkwfx54ffcuq1m2QSnK8YUWaM+16ExqM+9qLUiJyf8h73HU8Gs2bPxVlaSnpa+X0PtUhIsDOxqx+2ymJv2WShkEArV/DsQtFBUFsIfNDCM/XuPUChEMBQEIBAIUlJSgj/gx2DPyQM7ru3bb79NZaWHxMREjuh1hDmEpKQk+vbtS7Pmzc1NezR06FCuv/EGkpKS2LI5n9mzdyZeB8ofndu9d9/L+nXraduuLff96z6SkpL46ceFTJ78bETcvtiXa7YnbRMCuB0G26psxNkMRraoIt0VZEKWh/g99CKKiIiIHEyNOlHM7pjNK6++yvKc5eHnhKZPn05Gero5NKy0tDTi64rd9BzUJmC1CVl9mPdbnx6i+vL7fRFDE2+75VZat2rFyOEjYB+vQ2Ngvma7uxe1NublRny9KS8PT2UlVqsFm61uYvlH3vy6isLSEFktbLxwUwIbp6ew+KUmPH1tAp1a283hh5QBAwfy4UcfsWrVqvCzcE9OnEhcnNscyn8/+YSSkhJatW7NXf/8J/Pnz+fHH39kypQpDBg40BwOwNix41i5ciX/ef11OmR1oKysjOemTOGXX34xh0bd3pwbOxLJF196kYqKCmLj4sjLzeWxRx/bryGy+3LN/khuhZ3KgIWmrhDlfitfb3ZR5rfyxSYXFYH9+4BBREREpCE02kSxffv2TH52MiNHjsRus7Nq9Spyli9n5apV+KqrzeGHtApPJVu3bjNXQwNeh4aczCYaqqp8BGu77fbBx3OrGXBNCf98uZKfVwbw+aFNho0LRscw++FEThnkNG/SIMpKywCI30Ois7cGDR7M05Mm0bt3b/yBADkrVpCzfDlr160lEKjpjdzV6//5D6ePO43nnn2W5cuW4a+uplnz5px8yilMmzaNCeedZ96EWJeL2Li48HN8nooK1q5daw6Lur09t1qGYYSP1W6344qNNYfslfpes72ZzKbagKBhwWapOc6r5zYh653mPPhbIm67gQ3wBS34gntOGlNSU2E3H6qIiIiINIRGmygeM3Qobdu2paioiOuuv56Rw0cwatQo/nnXXZSUlJjD90rtH+8dsjo0+CyO/fv3JzE+wVwdYdchh2YNdR0OxGQ2e6NNq9YRX7ds0YIEt5tQyCAY3P21+SPbSkJMmlnJiJtLaHFmEaNvK2VNfpCURCtnD905w+nupDexkhC3/z8em/PzYZcJYfbXiJEjSEtPZ8P6DYwdcyqjRo5k1KhRTH76Gaqrd//c5cpVK3nooYcYPXo0HTt25PLLLiUvN5fExEROOOF4czhvTX+L1q1ace2111JSUkKz5s05b8IEc1jU7cu5ZXfM5oLzzyc+Pp6KinKaNW/Otddes98/1/W5Znszmc02r418j40kR4ij0iI/4Bmc4cNpM9hUacOzh97FQYMHk5ycTHW1n8I9fKgkIiIiEk37/5dwA0lOTsZqsxMIBqko3zmM7NSxY0lpsn+TOfy4cCF+f4DevXsz8amnovIMErskoL179wlPy3/s6FGkNK3pCdgXDXUdDsRkNnujU+fO4T/A3e54Th13KrFxcRQVFtWZRMXtjuffL7/M4iVLeOSRRyLafs+W4hAeb+TzYAUlBh6fQYwDhvVyYrdZsNssnDYkhoS4iNB9smTxErxVVbRu04axY8eam/dagjsem82GP+hn044k1O2O56STTyY2tn4HXFCwlcqqPS/FUOujDz/kh++/B+DoIUMYc+qp5pCo2pdzu/GmG+nUuTMb1m/gkUcepaysjH79BnDttdeYQ/fL7q7Z3kxm4wlY+KHAid0Kl3euoHlszYcfvZtWc3KbKvwhCx9t3HNPaO16nGVlpfzf//2fuVlEREQk6hptovjbr79SVl5KRno6z015ji+++IL/+/VXxo4Zw8bcDcTFubnn3nt5++23OeKIupN3/J5Jk55mwYJ5WK1WTjjheObNm0fOihxyVuSwes1apk+fbt6kXmoT0E7Z2Xw6ezYrV65k/NnjKS4qBODUU8bw8iuvcP/995OzIoeHHnqIuDg36WlpvPzvf5OzIof7778/Yp8NeR0ak+0l23n66Wf46puv+ea7bxk8+GhCoRDfffdtnWGPo0Ydy4ABA0hOTmbEiBH0798/oh3go38lsf3DVDa905Tc6U3JezuFX15IpmeWHW+1wfdLanp1istCzFsawDDg+KOc5L2dQu7bKYzu42RbqYHTDredHcf9l+zb0NHZn81m/fr1JCUlcc455+x3T9fSZcvwVlaS1T6L777/H1989RULFi6gT58+bM7PJz0tjcnPTmbqiy8B8P4HH7AxN5eVK1eSsyKHFStWMPP998numE2Vz8fPP/1sfosI/3n9dbYUFJCcnMyFF1642+OvXSf0jTffMDftlb09t5tuuoljR4+myuvllVdf5pWXX2bW7FnYbFb+MmFCRGL7308+Cf+M1/7cxcW5eeihh8hZkcNPv/wSjt/fa7Ynzy1PYFmJg67Jfn48tYCVZ2xm1nHbSHcF+d+WGD7duPte7uyO2Rx//Ak4HHZW5OTwxRdfmENEREREoq7RJorffPMNE5+cSO7GjSQlJdGpc2fsdjtvvvkWW7cUYLFYSE5Opl1WFu74un+8/h6Pp4JLL7mMl156iYKtW7FYLLjd8bjd8dhsVuITfn+o6J5MmvQ07854l0qPh5gYJ8FQkPdnvh+eqCbO7aZNZhucrhjc7nhi4+KwWGoma4lzu3G74+vMdNqQ16Ex+e3X31i6bBlZ7bNolpFBaWkpr736Gg899LA5lEWLFrFxwwZCoRA5K1awYMECcwgOBwRDEB9rIdFtISHOij8AS9cHue15Dy98vHMo49+nefhgjg9vtYHLaaHcCw+/5aGo1MBigZREK1nN935CHYC1a9cy/a038VZWMnDQIF597dV9nhAF4LVXX+WFF16gqKiI9LQ0OmVn462q4tnJk/F4K7HZbKSlppHVoWZJEYfDQTAYJDYuDrc7nji3m2q/nzVr1/DkE0/w5JNPmt8iwtw5c/h89myCwSDde/TgggsviGivHVptGAZ5uXkRbXtrb85t+PDhnHPOOcQ4nXz11Vf8e9q/Abjnn/ewdMlSkpOTufaaa8I9+7FxseGf8dqfO4vFEr4u8e44HPaaSY7295rtybYqK+O/bsoXm2oSwiYxISoDFqatcHPZDylUheoOOz3hhOOZMvV52rZry5bNm3nhhd9fzkREREQkWixpLTrv99zsTZumk5+3xlwt8oe++uZrsjtm89b0t7jtllvNzYeNG2+6iSuuuBy3Ox7DMCgrK+P5558/YEN7G8qoUaN49LHHSEhIZPLkZ3hq4kRziOyD+++/n7PPPpsYlwuLxcLWbdt47OFHmP72vo12EBERkcNfi1ZZFBXVf1WHP9JoexRFDicTn3ySCy+8iP9+/DG5G3MJ7ceMro1JYmIisbEuvN5KVq1aZW6W/eAPBFi1ehWvvvIKJ514opJEEREROaDUoygH1Z+lR/Fwdcstt/DXq65ma8EWrrzySn777TdziIiIiIgcAOpRFJFGwxUXi9VqoaSkREmiiIiIyGFEiaIcVCOHj6B1q1bqTTxErcxZwYcffsjHH31sbhIRERGRQ5iGnoqIiIiIiBziNPRUREREREREGpQSRREREREREYmgRFFEREREREQi6BlFOawlJ8QRE+OMqAsZBiWlFfgDwYh6qb8Yp4PkRLe5Go+3igpPlblaRERERBpYtJ9RVKIoh7WbLx9Ll46tIuqq/QGmvDaLxTkbIuql/oYN7MGE04aaq/lm7mLeeP87c7WIiIiINLBoJ4o2d0LqPebKvRUX56a8bLu5WqKgR+dM7rnpHMYdP4Axo/sxZnQ/+vTswE+LVlHtD5jDD7hhA3vwj+vPIiE+tlEmXoP6dCalSTzrcwvI21zE1sJStmwtYdHy9ZSVV5rDpZ7ccS7i3S62FpaytbAUq8WCO87F+tytjfL7QERERORwl5CYgtfrMVfvs0bfoxjjdHDrleNwOOw89vxMPJU+brl8LOmpSTz83HsUbS83b/KHdtfLZBgGRdvLmfXNL/xvwVIMY78vS1R06tCSi886FqfDjs1mI9blIL9gO489P3OPQ/zi3S5uvfI0EuNjefjZ9ygoLDGHRE1tz1Jj7Um6+fKxZLVt9rs9iDarlWOPPoKRQ3rSJCkei8VCpdfH/F9WMHP2fKqqqs2bRJ3FYqFd6wyOH9abrtmtcMU4Wb4qjyemfmAObVCJ8XFMOG0YPbpk4rDbqPJVM/ennD+8Dn8ZN5Thg3o02u8DERERkcNdtHsUG/1kNg6HDYfDHv7aHRdDfHwslVXV+Kr9EbF7wzAMKr3VlFd4Ka/w4vP5SU1JZMJpQxl3/ABz+EGzYvUmbn/wVW68dxovvvmZnquLssT4OG796zjOPGUwKckJ+Hx+PJVVxLqcjBjck8vOHY3DbjNvFnVDB3TnzmvPoHeP9rhMz1QeKInxcdx0+an07tEeAE9lFTFOByMG9+SKvxx3QK6DiIiIiDQOjT5RjHE6iHM5KSuvpMJThd1mw+mw4fcH8Pv3PWnyB4K8+OZn3HjvNG68dxrX/vNFZnw6l5BhMLB3J5o2STBvcsixWi3EuBzmatmFt8qHt6qawuIyHn1uJtfcNZXr736Jya98SpWvmux2LWjbOsO8WdRV+/2sXJvPK+98zbsfzzE3HxDHDjmCls1SyNtcxJ0Pv8b1d7/EY8+/T3mFl84dWtG9c6Z5ExERERE5TDXaZxSTE+I474zhDOzdmYz0JsTGOuncoRX9juhI82YpOBw22rbKYMu27Xv9rNmgPp1JSY7np99Ws7WwNFxfWFxGnx5ZxMfHsnRlLoXFZbCjp+WCM4dz0dkjOe2EgZwwog9dO7ZhQ24B5R7vLnuGjNRkzjt9GH8ZN5QzThrEqaP7M2Z0P04a2RdPpY/1uQWwY0jkJeOPpazCy/q8nV3Ee6pnx76POqIjlV4fc39aXucZxdrnBY8f1pvE+FicDjtDB3QPP9s4ZnS/iGcJ42Jj+Pt1ZzHhtGGMGd2P0cf0onvnTLYVlVJUEjmk12KxMKB3J667+GTOOuVoThzRl+bpTSirqKR7p8w6z6alpyZx6TmjufCskYw7fgCjh/YiOdHNqvWbCeymV9Rht/HX80/g0nNG4Y6LYemKjeaQfbKne10rFDJY+OsqvpmzmMLtNfcboHh7Od07ZZKaksiqdfnk5hdGbBdtufmFzPlpORvzt9G6RRo9u7SlsLiMeT/nmEMbRIzTwdjj+pOYEMcHsxewcm0+AEXby2mRkULb1umEQiF+WbLWvCkAPbu0pV3rjDrfByIiIiJyYET7GcVG26MYE+Oka8fWdOrQEofdRmJ8HD06Z0Z83b1zm91O0b+/QiEjnMzUDsfr1ysbh91OhceLEQrRKasFN1w2hubpKeHtmqencMuVY+nbswPxbheVXl94aKvHW4WncvfPFEZLtd9PeYWXCo+XYDBUZ3hteYUXr+k5s9pjrPB4cTjsZLdvwc1XjGX4oB4RcQP7dOKis0bSJCme/ILtrF63me6d2tClY+uIOIC0ponceOmp9NjRA1Xh8eKw2393CGNyUjzt2zTDZrXSpUNr4mJjzCENxjAMgqGQuRqAYDCEZw/Pgh5OEhPiaJIcT1VVNRs3b4toW7F2E8FQiGZpTYhxqodaRERE5M+g0SaKBYUl3HjvNCZN+5hqf4Bv5i7m0lsnR3x91Z3PR633wmKx0P/IbFKSEyirqKRgW80EMIP7dg4Px/vbQ69ywz3TuPauF/lu3hKSE92MGLwzoeqU1ZImSfHk5hdy830vc/3dL4WHtt50779Z+OvKXd4x+ub+lMON907jH4+9wZZtJXWG19547zRmzpoXjq/0+nh0ykxuvHcaN9wzjavufJ4Zn86FHb2T8W4X7OhtGjGoJ1arhW/nLeaeJ9/iiakf8K+n36VFepPw/moNHdCdtKaJ4SGMN9wzjYeffY/S8kq6Zrem/5GdzJtQWFzG3J+Ws62olC++/5VKr88cckAlJ8XTtEkCVb7q3fZEHm6sFgtWi4VQyCAYCHLx2cfyxD8vZsTgnpRX1Hzw4HDYcTjqJvkiIiIicvhptIlireQkNw67jU1bimFH0mK1WNleWmEO3SsOu43Lzj2OiXdfwsS7L+GZ+y7jzJMHw4614MoqKrFYLHTvlEkwaPDfL39ke2lNV24wFOK7hUup9PpokZ6CxWKJ2Hd8nIs2LVN323PWmAVDIX5YuIwt20pIjI/FHVuTKCYnumnaJAFPZRVfz1kSnhG2qLiM5avzIvYR43TQOasVhmHw3fwl4Wu2LreA5atysVmtdO7QMmIbdvTqvffpPO54+D/M+XG5ufmAG31ML5okxbN63Ra2NOCssY1FemoSMTEOyiq8xDgd9OicSVJCHEP6dSXmIE2uIyIiIiIHT6NPFG3WmmQrGKoZChrvjsVut1Lp3fNU/fVhsViIi3WSEB9LQnwsLpeTan+A12d+y1c/LIJdZli1261ced7xvPTYNeHyz+vPrllLLj4Wd1zNMMlfFq9hY942miTHc8OlY3juwSt56G/ncdYpR9MkOd50BAefw27jjJMG8eTdF/Pio1fz0mPXMPHuS2ienhwRl9IkAafTTmm5l3JP5POgm7YURXxdO0utPxAMP+NZa/X6LQAkJUR/uHA09e7RnoF9OlFS5uGjLxY0mqVSGlJhcTnV1X7i3S68VX6WrNiIt6qaRcvX4/Pt38+aiIiIiBx6Gm2imJGazMS7L2HCaUOxWCxccMYIXnrsGiacNhSACacN5bkHrww/B7e3qv0BJk37mEtvncw1d01l46Zt2GxWnE57ncQgEAixcm0+i3M21Cm/Ll2Lp7JmmGRZRSUPPPMujzw3k4W/rqTc4yU1JZHRx/TiX7ecyxFd20Xs92By2G1cef4JHD+sN3abnZzVm1ics4Hlq3PxVUdOkmO3Wev0mh6uBvXtzMVnHwvAf977lrzNkYnw4SoQDBIMGdisNfd52vQvuPauqbw/e364F39/ZxoWERERkUNHo00Ufb5qlq3KZVtRKcFgiNXrN7M4Z0PN16EQazduYUnORkrK9n9mn6qqar6esxiAY/p3Dz+bV+GpYntpBRZrzfN/k6Z9XKe8P3t+RGIZDIVYtS6fqW98zk33/psb7pnGL4vX4opx1pkgxiwuNoaE+FhzdYNo3iyFDpnN2FZUFn7mcNK0j5n6xucUl0QO691aWIrP5ych3kVCXOTxtWzWNOJrvz+I3x/AYbeRmpIY0dahbTMASsv3/55Fm8vl5MKzRnDRWSPxVlUzadp/+W3ZOnPYYausvJLtJRXExsaQlVlzn2p1ymqJ3W6luKRiv9YuFREREZFDR6NNFEvKK3nxzc8pKCyl0uvj5be/YtK0j8nNL6KqqprX3/+O5177NGrLFvy6bC1btpbQLD2Z/kdmh+sX56wH4PQTBzKgd6e97lmrqqqmwlt31szaZKl3j3bhZxm7dGhFemqSKXKnKp+fYDBEcmIcqU0ik7Bd+Xx+vFU+nA47R/bIwmate5vdsS7sdhuBYAB/YGcPYp8eHUhNiVxDsqTMQ9H2chLcsfTt1TF8DZqmJNKlQ6uIWF+1n5w1eVgsFoYO6E6TpJphpu1aZ9ClY2uCoRA5qzdFbMOOocCnnziQx/5+IUP6dzU3N5jaZT/uv20Cg/t2YdHy9fzrqXdYta5meYg/i9r7ZrNaOXbIERH3rXePLILBED8tWm3eTOQQZOwsRgOXXd9LRETkEGNJa9F5v3+DNW2aTn7eGnN1VNx8+VhaNEvh4WffY1tRKTdfPpZWzZvy8LPvUbCPk4zcfPlYsto2Y8prsyJmTT1hWG9OO3Eg+QXbeez5mVR4qsJDNHt2zsRisVBd7cdXHcBiAavVxpT/zGL5qlwAThzRh3HHD8Bb5ScYrBmi53I5cdhtBIMhpn/0Pd/Mrem5PLJ7ey7fsVREdbUffyCIr9pPpbeaVs2bUuGp4oeFy8KzkNbu6+bLT6Vd6wyCwRDeKh92m42ikorw8dYaPqgH48cMwWazho/ZarVQXFLBY8+/j91m4/arTyMjNZniknI2bSmmWVoysa4YNm0uIjurBdtLK1i8fAPv/HcOg/p2ZvyYIVitFvILatauzGyVxrrcArplt+GbuYt54/3vYMfyGDddNpa0pok15+WrJtYVg81mZXHOBp579VP8prUU05om8berTycpIY68zUU8OmVmVGY+3dO9rhXvdnHrlafRslkKhmFE3Ltam7duZ/Irn9Q5npsvH0uXjq348vvfmP7R9xFte+uv559AdrsWsGNYsMvlxB8IUrVjOZOV6/KZ8tos01bRPYbapWBaNW+KPxCkutpPXGwMFotlj/et1l/GDWX4oB4R3wcijYtRk7vt+PeBVfPhWs1nbHv3YaOIiEh9tWiVRVFR5Drs+6NuV1MjEu92kRAfR3lFFd4qHzFOBy6XE29V9X4NgTN2zLJpNuenHAoKS2mensyQo2p6tfyBIM+98ilvf/wDW7aWYLVaiXe7cMe5AIOkhJ1DMV0xTqqr/cS6HMS7XcS7XYSCQTbkbeOlt77g23lLwrG/Ll3H9I++p7yiCofDTiAYYuas+azduAXDMHDHxdCmVXo4nh29k6/N+Ia8zcVYLOCOc2GxQFW1H6sl8lZ+O28JL7/zFduKyrDbbcS7XcS6nASDIew2G2UVlTz/n9mszS0gOdFNt+zWWK1W3vzgf+RvrZlhtklSPFltW+Bw2Ph23hJef/9btpdW0jw9may2zVi0fD0/LVpNwJRYbSsqY+JLH7I4Z8OOc3FR7ffz9ZxFvPDGZ7tNNkpKK1i7cQuBYJDlq3PrJGX7ak/3elc1H/7XxOx672pLXKwL645n92rFxcYQ744lFAqxqWD/n2OMdcWE3y8mxoFhGNhtNd9rNfeu7rqS0T6GsopKJk37iEXL12MYBnGxMVT5qn/3vu3qj66zyMFhYBg1BQzcic1Jbd6DZpkDaJU1lDbZI2jdcWRUS5vsEbTKGkqzzAGkNu+BO7F5neMQERFp7KLTo5iSRv6mteZqkYPuxstOpXNWix09hSHYMZHRy+9+yco1+z68NDnRza1XjiMxIZZnX51FjmmZkAPhYB7DwD6dOOPEmuVkAGKcNpxOB9/OW8KbH/wvIlbk4KjtQTSwWR0kpmbhjk/HYrWbAw8IIxTAU7GVssI1BEN+wKIeRhERiaoWLdtTVLzNXL3PotKjaFgsNb/rVFQaWTEALBZiY53Ex7vCxelw1Indm+J0OoiJceKprGZrUWmd9gNRDuYxOJyR19PhdOx8Ems38SoqB7YY4e/F+JRMmrUbiDupBdjsGBYOSsFmx53UgmbtBhKfkgmW2p8XYzfHr6KioqKisvfF2Mu5VP5IdHoUm6axWT2K8ifSLbsNl084js0F23ly6odU+/d9KPS+agzHINL47OxJbNqsO7HxaeaARsFbsY2iLUtAPYsiIhIlzVu2p6goej2KUUkUU1LSlSjKn0rvHllceOZIlqzYwNQ3PjM3HxCN4RhEGpcdSaIRIq1lL2LimpgDGhVf5Xa2bfoVLFYliyIist+at2xPcXH0JrOxuRNS7zFX7q3Y2DgqyvdtBlKRQ5ERMigqKePXpevqrDt5oDSGYxBpPGqTRIOmzbvjckeu8doY2R2xOGLi8ZZvVc+iiIjst4TEZLzeSnP1PotSj2Iamzf9eRYnFxGRxqV2NtGEJq1JSmlvbm7USovXUr49d0eyqERRRET2TfOW7SiO4mQ2UUkUm6SksSVfiaKIiBwMNctOWC12mrXtf9BmNt1XRijAlvULCBmBHYmikkUREdl7zVq0Y3sUE8WozHoqIiJysNQuTZjYtD0Wi71mOtFDqFgsdhKbtgdjx7mIiIg0AlHpUUxpksqWzevN1SIiIg1s50L2LdsNPuR6E2sZoQCb1s3BYqkdfqpeRRER2TvNmreleHuhuXqfqUdRREQOXTs+6nQnNAeLLZw0HmoFi63mHHY5JxERkYMpKrOeumLj8GjWUxEROcAMwwI7JrGxO+PMzYcYA29FIWBVf6KIiOw1d0IyVVWNbNbTJk2aUrB5g7laRESkAe3skUtv3QeH49BOFP3+Srbm/qzhpyIisk8ymmeyfXuRuXqfRSVRTG6SqkRRREQOsJrZXwwjRPO2gxr0+cT0tCYYhsG2woYbPWOEAmxePxeLxUrNoopKFEVEpP4ymmdSEsVnFKOSKNb0KG40V4uIiDQcw8DAACNEy/ZHYzRgYjXp8b8TCIW4+baHzE1RY8Fg09ofwGLFgmVHsigiIlI/Gc3bRLVHMSqT2Rih/c41RURE9olRu6xE7T8aoMS6HCTExdSpj2ap/aeIiMg+ifLvkKj0KCYnN2Hr1jz9hhMRkQPHMGqWIgyFaNF+sLk1ql54pmbetyuu3e/5335X/to5WKw7JrNRj6KIiNSXxUJGRmu2by82t+yz6PQoAjaLfcfzFCoqKioqKgeqUPN/o2FLKGQQChl16qNedj0nFRUVFRWVehabxU4oyp12UVkew+GIodrnJRQMmptEREQallGzPEZDOun4YwCDT2Z/Z26KqvKSjTWznoZ/+YuIiPwxm92OMyaW6mqfuWmfRaVHMRjw47A7zNUiIiINx9j5PIZ5Aftol1AoRCgUqlMf7WI+LxERkfpw2B0EA35z9X6JSqIY8AeIcbmxWG276QhVUVFRUVFpiLLry9wW3RIKGoSCNfOqNmw5cOekoqKionKYFKuNGJebgD9gTtP2S1QmswFISkqmZHshfn/0ujtFRET2yKjpejNCBs3aDjC3RtWkJ+4E4PqbHzQ3RdWW9fOxWHf86tdkNiIiUg8ORwzJTVIpLY3uWr9R6VEE8Pl8uGLdWCw2c46roqKioqJySBcjVJOQmutVVFRUVFQOZrFYbLhi3fh80e+si16iWO0jJiYWu8NpbhIREWkQNUNiah/qa7hS+4yiub4himE+SRERkT2wO5zExMTii+IkNrWiMuspAEbN1OFxcW6qfT4MQzOgiojIAWAYuJNammujavTIQRiGwWdfzjE3RZWndBPUznpqMbeKiIjsZLM6SExqQlWVj2Awus8nEs0eRQC/30cgGCQuMQmrTbOgiohIA7IYsOvyg/tYbr3pIm69+WJiXM46bbXFIIRBqE59bYlxObnt5ku46YYL67TtTdl5LupXFBGRPbPaHMQlJhEIBhtsjpioJooAVd5KbBYr7oRkbDanaQY3vfTSSy+99IrSy9hRsNTkjPtYSko9tGnZnKsvPweX01Gn3WIQfkbRXG8xwOV0cM0V59K6ZTNKS8rrtO9VMZ+XXnrppZdeepleNpuzJteyWKnyVprTsaiJeqIIUFnpwQokJadgd7qwWBvkbURE5E+vpufN2I/XK6+9x6o1G8jMbMHll56N3WGrExNeR9H0sjtsXH7p2bRp05xVazbw2hsf1InZm9eu5yQiIrIri9WK3ekiKTkF646cqyE1WAbn9Vbi81WTlJhCnDsJmz0GNCOqioqKikrUS535YPaq+KsDPD91Ous3bKZtZksuvfB0rFZrREztOoq71tlsVi698HTaZrZk/YbNPD91Ov7qQJ3971WB3ZyfioqKisqfulhs2OwxxLmTSEpMweerxtuAPYm1ojeZzW6EQkGq/dXY7Xbc7gQcDicWiwVjx2nXfHoa/s0oIiKyDwzik1qYK/dKMBjk10XL6ZLdjjZtWtK8WRqLFq/AMGp+R40Y1h8Dg6+/nQ+A1Wrl4gtOJ7tjOzbnF/Dc1LeiMjW5pywfiyazERH5c7NYsFqtWG12Ypwu4twJxLnjCYWCeL2VDTJxze5Y0lp0PmCZmt3hwG63Y7PZsVqtO9YS1m9CERGpJ2PHAE0DDMPAMEKEQgGc7kxz5D5xu11ce9V5pDZN5rdFObwx/WNCIbj/nusA+Mc9T2O1wvkTxtG9awcKthbz3Atv4PFUmXe1T6o9G7Ba7VgsViyWmmSx5lelfleKiPx5GBgGhEIhgsEAgUCAgN9vDmpwBzRRFBERiRrDqEkWQ0FSmnU3t+6zhIR4rrryHJo2SeKX/1vG2zNmce9d1wBw978mc/YZJ9D7yK4UbS/l2edep8LjNe9inxVvWYLFatuRJCo5FBGRg6dBh56KiIhE366fbxpgGMTGp+1St3+qq6tZumwV3btl0zazBXFxLppnpIJhkJScQN8+3SkpLef5F9+irDy6Ewl4K7bVDD3d0ZtYQwmjiIgceOpRFBGRQ0zNry3DqEkSjVCIJhldzUH7LTU1mSsvG4/bHRdR7/FU8twLb1FcXBpRHw3bC5bVzBRemyyCEkURETkoGmzWUxERkQZT+xHnjolIG0JhYQlTX3oHb6U3vDyGp6KSqS+90yBJIrWntcu5iYiIHCxKFEVE5BCz4/k9iwUjPHt4w2RVW7cV89Ir7+H1VuGp9PLSKzPYuq3YHBYdFgMs7Din2mcU1ZsoIiIHh4aeiojIoWXHkhUGBiHDACNEk9RssNrMkVGTEB+HYUCFpwHXrQoF2V64EixWrLVLZKAZT0VE5OBQj6KIiBxianrawi/DQigYqOmQa6BSUV6Jp6KyTn00S8057Dyv8ELLIiIiB4ESRREROYQYO4sBlpr/EAxUYRzir2Cgase6ibUPXu5yriIiIgeYEkURETm0RDyXWLOMRLXfs0v9oVnC54BlRzfjjjYREZGD4P8B+OM3vQeakVIAAAAASUVORK5CYII=;" parent="1" vertex="1">
          <mxGeometry x="549" y="1330" width="548.05" height="320" as="geometry" />
        </mxCell>
        <mxCell id="HS-kTsl2HhBY35uQCvbo-22" style="edgeStyle=orthogonalEdgeStyle;rounded=0;orthogonalLoop=1;jettySize=auto;html=1;" parent="1" source="HS-kTsl2HhBY35uQCvbo-12" target="HS-kTsl2HhBY35uQCvbo-10" edge="1">
          <mxGeometry relative="1" as="geometry" />
        </mxCell>
        <mxCell id="HS-kTsl2HhBY35uQCvbo-12" value="ANCHURA = AXIS 9" style="rounded=0;whiteSpace=wrap;html=1;" parent="1" vertex="1">
          <mxGeometry x="648.05" y="820" width="120" height="60" as="geometry" />
        </mxCell>
        <mxCell id="O4QHP7WZ1iR6nGvqIFcb-1" style="edgeStyle=orthogonalEdgeStyle;rounded=0;orthogonalLoop=1;jettySize=auto;html=1;entryX=0.5;entryY=0;entryDx=0;entryDy=0;" edge="1" parent="1" source="HS-kTsl2HhBY35uQCvbo-13" target="HS-kTsl2HhBY35uQCvbo-16">
          <mxGeometry relative="1" as="geometry" />
        </mxCell>
        <mxCell id="O4QHP7WZ1iR6nGvqIFcb-2" style="edgeStyle=orthogonalEdgeStyle;rounded=0;orthogonalLoop=1;jettySize=auto;html=1;" edge="1" parent="1" source="HS-kTsl2HhBY35uQCvbo-13" target="HS-kTsl2HhBY35uQCvbo-12">
          <mxGeometry relative="1" as="geometry" />
        </mxCell>
        <mxCell id="HS-kTsl2HhBY35uQCvbo-13" value="COMO LEER DE FORMA CORRECTA UNA ANCHURA Y UNA ALTURA" style="rounded=0;whiteSpace=wrap;html=1;" parent="1" vertex="1">
          <mxGeometry x="279" y="710" width="270" height="60" as="geometry" />
        </mxCell>
        <mxCell id="HS-kTsl2HhBY35uQCvbo-14" style="edgeStyle=orthogonalEdgeStyle;rounded=0;orthogonalLoop=1;jettySize=auto;html=1;entryX=0.597;entryY=0.008;entryDx=0;entryDy=0;entryPerimeter=0;" parent="1" source="HS-kTsl2HhBY35uQCvbo-10" target="HS-kTsl2HhBY35uQCvbo-11" edge="1">
          <mxGeometry relative="1" as="geometry" />
        </mxCell>
        <mxCell id="HS-kTsl2HhBY35uQCvbo-21" style="edgeStyle=orthogonalEdgeStyle;rounded=0;orthogonalLoop=1;jettySize=auto;html=1;" parent="1" source="HS-kTsl2HhBY35uQCvbo-16" target="HS-kTsl2HhBY35uQCvbo-17" edge="1">
          <mxGeometry relative="1" as="geometry" />
        </mxCell>
        <mxCell id="HS-kTsl2HhBY35uQCvbo-16" value="ALTURA" style="rounded=0;whiteSpace=wrap;html=1;" parent="1" vertex="1">
          <mxGeometry x="-130" y="830" width="120" height="60" as="geometry" />
        </mxCell>
        <mxCell id="HS-kTsl2HhBY35uQCvbo-20" style="edgeStyle=orthogonalEdgeStyle;rounded=0;orthogonalLoop=1;jettySize=auto;html=1;" parent="1" source="HS-kTsl2HhBY35uQCvbo-17" target="HS-kTsl2HhBY35uQCvbo-19" edge="1">
          <mxGeometry relative="1" as="geometry" />
        </mxCell>
        <mxCell id="HS-kTsl2HhBY35uQCvbo-17" value="" style="shape=image;verticalLabelPosition=bottom;labelBackgroundColor=default;verticalAlign=top;aspect=fixed;imageAspect=0;image=data:image/png,iVBORw0KGgoAAAANSUhEUgAAA4YAAADsCAYAAAAo9LisAAAAAXNSR0IArs4c6QAAAARnQU1BAACxjwv8YQUAAAAJcEhZcwAADsMAAA7DAcdvqGQAAEXvSURBVHhe7d13dFRl/gbwZ3pLJiGdJJgChCphEZLQQ4kosIiCEFDQdfenrg1EBBdhbei6iIKKKLiKoAuIoChNpSkrPSChpBAICQkBQgIp0+vvjyRD5iZgAqSQeT7n3MOZ9/3eOzPvZM6Zh/fe94oCQzs6QURERERERB5LLGwgIiIiIiIizyK60RlDuVwBmUwOqVQGiaQqX4ogEokElURERERERJ7F6XQCqIhadrsDNpsVVqsFFotZWNos1CsYisRiqJQqKJUqWMxmmIw6WKxmOOx22B12wFnnQxEREREREbVsIhEkYgnEEgnkMgWUKi/IFQqYTEYYTUY4HQ7hHk2mzsFQoVBBo9HAYNDBoC+HzWaF02EXlhEREREREVEtRGIJpFIZ1BpvqNVe0Ov1MJuNwrImUadgqNF4QyqVoqSkCFaLmYGQiIiIiIjoBonEEsjkCvj6BsBms0GvLxeWNLo/XHzGy0sLB5wovnQBFpOBoZCIiIiIiOgmOB12WEwGFF+6AAec8PLSCksa3XWDoUbjDbvTgfIrxbDbLcJuIiIiIiIiukF2u6Uiazkd0Gi8hd2N6prBUKFQQSqVMhQSERERERE1kKpwKJVKoVCohN2NptZgKBKLodFoUFJSxFBIRERERETUgOx2C0pKiqDRaCAS1xrRGlytz6pSqmAw6GBtpvfYICIiIiIiakmsFjMMBh1UyqaZNaw1GCqVKhj05VxohoiIiIiIqBE4HXYY9OVQNpdgKJcrYDGbYbNZhV1ERERERETUQGw2KyxmM+RyhbCrwdUIhjKZHCajjrOFREREREREjcjpsMNk1EEmkwu7GlyNYCiVymCx8tpCIiIiIiKixmaxmiGVyoTNDa5GMJRIxHDYOVtIRERERETU2Bx2OySSGjGtwdX6jHaeRkpERERERNTo7A47RCKRsLnB1RIMRYDTKWwkIiIiIiKihuZ0VmSyRlYjGDZFOiUiIiIiIqKmUyMYEhERERERkWdhMCQiIiIiIvJwDIZEREREREQejsGQiIiIiIjIwzEYEhEREREReTgGQyIiIiIiIg8nCgzt6HbTQn//IBTkn67eRERERERELYBYLEbioKFo27adsMulXF+On7dsweXLRcIuaiSh4W1RXFwobG5QnDEkIiIiIvIAIpEI7y/6BEOS7hZ2uWnl64fl/12DsPBwYRe1YJwxJCIiIiLyAB07dcHS/yzHoAHxsNvtwm43L7/yOnTl5Xj/vXeEXdQIWvSMoZ+fP3rGJSChd1/X1jMuAX5+/sLSW2LQ4CQs/fxLPPPc88IuIiIiIiKPERERhUf+8jdovDQwm81/GAoBQFdeDl+fVsLmmxYd3RYPPfwops+YhedfeAlJw+6FSqUWllETaLRgePc992LB+4vx/qIlru2jj/+DzT//gg1btuPeEX8W7lJnEokUERFRbm3BIcHo1KkLIiKj3dqJiIiIiDzJqPsfgI+vL0QQQSQSCbtrJRLVvbYu+g9IxKpvvsd/v/4Ozz0/HQ+On4jkiQ9j7lvv4Metv2LGP+ZAIpEKd7tlQsPCsXrtD/jf3sOYNPkxYTc1ZjCsoisvR1racaSlHUdG+gnoyssRFBSM56fNROLgocLyP3RXrzhs+mkH3vwXp7mJiIiIiIT8/QMBAE444XS6XUV2TU5n3Wv/SPJDkzD3rXcQHd0WFrMZhw4ewDdfr8S3a9fgxIljEEsk6Nu3PyIiIoS73jLeWi3UKhUkEjEUKqWwm5oiGJ4vOIe/TErGXyYl45GHx2PcmD8jMz0NPr6+GDHyPmH5H5JJZZDJ5MJmIiIiIiKqnP2r+Fdc51lAkUgEkfjmo0K//gPxl8ceh0KpxP59uzFh/P146snHMH/eW/j3v17HY5MnYPLEsdiz+zfY7Q7h7rdMZnoaHv/bI/jrow/hP0sWC7sJgETjHfBq9Qa1WoPysivVm26Jrnd2Q1x8b5SWXMG369a42o1GI+6IjMSd3brDYjYjPz8fyRMnoW3bdjh69IjbMULDwvHIX/6Kbt17wN8/AA+MGYfOXbuhbbv2gNOJsPA2iI/vA52uHEHBwYiL7438/Dzk5JzBizNn4eHJf8GgwUkoKbmC/Pw8t2MDQELvvnh2ynQ8NPlRjPzzaISGhiHtxHHYbFZXzahRD2D4iFHQ6crRKz4B0154CWPHT0CXLl1x+vQplJeXuR2TiIiIiKgpDRqcBKPRgLy8sxiaNAwrln8mLKkhoU9fKJUq/LJzm7CrXqbPnIV27WJwMiMdL82YhsLCi8ISlJRcwe7ffkVpaYmrTaVS46//9ySefOo5PDB2HPr06Q+drtztN3xVNoiJ6YSsrJP4+zPP4Yknn8V9o8cgIjISx1JT3X7Hj75/LGJj/wSdrtz1OqKiovHUs1Px2P89idEPjEX37j1QcP4cLhdfvVVH9ecxmk14ceYsDBl6N7JPn0JJya3PTQDgrfWD0agXNjeoJg+GqAxkd3brjsvFRfh56xY8/uQz6HFXT2RkpKPgXL6r7ulnp2Jc8sOw2ayQyqRInjAJ7dvHQCqVwsvLG1263omYjp2Qm5MNAIiL7w2T2YTk5IfRqXMXBAYGoU2bOzBoyN2wmi04Vi14vvDiLEydNgPRbdshMDAIwSEh+FOPnhiaNAypqb+juOgSAOBvTzyFpGH3IjIyGg+On4Cw8DYIDAxCx06dMWBAIo4cOeyqJSIiIiJqak0VDKOj22L8hIehUCqx5utV2L9vt7CkVh06dcZHH/8HAwcNQXBICAIDgxAZFY2ku+9Fq1Z+2LvnfwCALl3vxNPPTUPr0DAMu2c4hgwdhuDgEAQFB6Nb7J8Ql9Ab//t1J4xGIwBgxkuz0btvf+TmZOP4saO4d8Sf8e/57+PObt0RGBiEwMAgtI/pgCFD7kZe/lnknKnIFFXP0+aOCAwbNgKx3f+E8PA7UFCQj+PHjrq99lulKYLhzc8P3yQ/P3/c1aMXACD7TDYy09NwNPUwfHx8MXTo1XushIaFo1d8bxgMenz/3bf4etV/MeWZJzDv7bnQ63XIzj6NKc88geenPIWff9zi2q9Dh47Y/dsuJPaLQ2K/OPy4ZRNkUimG3TPcdYHruOSJGHX/GBgNBsyf9xb6xHXHwxPH4vixowgLb4Np019yuxhWJpOhbdt2mD/vLcTf1RUPTxyL7OzTaB0ahnuHj3TVERERERF5qqDgEHh5a6HTleP4MfczAa/Fx9cXM1+ajbDwNjh4YC+Sx45Cn7ju+GzpxzCZTBh13/24b/QYt33uuCMCvr5+ePml6Yi/qytemT0TRUVF6NSpC56fPtOttjpvb2+czMzEjBeeQ/xdXXH/qHuwf99uaH188H9PPA0fX1+3+vDwNtCVl2Hmi1Mx/99vIufMGbf+212jB8PWoWFY9uVqLPtyNZZ/9TXWrNuADp06o7i4GN+vXwsA2LFtKwwGPXrF90ZoWMWNNav+ByAr6yR+2bkdF84XYN/e3TiXnwenE7Bbrdi3dzdSDuzD5cvFruc7f/48Pl26GEajAUajARt++A4GvR4+vr6uC1yT7h4OmVSK7779Bt98vRJ2uw1ZmRl4/715KCoqQkxMBwyqtjCOSCTCwYP78O3aipnPrMwM7P7fLwCAsLA2rjoiIiIiIk9nNplQWnL1NNHrGThgMNq1i8G5c/l4a+5rOHMmG3a7DUuXfITt236CQqnE3cPuddvHZrPik8UfYPu2nwAAP27ZhKWfLILZYkG3bt0RHd3Wrb7Khu/X4+kn/4pff9kBACg4l48lixehuLgYwUHBaB/T0a1epyvHBx+8h192bMP369dh3966zYDeLho9GHp5e6Nz567o3LkrOnbqArVGjRMnjmHGC8/i0MEDAIBfdm5H9unTCA4OwZChwyCRSDEwcTDsDgc2b/wBdrtNeNhrys0543Y66uWiS9Drda7HERFRCAgIgMlkROqRw652ADh69Ahyz5yGSqVGx06dXO0WiwUnjh1zqy0qugSr9eo5zEREREREBGg0XvALqFgZ9Y/cERkBuUJR4zc8ABzYtxdGowGhYeFut6q7eOEC9u/f41Z7LPV3lFwuhpe3FkHBIW59VYxGA0aMvA/ffLcR23/dhy1bf8GYB5Nht1khEoshlUjc6q9cvoyskxlubS1JowfDqlM+pzzzBCY8eB/6xHXHY5MnuJ2fa7fbXMl9YOJgjBw1Gu3bxyA/72y9z3P+oxt4SiRiiMViOJ2AzVYzcBqMRohEIkik7vdVcTivf1wiIiIiIk9WePECdOVlUGs0iI/vLeyulUQqhUgkqvU3vE5XDofDCbFYDInkaoyxWa11npGsblzyRLwwcxaCglvjaOoR7NuzBz17xSE4pLWwFLiJ57ldNHowrDrlc9/e3cjOPi3sdtm+7SdcvHgBUVHRGDNmHCRSKX7cvPGWfxjFl4thNBohk0oRFBjs1ieRSBEcFAybzYay0lK3PiIiIiIiurbs7NM4fvwoJBIJhiYNQ4dOnYUlNZSVlsJms8HXt5WwC5FRUZDL5TAajSiudumYt1Zb43RRlUoNqUwOq9UCs9nk1lcl6e7hkEok+OqLz/D8c0/itVdm4Z8vz0Rx8dVje5JGD4Z1VXAuHwf374XGywsdOnXGxYsXXOcN30qlJSU4fToLCqUSAwcPcVtkZsjQu9EmIgJlZaWu01yJiIiIiG5HDkfNWbhrETlFcNQya1df365bgytXLiM0LByvvfE2ut7ZTViCbt2644235iEiIgrHjh2FTleOqKhoDBqc5KqRSKTo138gZDIZ0tNOuE0W+QcEIrHaeiAAMGLUaLRq1Qr5eXk4mprq1ldFJpPB4XBAr7+6+qdOr4O92i0uPEmzDYYAsG3bzygtLYHdbseObT/XOM/4Vlmx/HMUnMtHn7798dkX/8X0GbPw1r/fxT9mvwKFQoHtW3+qcU9FIiIiIqLbga68DCqlGvlnz8Jbq8V9o8egR89e19ziE/qib/8BOHs2R3ioejt08AA++/QT6HQ6REVFY+lnK7B+w0+uxSg3/fQLlny2At26dYdEIkbKgX3Y+tMWqDVqvDznNbw299+Y+Y9/YsXKb9CzVwLOF5zD6tVfuT2H0+nE5Ef/in+/sxDTZ8zCRx//B/eNHgOrxYIN3397zfVJMtJPQCaTYfSYsRg16gH06z8Qf396CvwDAoSlHqFZB0On0wGn04ni4mJsa4DZwiqZ6Wn415uvIzc3Bx07dcaD4ydiyNBhEEukWP/dOix4d55wFyIiIiKi28Lx40cR+6ceKC4uwieLP8A/Zr+Kj5csu+b2wUdLUFJSgtWr3APYjfrm65V48vFHceTIYTidFXcpqFqM0t/fH8XFxfju229cl5kteHce1n+3DjKFAvfcOwIPjB2Htm3bISfnDP715uvITE9zO37umWz8tutX9BuQiAfHT0TPuAQYDQYs+XgRvl+/zq22uqWffITDKQfRpk0EXn7ldcxfsAghIa1RXHxZWOoRRIGhHZ3VG/z9g1CQf+1r/xrTrDmv4c+j7seGH77DW2+8IuxuEJ06d4GPjy+sNivSjh+H0WgQlhARERER3TZkMhm+XrsBWScz8MrsmTCZzcKSRqNSqdG5a1fIpDKgcoGaa6074ufnj+h27SGVSGqtS+jdF2++/S7On8vHwxPHIqR1KCIjo+r9Oz46ui2CgkNQWlqC9LQTwu4mERreFsXFhcLmBtVsg2G3bt3x1rwFkMmkePkfLyLlwD5hCRERERER1UG7du0x+5W5iGrbDlmZGde8zdru//2Kr75cJmxuloTBsCVpimDYbE8lHT5yFAICApBycD9DIRERERHRTTh1KguPThqP/3vsYfz66w4cTjlQY/t0yaLbJhTSrdcsZwwDAgLw4szZ8PFthS8+X4p9e3cLS4iIiIiIyIN16twFzz73Ai5evIDXXpkl7L6tNcWMYbMMhkRERERERJ6qKYJhsz2VlIiIiIiIiBoHgyEREREREZGHYzAkIiIiIiLycAyGREREREREHo7BkIiIiIiIyMMxGBIREREREXk4BkMiIiIiIiIPx2BIRERERETk4RgMiYiIiIiIPByDIRERERERkYdjMCQiIiIiIvJwDIZEREREREQejsGQiIiIiIjIwzEYEhEREREReTgGQyIiIiIiIg/HYEhEREREROThGAyJiIiIiIg8HIMhERERERGRh2MwJCIiIiIi8nAMhkRERERERB6OwZCIiIiIiMjDiQJDOzqrN/j7B1V/SERERERERI2suLhQ2NSgag2GBfmnqzcRERERERFRIwkNb9vowZCnkhIREREREXk4BkMiIiIiIiIPx2BIRERERETk4RgMiYiIiIiIPByDIRERERERkYdjMCQiIiIiIvJwDIZEREREREQejsGQiIiIiIjIwzEYEhEREREReTgGQyIiIiIiIg/HYEhEREREROThGAyJiIiIiIg8HIMhERERERGRh2MwJCIiIiIi8nAMhkRERERERB6OwZCIiIiIiMjDMRgSERERERF5OAZDIiIiIiIiD8dgSERERERE5OEYDImIiIiIiDwcgyEREREREZGHYzAkIiIiIiLycKLA0I7O6g3+/kEoyD9dvYmIKg0ZMgS+vr5ubXa7HWkn0nAy66RbOxERERHRjQgNb4vi4kJhc4NiMCSq9PennsKkhx9G69BQOBxOfLz4I8yfP9+tZvvOHYhpH+PWZrFYa60lIiIiIroRTREMPepU0tWrVyMvPx+rV68WdpEH02i88MXy5Zg5cybC27RBWVkZMjPScbGw9i+jw+FAbk4uMtLTkZGeft1aIiIiIqLbgUcFQ6LavPr6q0hMTITVZsPHn3yM2G7dMHz4cHy5YoWwFABgs9mxfv13SEpKQlJS0nVriYiIiIhuBwyG5NH69O2LgQMTIRKJsGXzZvzrzbeEJURERERELR6DIXm0xIEDEeAfgOLLxfju22+F3UREREREHqFRguGYMWOQkZmBg4cOYeOmTTibl4cDKSl49dXXkJaejrN5efhm7TpoNF4AgPj4eBw8eBB5+fnIy8/HyVOn8MuuX/H3p54SHhqoPP7GTZuQkZmBs3l5rv1ycnMx/913heU1zJgxA6ezzyDl8GH07z9A2H1dVe+t6jlr205nn8H06dOFu/6hqmsiP1y0CN+tX48zOTnIy8/H8RMn8Morr16z9r8r/4vT2WeQl5+PzMxMfPDhh66xra+6fhbCcfjs88/x/LRpOH7iBPLy85GVleV6HfWpBYDRo0cjLT0defn5OJuXh8zMTPz444+YkDzB7TV8sXw58vLzsWXLFrd2ABg3bhzSM9KRmZmJyY884mrv0rULZDIpcnNysXPnTrd9iIiIiIg8RaMEwyoB/v7w9/PDpaIitA4JwZixY3Dl8hU4HA7ceWcX3HPPMFet3miAXq+DQa+HXCZD2+i2mDlzJt55133lx+TxyXjt9dcRGxsLtVoDk9EIvV4HvV4Ho9EAXbnOrb42kZGRkMtlKCkpweHDh4Xd12W12aDTV7zW620ms1m4a50l9O6N2NjusFosMJst8PHxwUOTHsZTTz8tLEXvPn0QF5+A/Pw85J09C5VajdGjR2P+/HeEpXVWl8+iahxMRiOcTifahIfjoYcfhsFoRM6ZHMjkctw7fDge/cuj9aoFAIfTCUPl52oyGqFSq9Gla1e8/uZcTJs2zfUafvnlFxgNBrS54w6MHj3a1Q4AveLjoNF44fzFC/jtf/9ztQcGBQMAzpw5U62aiIiIiMizNGowtJjNeH/h+9i+fRsA4MCBA3jppZdQVFwMmUyBqKgoAMD+/fuROGAgOnboiA4dOiAhIQE/fP89AGDgwET06dvXdcweve6Cj48PzhcUYNLDDyMmJgYdO3RExw4d0aljJ7z66iuu2tr06NEDPXr0gNPpREZaGvT6Pw6S1f3w/ffo2aOH6zlr27rdeScWffihcNc689Vq8f77CxETE4Ph99yDzJMnoVIq0bdvH2EptF5e+Ndbb2LggAHo06cP1q9fD6fTifjeCRg0aJCw/A/V9bOoGoclS5bAarUhNCwMvx8+jEEDE3HPPfcgIz0dSoUCPXr0qFdt9WN37NARMTExGDp4CPbu2QOFXI7hI0e6ZhZ3/forCi6ch1arxdChQ6u9C6Br5y4QiURIO34C2dnZrnaJpOIrYLPbqlUTEREREXmWRg2GTjhhtVldj4svF8PusMPhcLjVCV04fx7/XbkShZcuQevthdYhIcISqNRq9OzZs8Y95q6nR48eeHn2bISGhaG0tBQ/b90qLGkWTp06hfcXLgQAnMw6iZMZGQAAiVgiqATO5ufj69VrXI83/PADLl++DK23D2K7d3ervRF1+SxQGbi2/vyza8a0pKQEAKBRq4Wl9apF5Rh8/fXXMBj00Gq1iO0eCwDIzs7G3t174HQ60bXbnYiOjgYAJCUlIaR1axgNBhw4eFBwNCIiIiIiatRgWFcx7WPwxfLlSM+ouP4wr/Leg8FBQcJSbNm0Gefy8+Hr64upzz+PbTu24/cjR7Diyy9x7733CMsBAD17xSEzMxPffvcd4uLiYLZY8NWXX7pmwpqb0tJSt8c6g97tcXVFhYVus56nT5+GrlwHkUgEqaRmkPwj9fksqivX6ZF/7pzrcXJyMtqEhyM5OdmtDnWoTejdG9//8AOysrJc1yW+t2AB1GpNtaNU2LFjBy5fvoywsHDcO3w4ACC+dwJ8fX1x8WIhdv36q3AXIiIiIiKP1+yCYXR0NBZ9tAhDhgyBVCJF1qksZKSn42RWFswWi7AcO3fuxOj778e/3nwLhw8fhl6vg7+/PwYNGoQPFn2EmTNnCneBQiGHWqOBSCSC0+mE2WRCbk6usKxOhAup1Lbd6OIzt8LFi4WwOW7sNMn6fhbV6fU6pB5JFTbX6nq1ffr2xQfvv48ePXrAarMhIzMTGenpyD6TDZvNLizH1q1bcfr0aSgVCvTq1QuoPI1UKpXi2LGjbqeRAkBZaRkAwKuWkElERERE5CmaXTAcMHAgIiMjUVxcjOemTMGQQYORlJSEf86Z4zrFUOjC+fNY/PFi3DdqFDp17IRx48bh2NGjUCoUGJKUJCzH7t9+Q5vwcNw/ejTy8/Lg4+ODccnjb2jlzsZYfKY+AoKC3N5Hjx494O2thdPphM1eM0hdz418FlUcDofbzOX1XK928JDBCAwKQm5OLkaPug9JQ4YgKSkJiz74EBaLSVgOVP5ngclsRrfYbhg9ejQiIiJgNJlw/NhxYSnOFxQAgOv6ViIiIiIiT9TsgqGvry/EEilsdrvbiqL3jR4Nv1Z+brXXkpOTA53eIGyu4fDhw9jy44+wWm3oeuedeOTRq7cxqKvGWHymPu4ID8f45HGuxw+MeQAB/v4oLy/DieM1g9G///1vHDt+HJ8vW1YjGN+Kz+JmeWu8IJFIYLVbca4yxGk0XhgxciRUqtqvQdyyeTPOnctHK99WGHXfffAPDETxpUvYvWe3sBTHjx2H0WSqdSVTIiIiIiJP0eyCYeqRIygrL0VwUBAWf7wYW7duxe9HjmD0qFE4m5cLtVqDV197DV9//TViY2OxePFinM3LQ1ZWFjIyM5CRmYG9e/eid+8E2O12pKYeET6Fm/9+9RVOnT4FlVKJ5PHJ9Vq8pjm6dKkIM2fMxK+7dmH37j24//77IRaL8fvvv2OrYHGd+Ph4DB48GL6+vkhISEBSkvtKnvX5LNauW4eMzAw88cQTkMmkiI6KRkZmBo4eO4Znnn3W7bifL1tW59oTaWkwGgxoG90Wv/5vF7Zu3479B/bjrrvuwvmCAgQFBmLRR4uw9NP/uPbJzs7G8aPHIJFIMGDAQKiUSqSlpyM1tebpqj/+9CNycnLg4+ODCRMm1AjHRERERESeoNkFw507d2LBewuQd/YsfHx80KFjR0ilUqxcuQqFFy5CJBLB19cXUW3bQuPlBaVKBYvFCqVKBY3GCxqNF+x2B87l5+Pzzz/Hq/90vxG8UHZ2NtZ/9x2MJhPuiLgDkx+ZLCy5reTn52H3nj0ID2+DOyLugNlkwoYffsCsWbOEpdi/fz8yMjPhcDhwNjcXR48edeuv12eh0UCjqfg8RCIRpFKp6/NQKhRux1VXflZ1qV2xfDmWLFmC4uJiBAUGokNMDIwmEz5atAh6owESiQSBAYFo265iBdIq27ZtQ1lZGRQKOYwmEw4dTHHrr5KdnY3Vq1bCaDCgd58+WL5iORJ69xaWERERERG1aKLA0I7O6g3+/kEoyD9dvYluA6tXr0bffv2w+7ffal350xMtWLgQ999/P3Jyc/DYo3+psfBMdc9Pm4YnnngcGo0XnE4nysrK8Mknn9Q4BXj7zh1o3649zCYT7I6KazYtFiuWLl1ao5aIiIiI6EaEhrdFcXGhsLlBNbsZQ6KbFRsbi08++QSjRt0Hq82GH9Z/f91QCAAL3nsPjz76F2zcsAF5Z/Oue29NkUjkNkNd20wnEREREdHthDOGLQRnDCuuXRw0aBCkUikAwGaz4bvvvsO0558XlhIRERERNVucMSS6CWqVClabDaWlpUhJScH0F15gKCQiIiIiqgPOGBIRERERETUjnDEkIiIiIiKiRsdgSERERERE5OEYDImIiIiIiDwcgyEREREREZGHazGLz/Tp2xetQ0KEzTh16hRSU1OFzUQtWmxsLNq1aydsxvkLF7Bn925hMxERERE1I02x+EyLCYZV9/ETWrV6FWZMf1HYTNSizZv/DiYkTxA2e/R9LomIiIhuF00RDFvcqaTnCwqQkZ7u2s4XnBeWEDWYzsMfx4SlaW5b0ksrhWUN7nzBebfvQXFxsbCEiIiIiMilxc0YXmuGsPPwxxE7eqqwuYbU9QuRtnmpsLnF4Dhc1fuv8xAZP1LY7GKzmnBg+RzkHtgk7LqmDkMno+vIpwAAYokUUoUaRdlHsPXticLSRlX1/eCMIREREVHzxxnDBmS3mGAxlLk2m9kAVP74r95ut5iEu7YoHIeahO/dbRxsZmH5dWVuW4F1UxOwbmoCTmxp2cGaiIiIiFoOj5kxFKqaOcvZvxF7P5sh7PYYnjwOVTOGDfXeq8aWM4ZEREREVB+cMWwm1L7BGPnGFtc1YoOe/w/8o7rhz2/+hAlLTmDc4t+R8OhbkCrUAICkl1ZiwtI0dB7+uNtxrtWu8Q/FgGcWY9yiQ5iwNA3jF6di2Kw1CIiOdatrahyHq3zbdMAD7+2uGIslJzB24X4MnrbslrzW0DsHYOiMrzD2gwOYsOSEa7wf/DAFEXEj3GoDomMxZPoKjF+cWlHz0WEMmvopNP6hbnVERERERPXBYFgLp8MOq7EcVqMOTqcDSu8A9Jr4T0ikchSdOQqn04nIhD+j/cD6z7xo/MOQOPVThHVLhEgig8VQBofTDr/Iruj/9Ifwj+om3KXJcByqcTphNepgMZTBatJDqtIguGM8Bk/7HBG9hgur6yyi13D0e2IBAtv1gESmhMVYfvVUVmM5rMZyV21Q+57o/9QiBMX0BABYDGUQiyQI6dwXiVOWQu0bXO3IRERERER1x2BYC2NZEX56axy2v/corIZyqP1CoCvOx8Z/jsDWtycgd99GiMQShHTpI9z1D7UfOB7aoEiUF+Zg8yujKq5HmxKP3AOboPTyR8zgh4W7NBmOw1Ul+Sex4eVhWDc1AWunxGHtc3HIPbgZEpkS7QdNhEh0Y1+l0G6JkMhVuJixH+tfHOi6PnHd1AR8P2MQCo7tctXGDJkEpdYfhVkpWD8jEeumJmD9jEQUZqVAGxyFqL73ux2biIiIiKiubuzXrIcRy+TIO7zVtVCLrjgfAFynUNaVSCRGUIc4OBx2pP+0DOWFOQAAh82KU799A6tJD++gO244ZDS0ljoO4T2GYszCfW5br4f+KSxzYzMbkP7z57AYyqD09ofKJ1BYUi9KrT/8IrpALJUJuwAA6lYhaNWmI6xGHY5tWASz7goAwKy7gpx9G+Bw2OETWvOG9kREREREddE4v7xvcw6LGWUXz7gep21eilWPd673giIqn0DI1T4QS6SIm/Sa61qyCUvTMGTaF5CpvCBX+9x0yGgoLXUcpDIl5Gqt2yZVernVqHwCMeDpjyquA6x8rcNmrYFcrXWrq6/Tu9bAWHoJPqHtkDhlKR788BBGzt2M7mOnu71/hdYPcrUWMpUXhkz7wm3M4ia9BrFEyusMiYiIiOiGMRjWgcVQBnPZZWHzDXPYbbiccxyFJ1NqbBfSdsNYekm4S7PQUschZ/9GrHq8s9tWfZVStW8wBr+wDGGxg+CwWnDp1CEUnkzB5ZzjsNusbseqr8KsFGycfS/2L5+NwsyDsFtN8A6KRKe7H8M9c75FUPuK6wmr2C1GFJ3+vcZ4FZ5McTvtlIiIiIioPhgM68DpcABOt7t6/CGVNgByjY9bm6HkIoxllyASiXA25Udsnz+5xpayai6cTofbfs2Fp45D6zsHwCvwDpTkZeKHWXdj27xJ2D5/Mg6ufB12i1FYXm82swHZu7/F9ncfwdrn4rBpzgiUnMuCUuvvum7QdKUQJl1FKE//eVmN8do+fzJObPpEcGQiIiIiorphMLwFTOUVP9hDuw5wXW8XGpsItV9rQSVQmLEfqLzHXczghxrtOrrG0FLHQaH2gVgsgd1mht1iAiqvk2zX70HIVO6nnFZnt5jgdNih8gmCNjhK2H1NZn0JbCadW5uxrAiXc05AIlehZ/LLCI8d7NZPRERERHQzeIP7Wm5u3mHoZHQd+RREIjGkSjWcDodrwZXjGxcjc9sKt/q2fcfgrolzIJHJYbOa4LTZYLMYYTPr4R0UCauhHLkpW3Dwq1chVagx8OnFCOrQCxCJYLOa4LBaAAAisRj7l89B3qGf3I6Pau8vPSMDdw8dKuy+YZ48DnW9wX1Qh17o//cPIVd5Q1eUD2NpIbyDI+C02WExlcM7KBLGkkKcS92JQ6vfdO3nGx6DxCmfQuUTCIfNCpvFCLFMjpK8DNd1mf2fXoSwbomwmQyuGVKpQg2xRAq7xYj9y+cg9+BmoPIWHwOf+xg+rSsWmbGZDXDYbRCJxLBbzdj5/t9Qkpfpev7q6nqD++07dyCmfQx27foVD018SNhNRERERI2AN7hvJiTyisVIZCoviERiiCVS16IkErlSWI7sPd/h+MaPYDWUQypTwmG3IW3LUlzOTQMAyNTe8A2PASp/zO/84P9wfNPH0BcXQCy+emwRRFBpAwRHr+AXUNF+qfCisKvBcBwqFGYeRMp/X4f+8nl4BYQjoO2fYDMZsX/FHFiNOtfCL36RXdz2K8k/idR178JYesk1dqgM17LKxW0kUjmcdnvlgjsV799hs+ByznHs+fRFVygEAH3xOWx/5xGcqlywxvX5KDWAyAkvv7Bqz15/8fHx0Hp5w+l0Ij+vYsVZIiIiIvIMLW7G0GgywWG3udrXfrMWs2fPdqu93URHR2P58hWIiIzAqpUrMXPmTGGJR+A41N3cuXMx9sGxrsdSqRwKhfy6M4ZJSUmY98478PbWYtGiD7FwwQJhCRERERE1As4Y3gIqpRIajZdrkysVwpLbTkjr1lColDCZzcjNyRV2ewyOQ93JlQq374FCIReW1KDVaqFSKWE0GpCVlSXsJiIiIqIWrMUEw+TkZLQJD6+x1eV6w+audUgItN5eMJtMyM07K+z2GByHupsx/cUa34U24eHXnC0EgKioKMhkCujKy5GflyfsJiIiIqIWrMUEw5bMW6uFWCT2+B/sHIeGpVSrIBaLUFJSgtTUVGE3EREREbVgEo13wKvVG9RqDcrLrlRvoiYWHBwMm92O3w8fxrp164TdHoPj0LBCgkNgMBiwd/ceHEw5KOwmIiIiokbirfWD0agXNjeoFrP4DBERERERUUvAxWeIiIiIiIio0TEYEhEREREReTgGQyIiIiIiIg/XYq4x7NO3L1qHhAibcerUKa6wSHSLxMbGol27dsJmnL9wAXt27xY2ExEREdENaIprDFtMMFy9ejX69usnbMaq1ataxL0MiZqDefPfwYTkCcJm7P7tt+veI5GIiIiI6o7B8CZUBcPzBQUoLS11tW/esgUL3nvPrfZWiogbgbhH3oBUpnS1lV/MxY53H4Wh5KJbLVXgmNVf5+GPI3b0VLe2ouwj2Pr2RLe2hvb8tGkYfu+9rseBQUHw9/dnMCQiIiK6hRgMb0JVMLzeDGFtP66FUtcvRNrmpcLmawrvMRR3TZgNqUwJkVgMmUKD8sKzLSbkcMzqr/df5yEyfqSw2cVmNeHA8jnIPbBJ2HVNHYZORteRTwEAxBIppAp1kwRDoarvHYMhERER0a3TFMHQIxefcdissBjKat3sFpOw/LryD2/D9y8mYt3UBBz86jXYbGZhSYvAMas/m9VUY6xcY1bP95y5bQXWTU3AuqkJOLGl7iGciIiIiKguPDIYXj57wvUjW7hlblshLCeO2Q3JP7ytxlitm5qA719MRP7hbcJyIiIiIqIm45HBsC5U2gCMeGMTJixNw4SlaXjwwxQMm7UG4bGDhaX11iqiMxKfW4IxC/Yieclx13OM//gouoz8u1utxj8UA55ZjHGLDlXULE7FsFlrEBAd61bXHDTkmIXeOQBDZ3yFsR8cwIQlJ9yeIyJuhFttQHQshkxfgfGLUytqPjqMQVM/hcY/1K2uOfBt0wEPvLe74v0sOYGxC/dj8LRlt+TzbaljRkRERES3HoPhddiMetepf2KpHH6RXdH3yYXoMuJJYWmd+Ud1Q+Jzn6B11/6Qqb1hMxlcz2E16mDRX104R+MfhsSpnyKsWyJEEhkshjI4nHb4RXZF/6c/hH9UN7djNwcNMWYRvYaj3xMLENiuByQyJSzG8qunZRrLYTWWu2qD2vdE/6cWISimJwBUvA6RBCGd+yJxylKofYOrHbkZcDorPndDGawmPaQqDYI7xmPwtM8R0Wu4sLrOWvSYEREREdEtx2B4DcayIvz01jjX6X/fPHsX0n/8DAAQlXDfDf9YDu6UAKV3AMouZGPDrLuxdkqc6zm+ndYHWTtXumrbDxwPbVAkygtzsPmVURV1U+KRe2ATlF7+iBn8sNuxm1pDjVlot0RI5CpczNiP9S8OdD8tc8YgFBzb5aqNGTIJSq0/CrNSsH5GxXWM62ckojArBdrgKET1vd/t2E2tJP8kNrw8DOumJmDtlDisfS4OuQc3QyJTov2giRCJbuwr2pLHjIiIiIhuvRv71Xmb87ujC8Ys3Oe2JU65/oIeDpsVJ3d8BX3ROSi8fKHw8ReW1ItM5Y2Atn+CVKEWdgEARCIxgjrEweGwI/2nZSgvzAEqX8ep376B1aSHd9AdNxwc6qs5jJlS6w+/iC4QS2XCLgCAulUIWrXpCKtRh2MbFsGsuwIAMOuuIGffBjgcdviE1rw5e0MJ7zG0xpj1euifwjI3NrMB6T9/DouhDEpvf6h8AoUl9XK7jRkRERERNY3GSRXNjFgqg1ytddtkKi+3GqlCjbhJr+OB9/a4rs+679874BXUxq2uvnL3b0Lp+VNQ+QSiz9/ewdgPDuC+t7cj7pE3oA2OctWpfAIhV/tALJEibtJrruvDJixNw5BpX0Cm8oJc7XPTwaGumnLMTu9aA2PpJfiEtkPilKV48MNDGDl3M7qPne72/hVaP9frGjLtC7cxi5v0GsQSaaNeMyeVKWuMmVTpPmYqn0AMePqjiusAK1/rsFlrIFdr3erq63YdMyIiIiJqGh4ZDIuyj2DV453dtur3g5PIlRj49GK07T8WYqkURWdSUXgyBZdO/w672eh2rPrSF5/Dj2+Mwa5FT+Hc0V9g0ZdB3SoEbfuOwT1z1iKq931u9Q67DZdzjqPwZEqN7ULabhhLL7nVN5SmHLPCrBRsnH0v9i+fjcLMg7BbTfAOikSnux/DPXO+RVD7imvjqtgtRhSd/r3GeBWeTHE7hbKh5ezfWGPM9n42w9Wv9g3G4BeWISx2EBxWCy6dOoTCkym4nHMcdpvV7Vj1dbuOGRERERE1DY8Mhn/EP7obWkV0huHKBWx9awK2vj0R2+dPxp6lL8BYWiQsrzeHzYpzR3/BrkVP4dtpfbB+RiIupO2GRK5CdL8xAABDyUUYyy5BJBLhbMqP2D5/co0tZdVcOJ0O4eGbREOPmc1sQPbub7H93Uew9rk4bJozAiXnsqDU+ruugTNdKYRJdxkAkP7zshrjtX3+ZJzY9IngyE2n9Z0D4BV4B0ryMvHDrLuxbd4kbJ8/GQdXvg675ebCNFromBERERFRw2AwrIVC0wpiiRQOmxVWs97VHpHwZ6hbXXsBFZtJDzgcUGr94d06Wth9TWZ9CSyGq6tEVinM2A8A6Dz8ccQMfqjRrie8EU0xZjaTzq3NWFaEyzknIJGr0DP55Vtym4yGpFD7QCyWwG4zw24xAZXXlrbr92CN03Srs1tMcDrsUPkEuZ1+/EdawpgRERERUcMQBYZ2dFZv8PcPQkH+6epNt4XVq1ejb79+WLV6FWZMf1HYDVQGrNjRU1GUfcTtNEghjX8Yhkz/Ahr/MBhLL6H8Yi68AsIgU3qh9EI2/KPuhKmsGIWZB5Cyaq7rFhMKr1YY/MIy+IbFwGG3wWY2QCyRwlhyCTvefRSGkovoPvYFdEp6DFazHk5HxWyfVK6CWCqDw27D8Y2LXTM0UoUaA59ejKAOvQCRCDarCQ6rBQAgEouxf/kc5B36qdorr1A1FukZGbh76FBhd700hzHr//QihHVLhM1kcM2QShVqiCVS2C1G7F8+B7kHN7tex8DnPoZP64oFU2xmAxx2G0QiMexWM3a+/zeU5GVWe+UVtu/cgZj2Mdi161c8NPEhYXe99P7rPETGj0TO/o1up44KBXXohf5//xBylTd0RfkwlhbCOzgCTpsdFlM5vIMiYSwpxLnUnTi0+k3Xfr7hMUic8ilUPoFw2KywWYwQy+QoyctwfUaNMWao9re2+7ffkJycLOx2uZXjS0RERNTShYa3RXFxobC5QTXfKagmpC8+h33L/oGScyeh1PojqP1dEEmkSF2/ELpLeRCJxFD5BMIvoiukMqVrP7PuCg6tmovyi7kQicUVC4iIxbBbTBBJJAAAmUIDm80MmdLLtSCJw2lH6flTOLT6LaRtvrrSp81swM4P/g/HN30MfXEBxGKpax8RRFBpA1y11fkFVLRfKrwo7GowDTlmEqkcTru9csGdyjGzWXA55zj2fPqiK+BUvY7t7zyCU5WLr0jkFQvAyJQaQOSEl1+Yq7ZKfHw8tF7ecDqdyM/LF3Y3mMLMg0j57+vQXz4Pr4BwBLT9E2wmI/avmAOrUeda+MUvsovbfiX5J5G67l0YSy9BLKn4m4DDAZvZAFnl4jYNPWb10VTjS0RERER11+JmDI0mExx2m6t97TdrMXv2bLfaliw6OhrLl69ARGQEVq1ciZkzZwpLSCApKQnz3nkH3t5aLFr0IRYuWCAsoUpz587F2AfHuh5LpXIoFPLrzhhyfImIiIjqhzOGt4BKqYRG4+Xa5EqFsKRFC2ndGgqVEiazGbk5ucJuqoVWq4VKpYTRaEBWVpawm6qRKxVu3y+FQi4sqYHjS0RERNT8tZhgmJycjDbh4TW2a11v2FK1DgmB1tsLZpMJuXlnhd1Ui6ioKMhkCujKy5GflyfspmpmTH+xxnesTXj4NWcLwfElIiIiui20mGBIFby1WohFYv4IrwelWgWxWISSkhKkpqYKu+kmcXyJiIiImj+Jxjvg1eoNarUG5WVXqjfRbSQ4OBg2ux2/Hz6MdevWCbupFiHBITAYDNi7ew8OphwUdtNN4vgSERER1Y+31g9G49VbwDWGFrP4DBERERERUUvAxWeIiIiIiIio0TEYEhEREREReTgGQyIiIiIiIg/XYq4x7NO3L1qHhAibcerUKa6ESHQdsbGxaNeunbAZ5y9cwJ7du4XNRERERNTAmuIawxYTDFevXo2+/foJm7Fq9SqPu5chUX3Mm/8OJiRPEDZj92+/Xff+hERERETUMJoiGLa4U0nPFxQgIz3dtZ0vOC8soQYQETcCD350GBOWprm2kW9sgdo3WFhKlToPf9xtvCYsTUPSSyuFZQ3ufMF5t+9McXGxsISIiIiIWrgWN2N4rRnCzsMfR+zoqcLmGlLXL0Ta5qXC5halLmNR33EI7zEUd02YDalMCZFYDJlCg/LCs9jx7qMwlFwUlt92ev91HiLjRwqbXWxWEw4sn4PcA5uEXdfUYehkdB35FABALJFCqlCjKPsItr49UVjaqKq+S5wxJCIiImoanDFsQHaLCRZDmWuzmQ1A5Q/66u12i0m4a4vlsFnd3vvNjEP+4W34/sVErJuagINfvQabzSwsaRGEfy9uY1bP95y5bQXWTU3AuqkJOLGl7iGciIiIiOhW85hgWP1HePUf4vmHt7m1Z25bIdy1xbp89oTbe/fUcagP4d9L1fb9i4nIP7xNWE5EREREdFvwmGBYH2rfYIx8Y4vruq9Bz/8H/lHd8Oc3f8KEJScwbvHvSHj0LUgVagBA0ksrMWFpGjoPf9ztONdq1/iHYsAzizFu0SFMWJqG8YtTMWzWGgREx7rVNQcqbQBGvLHJNRYPfpiCYbPWIDx2sLC03lpFdEbic0swZsFeJC857nqO8R8fRZeRf3erDYiOxZDpKzB+cWrF6/joMAZN/RQa/1C3uubAt00HPPDe7or3s+QExi7cj8HTlt2Szzf0zgEYOuMrjP3gACYsOeH2uUTEjXCrvZ3GjIiIiIiaFoNhLZwOO6zGcliNOjidDii9A9Br4j8hkcpRdOYonE4nIhP+jPYD63/9lcY/DIlTP0VYt0SIJDJYDGVwOO3wi+yK/k9/CP+obsJdmpzNqHedLimWyuEX2RV9n1yILiOeFJbWmX9UNyQ+9wlad+0PmdobNpPB9RxWow4WfamrNqh9T/R/ahGCYnoCQMXrEEkQ0rkvEqcsbX4L3DidFe/BUAarSQ+pSoPgjvEYPO1zRPQaLqyus4hew9HviQUIbNcDEpkSFmP51VNZjeWwGstdtbfdmBERERFRk2IwrIWxrAg/vTUO2997FFZDOdR+IdAV52PjP0dg69sTkLtvI0RiCUK69BHu+ofaDxwPbVAkygtzsPmVURWnIk6JR+6BTVB6+SNm8MPCXZpU1VhUnTL5zbN3If3HzwAAUQn33XDACO6UAKV3AMouZGPDrLuxdkqc6zm+ndYHWTuvrs4ZM2QSlFp/FGalYP2MiusY189IRGFWCrTBUYjqe7/bsZtaSf5JbHh5GNZNTcDaKXFY+1wccg9uhkSmRPtBEyES3djXLrRbIiRyFS5m7Mf6Fwe6n8o6YxAKju1y1d5uY0ZERERETevGfqF6GLFMjrzDW10L1uiK8wHAdSppXYlEYgR1iIPDYUf6T8tQXpgDVC4Cc+q3b2A16eEddMcNB4f68rujC8Ys3Oe2JU65/iIoDpsVJ3d8BX3ROSi8fKHw8ReW1ItM5Y2Atn+65liqW4WgVZuOsBp1OLZhEcy6KwAAs+4KcvZtgMNhh09ozZuzN5TwHkNrjFmvh/4pLHNjMxuQ/vPnsBjKoPT2h8onUFhSL0qtP/wiukAslQm7gGY4ZkRERETU/DVOArnNOSxmlF0843qctnkpVj3eud63FVD5BEKu9oFYIkXcpNdc14dNWJqGIdO+gEzlBbna56aDQ12JpTLI1Vq3TabycquRKtSIm/Q6Hnhvj+uatvv+vQNeQW3c6uord/8mlJ4/BZVPIPr87R2M/eAA7nt7O+IeeQPa4ChXnULr53pdQ6Z94TZmcZNeg1gibdRr5qQyZY0xkyrdx0zlE4gBT39UcR1g5WsdNmsN5GqtW119nd61BsbSS/AJbYfEKUvx4IeHMHLuZnQfO93tb6a5jRkRERERNX8MhnVgMZTBXHZZ2HzDHHYbLuccR+HJlBrbhbTdMJZeEu7SIIqyj2DV453dtuphVyJXYuDTi9G2/1iIpVIUnUlF4ckUXDr9O+xmo9ux6ktffA4/vjEGuxY9hXNHf4FFXwZ1qxC07TsG98xZi6je97nV2y1GFJ3+vcZ4FZ5McTuFsqHl7N9YY8z2fjbD1a/2DcbgF5YhLHYQHFYLLp06hMKTKbiccxx2m9XtWPVVmJWCjbPvxf7ls1GYeRB2qwneQZHodPdjuGfOtwhqX3E9YZXmMmZERERE1PwxGNaB0+EAnE5h83WptAGQa3zc2gwlF2EsuwSRSISzKT9i+/zJNbaUVXPhdDrc9msq/tHd0CqiMwxXLmDrWxOw9e2J2D5/MvYsfQHG0iJheb05bFacO/oLdi16Ct9O64P1MxJxIW03JHIVovuNAQCYrhTCpKsI5ek/L6sxXtvnT8aJTZ8Ijtx0Wt85AF6Bd6AkLxM/zLob2+ZNwvb5k3Fw5euwW24uTKPytNTs3d9i+7uPYO1zcdg0ZwRKzmVBqfV3XTd4u40ZERERETU9BsNbwFRe8SM8tOsA17VyobGJUPu1FlQChRn7AQCdhz+OmMEPNdr1hDdCoWkFsUQKh80Kq1nvao9I+DPUra696IzNpAccDii1/vBuHS3sviazvgQWw9WVNVG5+M3lnBOQyFXomfzyLblNRkNSqH0gFktgt5lht5iAymtL2/V7sMZputXZLSY4HXaofILcTqX9I2Z9CWwmnVvb7TZmRERERNT0RIGhHd2mwvz9g1CQf7p6021h9erV6NuvH1atXoUZ018UdtfQefjjiB09FTn7N7qdCggAHYZORteRT0EkEkOqVMPpcLgWnjm+cXGNm7+37TsGd02cA4lMDpvVBKfNBpvFCJtZD++gSFgN5chN2YKDX70KqUKNgU8vRlCHXoBIBJvVBIfVAgAQicXYv3wO8g795HZ8VHt/6RkZuHvoUGF3vVS996LsI9e9TlLjH4Yh07+Axj8MxtJLKL+YC6+AMMiUXii9kA3/qDthKitGYeYBpKya67rFhMKrFQa/sAy+YTFw2G2wmQ0QS6QwllzCjncfhaHkIrqPfQGdkh6D1ayvmJEFIJWrIJbK4LDbcHzjYteslsY/DAOf+xg+rSsWTLGZDXDYbRCJxLBbzdj5/t9QkpdZ7ZVX2L5zB2Lax2DXrl/x0MSHhN310vuv8xAZP7LWv5fqgjr0Qv+/fwi5yhu6onwYSwvhHRwBp80Oi6kc3kGRMJYU4lzqThxa/aZrP9/wGCRO+RQqn0A4bFbYLEaIZXKU5GW4PqP+Ty9CWLdE2EwG16yyVKGGWCKF3WLE/uVzkHtwM3ATY4Zqf2u7f/sNycn1vyULEREREd2c0PC2KC4uFDY3qOY7XdWEJPKKBUZkKi+IRGKIJVLXQiMSuVJYjuw93+H4xo9gNZRDKlPCYbchbctSXM5NAwDI1N7wDY8BKn+g7/zg/3B808fQFxdALL56bBFEUGkDBEev4BdQ0X6p8KKwq8Hoi89h37J/oOTcSSi1/ghqfxdEEilS1y+E7lIeRCIxVD6B8IvoCqns6riYdVdwaNVclF/MhUgsrlh0RSyG3WKCSCIBAMgUGthsZsiUXq7373DaUXr+FA6tfgtpm6+ujqovPoft7zyCU5WLr7g+H6UGEDnh5Rfmqq0SHx8PrZc3nE4n8vMqVpFtDIWZB5Hy39ehv3weXgHhCGj7J9hMRuxfMQdWo8618ItfZBe3/UryTyJ13bswll5y/b2h8j8kZJWL20ikcjjt9spFiirHzGbB5Zzj2PPpi65QiBscMyIiIiLyXC1uxtBoMsFht7na136zFrNnz3arvd1ER0dj+fIViIiMwKqVKzFz5kxhCQkkJSVh3jvvwNtbi0WLPsTCBQuEJVRp7ty5GPvgWNdjqVQOhULOGUMiIiKiJsIZw1tApVRCo/FybXKlQlhy2wlp3RoKlRImsxm5ObnCbqqFVquFSqWE0WhAVlaWsJuqkSsVbt8ZhUIuLCEiIiKiFq7FBMPk5GS0CQ+vsdXlesPmrnVICLTeXjCbTMjNOyvsplpERUVBJlNAV16O/Lw8YTdVM2P6izW+N23CwzlbSERERORBWkwwbMm8tVqIRWKGnHpQqlUQi0UoKSlBamqqsJuIiIiIiKqRaLwDXq3eoFZrUF52pXoTNbHg4GDY7Hb8fvgw1q1bJ+ymWoQEh8BgMGDv7j04mHJQ2E1ERERE1Gx5a/1gNF69XVxjaDGLzxAREREREbUEXHyGiIiIiIiIGh2DIRERERERkYdjMCQiIiIiIvJwjXaNYUz7GHTu0hkSicStvaSkBNu3b3drIyIiIiIi8lRNcY1howXD6dOn4+9PPQ25XObWfjLrJIYMGuzWVlUrFotwvqAAX371FT5evNithoiIiIiIqCVqimDYaKeSXiwsRGZGOjLSK7bzBQXCEpeq2rKyMoS3aYOZM2fii+XLodF4CUuJiIiIiIjoJjVaMPxyxQoMHz4cSUlJSEpKwi+7fhWWuFTV9undB199+SWsNhsSExPxj3+8JCwlIiIiIiKim9RowfBG6PU6zJo1C9t+/hlisRhDhw5Fjx49hGVERERERER0E5p1MKyyZs0aFBUXITAoGIMHu1+PSERERERERDfntgiGO3fuxMXzFyCXy9Cpc2dhNxEREREREd2E2yIYAsCZM2cAAH5+fsIuIiIiIiIiugm3TTDUGfQAAK2PVthFREREREREN+G2CYZERERERETUMBgMiYiIiIiIPNxtEwzDQkMBAJcuFgq7iIiIiIiI6CbcFsFQo/FCcEhrAEDB+fPCbiIiIiIiIroJt0UwHDN2DNqEhcFoMODo0aPCbiIiIiIiIroJzT4YajReGD16NNQaDXLOnsWuX38VlhAREREREdFNaNbBMKF3byxfsRw9e/ZEWVkZVixfjuzsbGEZERERERER3YRGC4bPPPssjh47hozMDGRkZmD06PuFJS7PPPssjp84gTVr1iA+Ph46nQ7/+c9/8NWXXwpLiYiIiIiI6CY1WjBUKhTQaLxcm0qpFJa4cTgcyM3Jxbp16/DwQw9hwXvvCUuIiIiIiIjoFhAFhnZ0Vm/w9w9CQf7p6k1ERERERETUSELD26K4uHFv09doM4ZERERERETUPDEYEhEREREReTgGQyIiIiIiIg/HYEhEREREROThGAyJiIiIiIg8HIMhERERERGRh2MwJCIiIiIi8nAMhkRERERERB6OwZCIiIiIiMjDMRgSERERERF5uBrB0Ol0ABAJm4mIiIiIiKjBNU0WqxEMRSIRRE3zWoiIiIiIiDxaRRZzCpsbXI1g6HQ6IRbXaCYiIiIiIqIGJhaL4XQ2g2BotzsglkiFzURERERERNTAxBIp7HaHsLnB1QiGNpsVMplS2ExEREREREQNTCZTwmazCpsbXI1gaLVaoFRrIBbV6CIiIiIiIqIGIhaJoVRrYLVahF0Nrkb6s1jMUMgVkMjkwi4iIiIiIiJqIBKZHAq5AhaLWdjV4GoEQwAwmYzQaLw5a0hERERERNQIxCIxNBpvmExGYVejqDX5GU1GqNRekCp4rSEREREREVFDkyqUUKm9YGxOwdDpcECv18PXNxASqUzYTURERERERLeIRCqDr28g9Ho9nI7GX5EU1wqGAGA2G2GzWaH18YdEwnBIRERERER0q0kkMmh9/GGzWWE2N81sIa4XDAFAry+HWCyBTyvOHBIREREREd1KEqkMPq0CIRZLoNeXC7sb1XWDIQDodGUAAL+A1pAr1RCJJcISIiIiIiIiqiORWAK5Ug2/gNZAtczVlESBoR2dwsbaKBQqaDQaGA066PXlsFstcDib5vxXIiIiIiKi241YJIZEJodG4w2V2gt6vb5JTx+trs7BEABEYjFUShWUShXMZhNMRgOsVhMcdhscDgecTgCo8+GIiIiIiIhaKBFEIkAsFkMskUImU0KpUkOhUMJkMsJoMjbZQjO1+X/agpv7nN3u5wAAAABJRU5ErkJggg==;" parent="1" vertex="1">
          <mxGeometry x="-590" y="964" width="902" height="236" as="geometry" />
        </mxCell>
        <mxCell id="HS-kTsl2HhBY35uQCvbo-25" style="edgeStyle=orthogonalEdgeStyle;rounded=0;orthogonalLoop=1;jettySize=auto;html=1;entryX=0.5;entryY=0;entryDx=0;entryDy=0;" parent="1" source="HS-kTsl2HhBY35uQCvbo-19" target="HS-kTsl2HhBY35uQCvbo-23" edge="1">
          <mxGeometry relative="1" as="geometry" />
        </mxCell>
        <mxCell id="HS-kTsl2HhBY35uQCvbo-19" value="" style="shape=image;verticalLabelPosition=bottom;labelBackgroundColor=default;verticalAlign=top;aspect=fixed;imageAspect=0;image=data:image/png,iVBORw0KGgoAAAANSUhEUgAAA8AAAAEECAYAAADnMF0QAAAAAXNSR0IArs4c6QAAAARnQU1BAACxjwv8YQUAAAAJcEhZcwAADsMAAA7DAcdvqGQAAFyKSURBVHhe7d13fBP1H8fxV7rbMMoorawyCi17b8ooey9BpiwZgoL+xAUqwwEoiiAKiIiKuBAQARFRZMjeS6GUPcsuNJ1p8vujJZIrIiAoIe/n43GPB/ne5y53Sbnknfve90xBeSPsuKBvP/mUrb4boOBJvD3T23KbbfjYAsi7ux3mLGZOTZ5Piehk/OzeAPhm8+NqdrCMbM+e3fv5LNqTs4GFMHmmz8+eNwdB8ed5q2EgK35dydAXhl//lHfEbDbTtWt3unXvSmBgDkf7xYsXGD1qFFmzZeXFF0dgNpsB2LRxI/3797tuDTBv/ncULVoEAIvFwtixr7N40WKqVq3Ga6+/Tp48eQA4ePAQHdq3dSw3aPBgevfug7d3+v4tWLCA0aNGOuZ/+OEMqlarBob1Fi1ahNFjXqVUqdKYTCZHPUB8/FV8ff0c67zR9hr91fNcr2Wrlk6vw8GDh3j9tTGMHTee4OBgAM6ePctLI0awadNGp2WN+3ltm4zr3LlzBz0ffdRp2b9z/banpqYya9bHfPD++7dUY3x/rt/+u/kaG/d/0fff8/LLLxnLAChYqDixsWeNzQ5Dnnycpk0aEZgjJ56eHgDYbDY8PDz4ftESXn99vFN9zRrVGTHieXLnzsWVuCu8OWEiy5f/4lRzvebNmjDs2acBmPDWRH5Yusxp/isvD6dJ00Z4eab/p05JSeHkyVOsXbuer7/5lrNnzznV364B/fvwaI9uXLocx6jRr7Nly1ZjiZPg4DwcOxJtbAbI9P4a//+JiIiIyP0n/Ruui7KbwIqHY0q1mUizmbA7Ir0dOzbspGEnDbAB6TPtgMlmx2SzOSbsdrDbwGbHarVd/1R3zGKxMGPGdGbPnk1KSrKj3Ww2U7hIeqi9nsnDOQz9F3r16kPJkqUwmUzY7XYOxhxk7jdfs2TxYlJSUhxB606YTCa8Mn5wuJ6Xp3emILh//34SEhIcj319fcmePbtTDYCH4TVLS0tzenxNctKfr/9/7W6+xseOHSUlJcXx+NoPBrfrpREv0LnzIwTmyMmZ2DPExBwkJuYgcVeuGEud2Gzp/1dMJhN+fr7G2bdlzKtv8OywF1n640+cPh2Lh6cnhQsXonv3Lkx8500KFy4EwFdffsbGDatvOk15b6Jx9XdV9uzZ8fX9c3+v//8tIiIiIvcnlw3A23duITk1ARsepOFJGp5Y8SDJlkaiJZFzZ85jS00CkxX7tQkbabY0Th49RWqylaSEJLDZIC1jsttJSUrh2NHjPHSbIWLS5PcYN/7NvwwfF85fwGq9cTC7Xs6cuZ0eV69Rg+zZszq13WslSpbAwyP9T+PkyRM899wzvP7664wYMZwPP/yQxMRE4yK3zM/Pj9KlSxmbKV26FH5+fo7HFy+ex2KxcOVKnKPNbDZTsmRJx+NrwsMjHIHRbrdz8tQpY8l9526+xqdOniI+Pt7xOChPHsdZ71tVsGABKlQohx07386bT/v2nenWvTfduvcm5sBBYzkA5oAAunTpRFBQbuKvxpMlaxY6P9LREVLv1Lr1Gxg16jXatutI40Yt+OSTz0hKSiI0tCBRUfUASExMwpKQcNMpKfneBtJ8+fM5Bf5jx445zRcRERGR+4/LBuAK5Srj5RuA1e5F6rXJ5kmayQe/AH+CQnLj4eOTcfbXih0rYMPDw0S+0Lx4+3jh4+eLCRsm7Jiwg82Gt48v+fLl5cjx48anvCl/Pz+aNm3KvPnzeXfSZJo3b+6YV7lyFdq2a4u/v7+jLSkpmZMnTnL1ylWSk5Mc7cHBQXTs9IjjccsWLcmRI6fj8b/BZMroUw6kplo5cybW8TgpMQn7n6fYb5uHhwf1oxrQomVLR1vXrt1o0rSZIxBarVb27N4DwLat27BarQB4eXnRvEUL6tWv71j2qaeeplpG92OAq1evsm3rFsfj+9XdfI23bdvGyZMnHY9z5cpF3bp1nWr+Ts6cOfHx8QGbjcTrzrq3atWcomFFbrg9/fr1plLF8ly6fJn3p07n7NlzFClSmF49exhL75glIYHLl+NIy/gbuKZ3n/5ERTW96TRs2AtOy9xthQoVwscnPQCnpqZy9OgRY4mIiIiI3GdcNgCT0aE5FROpeJCKB8k2T1Kv26X0DtBWx5TeDTrji7wdbDZ7erdnE2CCtDQ7qXaw2SHtDrtAZ8mSlXr16vHG2HHs2LmLHTt38dHMmZQvX8Gpi+/hw4dYt24tW7Zs4dLFy07LP/vsMObN/44lPyylRcuWeGZcD/lviY//s8tr/vz5efHF4RQtWoSoBlF06drVKcjfiVy5cjFmzKss+2k5v6z4lWeGDSNr1j/PcsfGxrLi1xUALF78PaeuO6MbHBzMhAnvsHbdetZv2EjPXr0cIcRut7N9+3Z++OEHR/396m6/xjt37HD8UJAlSxYqVqxoLLmpHTt2curUKby8venatTNfffkZ8+d/xYvPD+PSxUukWa00btSAL7/4lPYd2tKqVXNatkj/kWfZjz8xf/5CFi1agtVqpX79OvTs2d2x7lkff8iKFT+yYsWPPPf8/wjw9yfA35/nnv8fK1b8yA+L59OoUQMia9dk6dKFrF37q6N+1cqfGDr0CcxZsnDx4iV27tx93VbfmgkTxjnW17VrZzy9vMiZMydvvfUGK1b8yDdfz6F8+XLGxW4qNDTU6f/0+XPnWbNmjbFMRERERO4zLh2A00wm0vDCmjGl2L1ItnmkZ1w7GRH4zzPA6dcDX8duB6sdU1r6ZE+1YkuzYbfbsKY5n3H6O4cPH77lawBjY2P5aMZHWCwWLBYL69avdYQXAB8fX4oWLUK+fPlISkri0qWLTsvfa6tWrXKclfb29qZlq1bMm/8d77zzLkWLht3wbOCtSk1NJT7+Kp6engQHB5MrVy6ngG+xWFgwfz67d+2CjIGFPp45k4sXLzhqvLw8MZvN+Pv7OwKI3W7nwIFoJk+6t9d93i13+zVe8esKzmUMEOXh4UHVatUdA6fdqvemTGPHjp14mEwULlyIoNy52bJ1G2vXroeM7usFC+SnWNEidH6kI1mzZWXP738wY8YsAGZ8NIuNm7bg4+PDwx3aUbNGdQD8/f0wBwRgDgjA3y/9PTOZTPj7+WMOCMAvIABvLy/8/P2x22x4eng46n19fUmwWNi5cxdvvPHm3w5adSN+vr6O9fn5+WEymfD09CDAP/35AwL88fLyMi52Uw0bNSJv3occj2MOHnD8zYqIiIjI/culA7DNZCLV5EmqyYtUkxfJeJGcsUvXhrpyXP9rsmI3OQ+CZbPZsdvSsNvTQ68t1Yo1zY7NZict7fbOAI8d+wZPDX2KjRs2kJT0Z5fm66WmprJxwwaGDXuG337782zRtKlT+fXXFaSmpjrVx8dfZc6c2Vy87gzxv+HjmTOZP3++0wBUZGzPkiWLbuv6VKOUlBTmzJnDiRPHnUKe3W7n3LlzvPvuu3z00QynZb77bgEvjXiJP/7444YDXCUlJbFs2TKefOIJDh48ZJx9X7rbr/HuXbvYsmWzY0CqfPny0alTZ2PZTe3Zs5cBA5+kVmQDqlWvQ2SdhgwZOoz3P5juaKsV2YDxb75Dt+69qVa9Dv37D8Zy3T4MG/YC1WvUpVXrDqxbvwGAzl0epVr1On85RUU15Yely1i+/Beat2hH9Rp1HfOq16hLVMPm9B/wBBs2brpua2/dE08+nek5r59atmp/W8HabDYTFdXA0fPgypUrLHWBXgciIiIiAiZXvQ3S3E8+YWW2zVzNk4gp4wyiv1cafnhQd28UWbIFcPr9ryl6IBZfe/pZQnPW3MRn8yfhlU7s2XmAj3dauZLtITx90rubemcNIKstkYmNs/L511/z3ocfOj3n7YiMrEP1GtXJni2QVGsqu3buYN26dcTG/nmtp1Hp0qWpV78+IcEPcejwQVat/PU/DXRFixahbr36FClc9B9tz1/dBql58+ZUqZrevnnTxlvqunz9NqVaU9m2bSsrfvkFi8ViLHUJd+s1BihTtizjxo0nX758AJw7d47Ro0Y5/djyd7dBEmc3ug3SM8OG0aVLV7y8vLDb7Sxf/hPPPfusU42IiIiI3J9cNgB/8sH7bHroDy4FpYBnevdFX480fE1Qf2tNsmTz48pH8wg9eB5fe/pZYb+AQOKz+BI3vD379xxj1l4r8VlDHAHY09+XLCTxVgMzjz/zDHv3/eH0nHJn/ioAy933xJNP8uijjzrOTm7atJGnn3rK8QNBwdBinD13/ra7WLsjk8lEnqDcHDt6wNHWtGlTXhw+wnE7rpMnT/LCC8+r+7OIiIiIi3DZLtCzZn+FzSO9W3FKSvqUkJSGJdlG3LkkrlxIxjvVjt1kx26yYTfZsKYmkJaUQPylFBLirNjTbJBqdUz2xGSsyWms+HW1wq+4pCnvvcfKlSsdAbdSpcq8+OJwx/yU1JT00Z7lb/n4+JCS+uf9lWvXjmTQ4Ccc4ffq1avMmjVL4VdERETEhXias+YeZWx0BUdPHGPnt9spU7kinr7eeCR74JNmxy/Rk6x/ZCXeEo9ffDxeaUkkZfEm0eyN1deTRLM3+7JmwZZk4xLeeHp7E+iRSlZTCjl9Urjw20fMnT/H+HTyD7Rq1Zp8+fNDxnXQv/22huho526lcvesW7eO/AUKYLfbuHTpEoGBOfD382PXrl2AB1mzZiUp6dYGbHNXJpOJ7NmycvVqHCkpSeTPn5+u3bqTPXs2Ll68wPnz51kwfwGfz/7MuKiIiIiI3Mdctgu0uI5Jk9+jcuXKACQmJjDhrbf48ccfjWXyL8mZ+yH8fP2ItySQkpKi7tDXMZlM+Pj4kMUcQFJyEhfPnzaWiIiIiIgLUwAWcUNZsuYgS9Zs+Hj7wHX3p3Z7djspqSnEX71C/NVLxrkiIiIi4uIUgEVERERERMQtuOwgWCIiIiIiIiK3QwFYRERERERE3IICsIiIiIiIiLgFBWARERERERFxCwrAIiIiIiIi4hYUgEVERERERMQtKACLiIiIiIiIW1AAFhEREREREbegACwiIiIiIiJuQQFYRERERERE3IICsIiIiIiIiLgFBWARERERERFxCwrAIiIiIiIi4hYUgEVERERERMQtKACLiIiIiIiIW1AAFhEREREREbegACwiIiIiIiJuQQFYRERERERE3IICsIiIiIiIiLgFBWARERERERFxCwrAIiIiIiIi4hYUgEVERERERMQtKACLiIiIiIiIW1AAFhEREREREbegACwiIiIiIiJuQQFYRERERERE3IICsIiIiIiIiLgFBWARERERERFxCwrAIiIiIiIi4hYUgEVERERERMQtKACLiIiIiIiIW1AAFhEREREREbegACwiIiIiIiJuQQFYRERERERE3IICsIiIiIiIiLgFU1DeCLux0VWERVQgZ84QvH398TABmIwlIiIiIiIiclN2bHZITU7k4sUzxOzbbix4YLhkAA7OW5jQwiVJsFzhwrkzXL1yieSUJOx2l9sVuYkatZuy/rcfjc0iIpJBx0kREbkbTCYTvj5+ZM2Wg1xBIQSYs3H08O/EnjpsLHV5LtcFOiy8IvkKFCUmehf7ft/GuXOnSEpOVPgVERERERG5A3a7naTkRM6dO8W+37cRE72LfAWKEhZe0Vjq8lwqAIeFV8TP38zuHRu4EnfROFtERERERET+oStxF9m9YwN+/uYHLgS7TAAOzluYbIE52f/Hdp3tFRERERERuYfsdjv7/9hOtsCcBOctbJztslwmAIcWLsmRQ/sVfkVERERERP4FdrudI4f2E1q4pHGWy3KJABwWUYEEyxV1exYREREREfkXXYm7SILlCsVKVDbOckkuEYBz5gzhwrkzxmYRERERERG5xy6cO0OOnMHGZpfkEgHY29efq1cuGZtFRERERETkHrt65RI+Pr7GZpfkEgHYwwTJKUnGZhEREREREbnHklOSMJmMra7JJQIwmDT4lYiIiIiIyH8gPYs9GAnYRQKwiIiIiIiIyD+jACwiIiIiIiJuwRSUN+K+71scGdWB9b/9aGyWB1yN2k31vouI3ISOk/dOgL+ZAHMAPt4+rtvrzw4pqSkkWBJISLQY54qI3JYatZuyZsU8Y7PLUQCW+5a+2ImI3JyOk/dG9uyB+Pr4EG9JICUlxWXHITGZTPj4+JDFHEBySgpxcZeNJSIit+xBCcDqAi0iIiKSIcDfjK+PDxcvXSY5Odllwy8Zg9YkJydz8dJlfH18CPA3G0tERNyOArCIiIhIhgBzAPGWBJcOvkZ2u514SwIB5gDjLBERt6MALCIiIpLBx9uHlJQUY7PLS0lJSb+eWUTEzSkAi4iIiFupXqM6kyZNZOrUKbz55jgqVar050zTtftdPljsdrvrDub1L4iIiGDcuHFMnTqFSZMmUr1GdWOJiDwg3HoQrEKhoQTlCTI2Ozl27DixsbG0a9uGKlWrsmrVKpYt+4ng4GCeeGIwuXPnJDXVyrffzmP16jXGxeUfuNuDuwQHB1OwYAEAUq1W9u/bT2JiorGM8OLhZMueFYBzZ89x5OhRY8kN9e/fjwoVygGwfftOPvxwhrFEROSuutvHyev5+/tTvUY1SpYohYenB7Gnz7Bp06ZbPiber4oXL8bIUSN5KCSE5OQUZn08i2/mznXMz5s3H7GxZ52WAZjy3kSqVLkuKN+ANTWVz2bPYfqHHxtn3ReCg/Nw6tRJY/N9L7RgQfr07U3p0qXw8vLm2NFjfPTxx1y+eIkuXbqQak3hizlfcvrMGdq1bUPjJo0AOHrkOOPGjzeu7i916tiR3n164+vrw+kzZxg9ajTR0QeMZSJu60EZBMvTnDX3KGPj/Sa0cElOHIsxNv9jw54dRp8+vWnUqOFfTnbsZDGbGfzEIIoULky5cmXZHx2NNTWVTp06EhpaiBw5Atm3bx9//LHP+BTyDxQoGHZX3/cqVSrz4vAXaN68OfXq1ePcufMcOOD8wVa2bFlee20MrVq1JCoqisSkJLZt2+ZU81fatWtHhQoVyJ07N1euXGXFil+NJSIid9XdPk5e0/Hhhxnz6mgaNWpEyZIlKBERQeUqlWnVuhX16tfjxImTnD592riYSxg6ZAglS5YAYPXqNUydNs1pftas2bBYMt8yKKpBfXLnzkVqaiqpqamYAE9PT5KTk0lOSSE1NZXk5GR27tjNjp27jIvfF7JkMXP16lVj832tUGgor499ndKlSuHv74+vry85cgRy+PBh2rVvR2SdSIoXL05gYCBr1qyhflR96tSpQ+7cuQE7ixYtNq7yL+39/XceeiiYsLAwsmbNSt6H8vLLihUPZI8AkTtRoGAYxw7/YWx2OeoCfZtMJhM+3t7GZnEBa9b8xqkTpwDw9fWhYsUKxhIqVa5E1qzZALh69QqbNm4yloiIPNCiourTs9ejZM2a3hPmeh4eHhQKDaVqtSrGWS6hXr26VKhUAZPJxNmzZ/l89ufGkr80bNgLREU1dUw7dqSH3GU//exoa9ykFbM+nW1cVP6B+g2iCM4TDEBycgoHY2I4EB3DlSvx+Pj8eU2zj8/d+W425/MvOHEy/Sx5yZIladKkibFERFycAnCGQ4cOseC7hZmmbVu3sXLlKr768iv27tnL119/zUaFIpeUlpbGzl27HL/kFo8ozkMhIU41pUuWxNMz/b/F4UOH2bXr/vwVX0TkXqlRowYBAemjBV+9epVPP/2M559/gbffnsiO7TtITnbdAaIiIyMxB5ix2+33tDv3iBHPs3HDajZuWM3qVcvp2bM7EyaMY+2aX9iwfhU/LFlAly6PADCgfx/WrvmFxYvmU7nyn12s/6rdHBDAU089wQ9LFrBh/So2rF/Fil+W8tqrI8nzN5d1uaKiRYo4Ppd/+eVn+vUfyBNPDmH58uVMfOddNqzfwIb1G/h45izjonfk9JkzrFnzG2lpNvz8/ahXr46xRERcnFt3gY6KiqJAgfRrQv/4Yx/jxo5j08ZNTtPJkyd5KCSE0mXKEHflCh4eHpw6eQovLy8aNmxAlixZsNnS2Lp1m6MLdK1aNRk8eDD9+vWjR49uRNWvT9asWYg5eBCr1WrYCvkr96JrnzUtjerVq+Hn54evjy/HT5xwdIOOiIigXbt2BAT4Y7WmsmTJD+zZs5fQggXp168v/fr3p2/fPrRs1ZIihQtx8sRJ4uLiHOu+/u/p+PETTl2gS5UqxaBBjzNo0CC6d+tCzVo1CQjwJzr6gCOQPxQSQteuXahZqxYlIiJISkxi8OBBPNyhA1ZrGocOHYKMrtxDhgyhX79+jnXZbDYOHjzoeD4y/g6ffHIwAwf2p2uXzjd8ThFxbffiONmkSWPHsWz79h28885ETp06xYEDB1j2009s276NS5cuc+LEiUzHrcNHDpOcnEy27Nno3PkR6tStQ/ly5Th18hQenh5ObQmJiTw+YCBDhz5BkyaN8fbx5o/f/6B+VD2ee3YY/R7rS2RkJJcuX+LE8ROO7bvVY7JRodBQunTpTJYsWbhy5QqffjabM6fPGMv+sgu0UfPmTcmXLy/7ow+wZs1ap3nVq1UhtFAoJsDD0xNPDw/Kly9LbOxZ0tKs5MqVi9DQUPbs/Z2CBfJTrlxZkpKSWblqDadOpXctr1ypwg3bh7/4HG1at8JsNpOSkkKqNRV/f3+KFClM0aKFWfrjT07bcr2/6wJtfN/OnztP5y6P8NTTQ+nerQulS5Xi+IkTXLx40Wm5HDkC6d2nF4MHPU7fx/rSuHEjCoaGcvzoMeLj4x11zZs2o2nzZlSrVg0TUL1GNQYNHEj58uXZu3cPSUlJjtoSJUvwSMdOFCsWRo4cOQCwxFsoHhFOlUqVibfEUzysON5+vsRbLMTFxXHy5EmqVKlMqZIlAbh08aKjC/S1bRw4IP3vpl279pQqVZLz589z7tw5x/MCWK1Watasnv5dwdeP3bt3c/78eacaEXf0oHSBVgD+i8ByvRIlIujXvx/lypahUOHC7NixgwRLwg0D8GP9HuPJJwaTP38+zOYAfH19yZkrJxUqVqBSxQqsW7/e6QAvf+1efLE7d/YctWrWJChPEF5eniQmJrJmTfrgZU2bNKZa9ap4eHhw4cJlvvhiDgUKFmT8uDcoXaYMgdmz4+PjQ9YsWShWrBj16tXl1KnTHDt2DG7y9zRgYH+eemoIRYoUSf+b8PMjT548VKlShapVKjv+Jq7/O8ubLx/VqlelfPly5MmTB09PT1atWs0zz/6P/v37UaBAfqd11axZg7CiRVm9Zg12u53HBw1k4OMDyJ8/f/o1Uxl1VatWxT/Any2bt1z3qoiIq7oXx8kaNWpQpEhhyBg0KSRvCAdjDjlC4flz5zlxIj2QXn/ceuihENb9to7LcXE8FBLCwIEDqFy5kuNz055mc7QVKVKEypUrU65cWfz9/cmRIwcVK5QnLCyMTp0eISQkGF8/P4KCgqhSqRInM4615SuUv+VjslGFihWoV68e3t7exMbG8sWXX5KcnGwsuysBeN26DXz66edUrFiBAvnzYbfDwkVLeP75EZy/cIHKlSqSJauZU6dP4+3tdcOge6MAXLNGdbp1ewQ/Pz9++ulnBg0awowZs7h6NZ6yZUoTHJyH8xcucuDAjf8m/i4AX/++FS5SmJIlSlKvXj2yZc2Gv78/BUMLUrdOpOP9IGNE7bFvvEHlypUIDAzEx8eHwMBASkRE0KBBlNN70rNXTxo3akiJiAhy5cxJs2ZNCXnoIYJDgtmzew+nTqVfpgRQt04kXbt1ybiWN13IQyGUiIigWLGiHDt2jKrVqjrWd+nyJbZs3nLDAFywQAEmvP0W1atVJ0eOHPj6+mI2B1CoUChR9euTlJLEH7//+aU+NjaWevXrkjtXbry8PDh86DD790c75ou4qwclAKsLdIaaNWuwYsXPTtOXX86hUGiosfSmvL29ALhw4SL79+8jNjYWm82GyWQiPCKCXr16GheRf1FaWhpbt28nLc0GQHhEOMHB6dcWVahQAS/P9Pfv6NHDREcfwNvLCw8vLywJFg7GxHDkyBFSU9O7/wUGBtKr16Nky55+zfCNNG/enDatWuPt7YPdbudKXBxnY8+Slpbm+Jt4+qmnjIuRM2cgBfKnh+lr2rZtTaMGDfDy9CI1NYVNm7bw64qVXImLw8PDgypVq9K0aVMKFihA7dq18fL0Ii0tje3bd7Dgu4Xs2L4DS8Lff6kTEff2y4oVjjOp3t4+NG/ajM8//4zPZn/KI5064enpaVzktgUEBBASEszxEydISkz/UdjLy5vIyEjsNhvHT5zAmpbeYypb9uw0adIY4B8dk/PlzYuPb/o1oxcvXORK3BVjyT2TnJzM7E/nAHDhwiWSkpPx9PAgwN/PWHpT5cqVJlvWrJw+fZqZH3+CJSEBgK+/+ZZDR47g6+NDwQL5jIvdEXOAmVKlS5GSnIIlwUJaWhpkvB/XXueHQkJ4/PGB5MqVEzKu0T15+pSjm3xgYCADBva/4XepUqVL4n2T+xKnpFiJj7eQkvLnjxTJScnEWywZ7bfeo87DwwMvTy+Sk1M4cuQIB2NiHH93fv5+dOr4CMWLF3Na5sL59LPcPj6+5M1/d15TEbk/KADfJmtq6k2vfzp14iRjxrxKx46dePzxJ+je/VF++mk5drsdk8lEyRLpI0/Kf2f9uvVcvnwZgKBcualUoSLFixcjf4GCAKSmprBx48b0f1utfDHnC9q2aU+//gPp0+cxJr4ziYSMLx1BefIQXrz4dWt31iCqPn4ZX3B27NhJl67d6dylKx/NmElqagomk4kyZctQwTAgl5enFzEHD9Cta3c6dHiYb76ZS7269fD29iEtzcYPP/7ECy+8wKuvvcaUKR+QlJiEr68P5cuXw8PDAw9T+s0ebbY0duzYwQfvf8D/nhnGoz168sPiH5yeS0TkehvWb+DNt97i5OlTjsslPD09yZ8vH/0H9OPDD6dlCgu3Ky3NxjfffEvPR3vx/gdTHZ+rCQkJTHj7bXo+2oulPyx1PH9wxrWt/+SYnDV7NsePnIn/ck+sCxcuOsLqli1badmqPbUiG9z27ZJy5sqFl7c3+fPnY+43cxzXGW/csJqyZUrj5e1Nzly5jIvdsY0bN9O+w8O0atnG8blFxm0FK1WsSIMGUTz0UPpYGhcuXOSFF1+kR7dHGTp0KGczbiUVnCeYho3Tb0t0PbvdxIwZHxEV1ZCXRrxMTIzzWetFixbRoUNHtmz5804M3y9eROtWbejQoSOLFi1yqr8Zm83G8p+W0759B/r0eYx+/Qfy4ogRXLiQHnIDA7NSpkxpp2XOxMY6/p0zR3rAF5EHgwJwhmtnbK+fYmIOZvqQTE5O5spNrjFa+P0igvIEMXPmDL5ftJCPZ80kITGRhMT0D74sWbPe8JdQ+ffs27ePYxkDn/j6+VKhUgUqVqxIjhzpZw3Onj/PurXrAdixfQe///4Hb44fx3cL5jFv3jeULlfacb2Qr4+3497CRgULFCAk70OQEao3rN/guO/w0mU/Orq5BQT4U6RwIadlExIS+ObruZw+c4ZLly5zJS6O3EF/dgMrX64cU6dOYerUKXTu8ghe3ulnZPz9/Tl+4gRnM7bP29uH3r17sWTJ98ye8xktW7Z0jG4pIvJX1q/bQK9HezN69Bi2b9vuOFtmMpkoXLgwg58Y/I/OBCclJ7Jnzx4Azp6NJdWaChmDbh06mD7ewbFjx7BmtF/zT47J/6WzZ52vMf2n4uLiiIk5mGnatz+aA9E37v58u5KTklmzavUNP7d8fH3IlzcvxYoXc/yocODAAXbu2AlAdPQBtmxNv9TG0zN95HCj3/fu5csvvwJg165dXLqU/sP0vXDs+HF++WUFL7zwHPPmfcN3C+bxcIcOHM/omu3t7UOejN5g16Rl9EDgLo4wLSL3BwXgDPv37+fxx59wml5++RVir/sF8FYMGvQ4AwcMoHDhwvj5+ZIzZw5at25JgH/6iJpyf9i8ZYvji1V4RHh692ev9A+46H3RnD6TPjBK9RrVGT16JBUqViBL1qz4+vrR8LprfW/m+jOxqalWzl/4cwCNK3FXsKamP7/JZMrUDezq1ascPnTYqe0aT08PQgsWIDw8gvDwCIoUKeLYdjK6eY97Yxxr165z/Frv4+NLvofy0qtXT1588YXr1iYicmNpaWmsXr2GZ4Y9S9++j7E7I7ACFMifn1KlSjnV3w67HdLuYFDIf3JMPn/2vOOYmD3bjbtJ3ytptvTuw7cjR86ceHqlh8trzpyJJTU1lYSEJMaOm0C37r2dpp49H+ObufOclrlTqWlWzl34M7hf/7nl6eFJgNmMZ0b4Bbh48YLj34DjjDd/ESBjDjkP3HgvXbuXcGRkJIGBOfDx8aVypUqUKVvWWOoQcl0gvv5ssIi4PgXguyhb9mxUqVIZT09Prl69ymuvvk6rlm2YOePjTL9iy39r27ZtXLqUfv3XQyEhlC+f/iGYnJTM1s1bHXW1a9Uke/bspKXZWLTkB1q2bM2QIU9x/tzfjwZ58fIlx4Bnvr5+FA0Lc8yLiIggMKNLlc1mI/G6Lwo3cv26rNZUZn08i6iohpmml156GU9PTy7HxfHyy6/QvHkrRo0aze7dux3d8EuULEHBW/iyKCLuafATg2nWrLlT2+kzZ5wGVvLy9sY343raazxMHo6zwjly5cTP7/aub70V/+SYfPzkCVIyAlz2HIGO8R/+axcvXSY1zUqOwOxUqZJ+u6PSpUtRvlxZTBk/ol6zc+duLl+OIyQkD88//wzVq1V1mn83+fn5OnUnL168GNmyp4/GnJqaQuyZM1y+fMkxv1BoIadeAWFFijr+fe0s8n+ldu1ajltEbdywkVat29C1WzcOGe6ecL1r3Z5TU1M4f/bv/75ExHUoAN9FOQNzOD7wbTYbVzOG/r9w4QJp1vRBl+T+EB19gAMH0kd09PT0dJyBPXfhPFu3/3m9UWBg+oc9gCXj/Tx37hyJNxg51OhK3BV2Zdx32NPTg1YtW/BIp05ERkby5BODyZkzfd3nLlxg06bNxsWdXL8uLy9vOj7SiT59++Dv7w8ZX0xeeP55GjVqRIH8+Zn47tsMHjyYbNmysnr1Glb+upKUlPQvfh4mEx4e+q8vIjf2UEgIw4Y9zbffzuXll17iySFP8sLzzxNVv56j5vLlyxw7dhxrWhp2W/rnW85cOWnTtjUFCxSgU8eOZLsHZ1n/yTH58KHDjm62OXPkoGTJezMmR/ny5fjm6zmsWPGj48fVJo0bsmLFj3zz9RzKly/nVL9x42bOxp7Hy9ubno92Y+XKZUybOhmTyQNraio5c+ZkxIjnaN+hLVu2bGXx4iWkpKRQvFgY7777FitXLmPFih9ZvWo5X8z5xGnd/4SXpxdt27WjQ4d2REZGMnTIEHLnTg+FcXHx/LFvH1u2bHUMrhgeEc4LLzxPlSqVGfbcM5Quk95DIDk5fdDG/5Lx+u+0tDSuXLn6l6N9FwoNdVx2ZLEksD9aI0CLPEj0LfguOnL0KMePHwcge/bsvPzSCKZN/4AhTw1xDIQk94/16zdkGtBs186dTt3e9+zZg9WaiqenBx3at2fGh9OYNnUqBQvkd1ruryxZ8oOj61TWrFkZMLA/o0ePpETJEphMJpKTU1j03SJHl+ubWTD/O05m3CIii9lM925dWbJkEStW/My0aVOpH1WXbNmyAJA9W3Y6dGjHvHnfsmzZDzzx5BOOszXHjx/nSMY10CIiN2IymciZMwf1o+rRrm0bGjdpRGBgIGR0jd6wfgOxsbEcPHjQcX9UT09PWrZsySefzqJy5cp31O337/yTY3JsbCzbt23DbrcTEBBA7dq1jSV3hZeXFwEB/pgDAvD2Tu/66+vrizkggIAAf7wM3ZqPHTvOlPencuTIMWw2Oz7evhw7dpyF3y8mxWrF09ODPLlzE5Qx0vK06TOZMOFd9kcfIDk5GX+/9Ofy8vLG09OLcmXLOK3/TtntdgIDszN48GCnz620tDRWrVpJdPQB1qz5jZ07rv3Q60mDBlGMHz+O5k2bOe5+sHXrVn788Ufj6v9Vf/z+hyOoR9apzcezZvLxrJmULXfjLtDVa1R3jGx96uQp9u7daywRERemAHyXffTRTE6eSh9kKDAwkKJFihITfUC3n7kPbdu6lfMX/+zWZEmwsGXLn92fAebO/ZYN6zdis9nw9fWhaFgYlsSEWx5IKjr6AMNfGM7uPXsct5C45vz5i0yePIVv5s51av8rR44e5flnn2fz5i2O69iusdlsnDx5ipiDhzh+4gTr1m9w3OvR29sHk8mEzWZj7569vD/lA6dlRUSu9/6U91m5cpVj4KvrxVsszJ37LdOnfwgZvVNmfDTTMZougDXNyuZNm7iYcRuZu+mfHpNXrlrNlSvpl7+UKVP2H13H/MSTT1Oteh1ef328U/u1UZ6rVa+TaWrZqn2mzxmA1at/45HO3alZqx41a9Wja7defPHFV9Sv34Rq1etkGjH6+0VLePTRvtSt19ix7pq16vFI5+7s3LXbad13ypKQwC8//+L0Q3FycgqLf1jqeP/T0tIYOXIU3y9ekunvJTk5hSVLlvD6629k+vz7t61cuYply5ZjTbPi5elFodBQAvwD2L9vv7GUHDkCadykMV5e3qSmpvDryl//8+0XkbvLFJQ3Iv0eA/exyKgOrP/tv/318HZ4enpSskQJ/Pz9OHf2nM623aEatZveN+97odBQgvIEkZSYxO9//HFHH4bBwcGO0UmvxF1lf3TmD95b5e/vT3hEON4ZZxKOHTt+wwHbwouHky171pvWiIjrutfHyeuPITc7/l1/TPo3Pvf+yTH5pZdGUL9+PUwmExvWb+DlV0Y6LZ83bz5iM27h86AJDs7DqYwf6W+kUGgoY8e9QXBwMPEWC6+OeZWYmBgKFS4MwJHDf3YjN7r+byDVamX/vv3/+bW/Rtc+h2+2fYMGPU67dm3x9PRk9549/O/pZ27r70vkQVajdlPWrLg7A+39lxSA5b51r7/YiYi4Oh0nb1+OHIG8/c7bFAoNxWpNZfZnnzP78zmO+XkfysfZc+cc9yB+UJhMJvIEBXHq9O0F4M2b/9vrd/9NkZGRPPO/p8iWPTuXL19mzKuvsWP7DmOZiNt6UAKwukCLiIiI27h06TIffjiD3bt3c/DgQSpVrkSNmtUd81NSU/DxcR7h+kHg4+NDiuHyGflTREQEzZo24fSZ0+zds5epU6cr/Io8oHQGWO5bOrMhInJzOk7efQH+ZrJkMXPx0uUH5iywyWQiZ45A4uMtJCT+9ZgkwcHBPPHEYHLnzkliQhLTp8/4R5friMiDRWeARURERB4wCYkWklNSyJkjEF9f30z34nUlJpMJX19fcuYIJDkl5abhl4yRsl9++RUef/wJ/vfMMIVfEXkg6Qyw3Ld0ZkNE5OZ0nLx3AvzNBJgD8PH2AVfNwPb0Lt0JloS/Db8iIn/nQTkDrAAs9y19sRMRuTkdJ0VE5N/yoARgdYEWERERERERt6AALCIiIiIiIm5BAVhERERERETcggKwiIiIiIiIuAUFYBEREREREXELCsAiIiIiIiLiFhSARURERERExC0oAIuIiIiIiIhbUAAWERERERERt6AALCIiIiIiIm5BAVhERERERETcgikob4Td2Hi/iYzqYGwSERERERGRf9GaFfOMTS7HZQLwiqWzjc3ygItq1kPvu4jITeg4KSIi/5aoZj0eiACsLtAiIiIiIiLiFhSARURERERExC0oAIuIiIiIiIhbUAAWERERERERt6AALCIiIiIiIm5BAVhERERERETcggKwiIiIiIiIuAUFYBEREREREXELCsAiIiIiIiLiFhSARURERERExC0oAIuIiIiIiIhbUAAWERERERERt6AALCIiIiIiIm5BAVhERERERETcggKwiIiIiIiIuAUFYBEREREREXELCsAiIiIiIiLiFkxBeSPsxsb7TWRUB1YsnW1slgdcVLMed/V9LxoWRkSJEnh6eBpnOYmNjWXjhvXG5v+Mq273NX+3/alWK9u2biH2zBnjrBsaOeY1ypcrz/LlP/HBlMnG2SJu5W4fJ0VERP5KVLMerFkxz9jschSAgdZt2tLxkc4ULlKElKQUtm7bwuzPPmHXjh3GUvkX3e0vdk8OfYq+fQfg7eNtnOVkw/p19O39qLH5P+Oq233N322/xWLhtTEj+X7hd8ZZNzRz1mdUr1GTefPm8sqIF42zRdzK3T5OXvNwp0do07YdhYsUAeDwoUPM/fqrW/5/KiIiD54HJQC7fRfo0a+9wZhXx1KxYmVyBOYkOCSE5s1b8u67U4isU9dYLi7s7NlzRB/YT/T+fUTv38eZ06cBuHjpoqMtev8+jh0/Zlz0P+Wq220UHx/vtL3XppgDB7gcF2csF5H/yFvvvMsrI8c4PhdzBOakYsXKjHl1LK+MHG0sFxERcSluHYAf7vQITRo3BeC7BfOIqleb/o/14dChQwSHhPDEkKcwm83GxcRFff3lHDp1aEu7Ni1p16Yla9f9BkD0vn2OtnZtWjL6lZeMi/6nXHW7jWLPnHHa3mtT184Ps3rlr8ZyEfmPZM+Wnf379/Hcs09TKiKMXj27sX3bVry8vWjQuIl+HBYREZfm1gG4QYOGZM2WjT17dvHGa2OIPXOGtb+tZtLEt7hw8QLFihXjka7djIvJAy6qQUNee2Mcffr1p3Wbtnwyew5vvfMuRcPCaNuuA2PHT6BPv/5Oy5QtX56RY15j6NPPOLUHh4TwzLPPM3f+QhYsXMzsL76ie4+eTjV3S59+/XntjXE0btyEoU8/w5dff8uQoU8D3Nfbfb2GjRoxbcZMFixczLzvFjF2/ATKli9vLMskOCSE0a+9wbzvFrFg4WI+/GgWD3d6xFjGw50e4ZPZc1iwcDFz5y/kpZdHERwSYiwTcWuff/4ZvXp0ZcmiRQBs3riR9ya/y7mzZ8mWLRuly5Q1LiIiIuIy3DYAly5TlqJhxUlNSWXzpg1YLBbHvJ+XL+f40aP4+vpRsmQpp+XkwVeqdGlatmxDixateHH4y1SpUo26detTqlRpKlauTOs2balVs7bTMoVCC9GiRSsaNGjkaIusU5dZn35On779KFmyFMXDI6hYsTLPvTCcqdNn3PXeBbVq1qZlyzb07N2Xvo/1p2y58jRs1ATgvt7ua54fPoK3J75HZGRdiodHEBFRgtZt2v7t5QhFw8KYNv0jHn64E2FhxQgtVIhatSMZ8fJIHh/8JABms5mp02fwysgxVKlSjeLhEZQsWYou3boz69PPb7p+EXezeuWvTp+JAHt27yLe0CYiIuKK3DYA582XjyxmMympKRw+fNg4m4OHDgKQK2cu4yxxE4WLFOHgwRheHvEin3/2CbGxscaSm+o3YCChoYU4EB1Nr57dKBURxltvjiXBYqFqtep0fKSzcZF/zNPLk2LFw1mwYB4vj3iRX35eZiz5W/dqu0MLFWLT1p2ZpvenfgiAr7cPO3duZ+iTj1MqIszpcoR+AwYaV+fQuEkzChUpQsyBA7Rv25KK5UrTq2c3NqxbS5o1DYD+AwdRs2YkCRYLb7051tGt80B0NAULhvJwxzvbJxF3US8qity5cpFoSeDgwRjjbBEREZfhtgHYz9cXL+8bj0p7vVy5chubxE1cOHeBN98cy/x5c5k8aeJt3WKocdNmhBUtxpW4OGbMmMrmjRsB+OTjmfy2dg1+fv4ULxZuXOwf8/DwYOuWTYx8aTjz581l0rsTjSU3dS+328vLC7PZnGny8/MDYPr0qTze/zF+Xr4cgLW/rebLL2aTmJhA/nwFqFS5imGNf23zxo08PqAfH07/AICatWrj4enBDz8s5pOPZzpqvvnmS5KSEilStOg9O7Mt4urMZjMdOnTKuGRoNz/9uNRYIiIi4jLcNgDfKpst/QySuJ+zZ8/c8a2wwsPDCQgw4+nlRb9+A1mwcLFjqlC+ImRct3q3Wa1WDmX0XrgT93K7D8bEUCoiLNN07dZN8Vev8sSQoaxas45NW3eyas06ypWrgM1mx2Qy4eXlZVwlAD8tW8qRQ4cIK1aMbxd8z+Kly3n5lVEUDQsDoFr1GuTOlRubzUbVajWc9qlL1x54e/mQxWzWdY0iN2A2m3ll1KtUrlKVs7GxzP7sE2OJiIiIS3HbABwbG4slPh4PDxNZsmY1ziYgIACACxcuGGeJm0hKSjI23Ta73Y7d7nyr7StX4u7ZbYvsNrtLbjfAC8Nfolv3nvgHmNm2bQt79+6hTp26f3tm9mBMDAMHPMa3335DXFwchQoVonPX7sz6bA7tO3T8s9Cevl/Xs6amcOhQDAcPxmS65lHE3ZnNZl4b+ybNmrfg/LlzvPbqKNasXmUsExERcSluG4A3blhPXNxlfH39CAsr5jTPbDZTLKw4NpuNw4cOOc0TuZF8+Qvg7fNnl/oLFy5gTUslwWJh3NjXM9365365bdH9st2ly5SlWvWapKamMGXyuwzs15dBA/sz9YMpJCUlGssziT1zhpEvDade7Rr07tWd7du2kjNHTtq2b8+Z2DMkJSdht9v5adkPmfanXZuWPNanJ3t27zKuVsRtmc1mJrzzLg0aNCT2TCwjXxnBil9+NpaJiIi4HLcNwADbtm0FoF69KKdRYB/rnz4I0NUrV9i6bct1S4i7S0lKxmazkT0w0OnMZNmyZfHx9nE83rVzJ+fPnydX7ty0bdve0X5NyVKlqFCxEmSEv9Zt2tKsRcs77l78d+737fb19cXL0xObzUZ8fLyjPT4+HpvN5lRr1L5DR6IaNHQ83rxxIxs3rseaaiUwew6OHj5M9P5ovLy9iIpq6OgafY3ZbKZOvfpObSLu7Fr4rVW7DkePHGH48Gd15ldERB4Ybh2A53z+GTEHogkOCWHsm28x6b2pfDJ7Dj1798HD04NVK39l6ZLFxsXEjW3fsZX4q1cpXjyc6TM+5okhQ5n9xVeUL1+R1JRUR92e3bv44YfFWNOstGrTlkVLlvHmhImMHT+BL776llmfzqF2ZCQAXbt2Z+z4CTz9v2cJCspz3bPdPff7dm/dspkTJ4/j7x9Atx6P0qlLVzp16Uq3Ho/i759+OcJfKV+xIhMmTuKT2XMY8vT/eOnlUbRq3Q4vby/2798HwLdzv+JsbCzFwyP49PMvmPTeVMaOn8AH0z5k+S+r6Nmzt3G1Im7r9bFvEVmnHmm2NDCZGD78Zadr5wc9McS4iIiIiMtw6wB8MCaGN954lQPR+wnMnoOGjRpRpUo1AJb+sITXXh1lXETc3JJFi/hx2VKsaVYqVKzE44OepHixcH5avoyU1BSn2skT3+H99yZz8dJFihQtSouWrWjdpi1ly5Xj/PlzREdHQ8btgQCi9++7Z91wXWG7Z0yfxpEjRwgPj2DkyDG88sporFYriYkJxlInmzdu4Mzp01SuXJUBAwbRpVt38ubNy66dO5k2dQoAa1av4uWXhvP773sd/9dbt2lL3XpRmEwmfv99r3G1Im4ra9YsmEwmfLx9KFKkCMXDI5ymkIceMi4iIiLiMkxBeSOcR4W5D0VGdWDF0tnG5ruqWvUaBAcHk2ZLY98ff3AwRvc5/K9FNetxz9/3O1W6TFmKFClyy38vderVJzB7dgAOHTrkCIyhhQszbfpHBAUF8c7bb/HF5/d2f11hu689Z2xs7G3deuravpExyN1fLXt93eW4OFav/NVYIuIy7ufjpIiIPFiimvVgzYp5xmaXowAs9y13+GLXuGkzRo16lYuXLjF4UH+OHj5sLLkvuep2izxo3OE4KSIi94cHJQC7dRdokf9anqA8pNlt7Nqx3aVCpKtut4iIiIi4NwVgkf/Q57M/JbJGVYa/+Jxx1n3NVbdbRERERNybArCIiIiIiIi4BQVgERERERERcQsKwCIiIiIiIuIWFIBFRERERETELSgAi4iIiIiIiFtQABYRERERERG3oAAsIiIiIiIibkEBWERERERERNyCArCIiIiIiIi4BQVgERERERERcQsKwCIiIiIiIuIWFIBFRERERETELSgAi4iIiIiIiFtQABYRERERERG3YArKG2E3Nt5vIqM6GJtERERERETkX7RmxTxjk8txmQC8YulsY7M84KKa9dD7LiJyEzpOiojIvyWqWY8HIgCrC7SIiIiIiIi4BQVgERERERERcQsKwCIiIiIiIuIWFIBFRERERETELSgAi4iIiIiIiFtQABYRERERERG3oAAsIiIiIiIibkEBWERERERERNyCArCIiIiIiIi4BQVgERERERERcQsKwCIiIiIiIuIWFIBFRERERETELSgAi4iIiIiIiFtQABYRERERERG3oAAsIiIiIiIibkEBWERERERERNyCArCIiIiIiIi4BVNQ3gi7sfF+ExnVgRVLZxub5QEX1azHPXnf69SrT2D27MZmh9jYWDZuWG9svqE69eozcOBgEhIsvDvxbfbs3mUs+VeULlOWIkWKGJsdkhITWbv2NywWi3HWDY0c8xrly5Vn+fKf+GDKZOPsf4XZbKZWrdr4+fsbZzkcOnToll/zR7p0o8PDHTl96jRDn3zcOFvEJd2r46SIiIhRVLMerFkxz9jschSAgcZNm1G3bj3Onj3LpIlvG2fLf+RefbH7fvGPFA0LMzY7bFi/jr69HzU231DrNm156ZXRWOLjeeH5YbccnO+2Ma+PpUOHjsZmh7Oxsbe1fTNnfUb1GjWZN28ur4x40Tj7X1Gteg3GjZ9AnuBg4yyH29m+J4c+Rd++Azh27CitWzY1zhZxSffqOAkQHBLCoCeGULVqNQKzB3L8xHF+WLKITz6eaSwVERE38KAEYLfuAm02m3np5VGMG/8Wbdt1oEGDRsYSeUDZbDaOHz9G9P59maZjx48Zy13GxUsXM+1P9P59HDwYc8tnf+831lQrhw4dyrRP0fv3ceb0aWO5iNwFkXXqMuvTz3n44U4ULBhKtuzZKVWqNP975jnGjnvLWC4iIuIy3DYA16pdh8/mfEXnrt0weXhgs9mMJfIAS7OmsWTx97Rr0zLTNPqVl4zlLiN6375M+9OuTUse69PzlrsK32+SU5KZMf2DTPvUrk3L/6x7tsiDrlfvvoSGFuLYsaMMe+YpqlYqx9dfzsGaZqVJs2Y81n+gcRERERGX4LYBuE/fxwgPj2Dr1s3Mmf0ZadY0Y4m4ueCQEJ559nnmzl/IgoWLmf3FV3Tv0dNYdkOt27Tlk9lzWLBwMXPnL+TlV0Zl6nb9T9Z/p8xmM337DeDLr79lwcLFfPn1tzw59CnMZrOxNJPgkBBGv/YG875bxIKFi/nwo1k83OkRYxkPd3rEad9fenkUwSEhxrK7qkq1arz97mQWLFzMgoWLmfTeVGrVrmMsy8RsNjP06Wec3oOevftmej0aNmrEtBkzWbBwMfO+W8TY8RMoW768U43Ig6JFq1aULFmKxMQE5sz+jKVLFmOxWBgzeiS/rvgFHx9fmjRtZlxMRETEJbhtAL50+RIzpn9Az+5dSU5OMs4WN1e6TFlmffo5ffr2o2TJUhQPj6Bixco898Lwv+3+N+Tp/zHq1depXLkqoYUKER4eQeeu3Xn7nUmOmmvdC2+0/qnTZ2QKYHfLjJmf8vT/hlG2XHmKh0dQtlx5BgwczKT3PrjpcxYNC2Pa9I94+OFOhIUVI7RQIWrVjmTEyyN5fPCTkBEmp06fwSsjx1ClSjWKh0dQsmQpunTrzqxPPyeyTl3jau+Knr378sHUD2natDnFwyMoHh5Bw0aNePudd+nUpaux3MFsNjPpvQ/o138g4eERhBYqRIUKlXj2uRcY9vyf1xWPfu0NJrw9mcjIuhQPjyAiogSt27RlygfTaX+T665FXFWF8pXIkjUrp0+fYcH8b53mbd2ymaSkRIJDQqgXFeU0T0RExBW4bQAe9vRQJr070dgsbsLL24tevfuyaetOp2nVmnU0a9ESs9mMxWLh45kziKpX26n7X8PGjenctbtxlQ5R9RvggQczPpxGxXKlqVG1IpMnTeT8+fOOmn4DBhIaWogD0dH06tmNUhFhvPXmWBIsFqpWq07HRzo7rfNWVaxcOdM+bdq6k5deHgWA3W5j4Xfzad2yKaUiwpg8aSKW+HiqVKlG/4GDjKtzaNykGYWKFCHmwAHat21JxXKl6dWzGxvWrXX0nug/cBA1a0aSYLHw1ptjKRURRq+e3TgQHU3BgqE83PHO9ikgIIBXRo3JtE+Lly6nUuUqZMli5mBMDCNfGUGpiDC6dH6Ybdu2kCVrVh59tDehhQsbVwlAvagoypQpy/lz5xj8eH8qlitNm1bNWLZsKclJ6T+Kde7anebNW2DDxiezPqJqpXK0btmUTRs3kDNHTjp17mJcrYjLC3noITw8PDgbeybT2AEHY2K4euUq/n5+5MyRy2meiIiIK3DbACzuzWQy4efnj9lsdpr8A8x4e3mxZ/cunhg0gLffGk/smfQvgWNGj+SPvXvx9w8gPCLCuMq/ZLFYmD71fR7rk969uXHTZoQVLcaVuDhmzJjK5o0bAfjk45n8tnYNfn7+FC8WbljLrfHx9sm0T2azGR8/XwCGD3+eES8+z8GYGACmT32fNb+txsvbixIlShrWdnObN27k8QH9+HD6BwDUrFUbD08PfvhhsWOU2M0bN/LNN1+SlJRIkaJFb3qW+a+YTCb8/QMy7ZM5IAAvLy++nfsNfXs/yrfffA3Arh07mPnRh1y8dJGg3LkpXbq0cZV/6WBMDM88NYRxb7wGQO3akQQEmNm4fh1vjR+HxWLhYEwMn376MRcvXeShkBBq1KptXI2IS/O/ya3HrvH28iFf/nzGZhERkfueArC4pdSUVKZNnUKpiDCnqWqlcny/8DssFgthYcX54qtv2bh5Oxs3b+eLr77FbrdjMpnw9PQ0rtJhxa+/YMNGv/4DWbdhCx99/KnTtbLh4eEEBJjx9PKiX7+BjutWFyxcTIXyFSHjets7sWH9ukz7VCoizHGroOzZszPtw49Yv3Erm7bu5Lvvl+Dn6wdw0336adlSjhw6RFixYny74HsWL13udF1zteo1yJ0rNzabjarVajjtU5euPfD28iGL2UzpMmWNq/5bFouFF58flmmf6tetxcYN64k9c4bOXbuz7JeVbNq6k982bKJt24exWdMweXjg6XHj/Vq5YgW7d+8id1AQUz6YzvJfVjPuzbepUq2ao6ZgwVBsNhtFwoo57dPTTz9LlowfTIJy53Zar4g7sJvsWDV2hoiIuCAFYJEbqFa9BmNefZ2y5cpx9uxZ1vy2moAAf8qW+/uBjyZPfIdRL49gz57d+AX4U6NmLV4ZOSbTtb12ux273fk23FeuxN2zWzGFFi7MqNGvUjuyLgkJCaxevZLExERq38JgUQdjYhg44DG+/fYb4uLiKFSoEJ27dmfWZ3Ocr4O1p+/X9aypKRw6FHPPbsU0+MkhDH5yCEFBQfz++x62bt5K+fLlCcqTx1jqxGKxMPTJQcz4cBqxsbEEhwTTqnUb3v/gQwY9McSp1m4YJd5mS+PokSPEHDjA5bg4p3kiru7kqZMA+Pml/zh2Pf8Afzy9vUhNSeXkiePG2SIiIvc9BWCRG2jUqAl5goPZtXMnnTu1Z9jTQ+nWpRN7du82lt7Q9wu/o3PH9kTWqMr7UyaTmJBA5SpVadWmHRcuXMCalkqCxcK4sa9nurXPvboVU4OGjShUqDAnThynf7/eDHt6KF0eeZhfV64wlt5Q7JkzjHxpOPVq16B3r+5s37aVnDly0rZ9e87EniEpOQm73c5Py37ItD/38lZM9eo3wNPDk7lff0WvHt0Y+uTjvPHaaC5eumgszcRisTBp4ts0blCXdm1a8MvPy/Hz86N5i1aEFi7M1atXMJlMbN60MdP+tGvTkq6dH2b1yl+NqxVxaadPnSIlNYU8eUIyjXZepkxZsmXJxuXLlzl06JDTPBEREVegACxyA57eXphMJpKTkxxnLS0Wy9+OGF66TFke7dnbcabXYrHwwZTJxMbG4u3lQ1BQbnbt3Mn58+fJlTs3bdu2N66CkqVKUaFiJchYX+s2bWnWouUdd4u+xtfHF5OHB6mpVs6cPu1oT7yFs7LtO3QkqkFDx+PNGzeyceN6rKlWArPn4Ojhw0Tvj8bL24uoqIaZbvlkNpupU68+ZIwo3aJVK1q0apWp7k54e3lht9lJsMQ72q5aLNisVqc6oybNmtOqdRvH44MxMfy8fBlJSUmYAwIICQ5h9+5d2Gw2atWKvOEo1te/JiIPirVr13D+7HmCQ4Lp0rmbo71oWBgNGzbBy9uLA9H778kPWiIiIveaArDIDezft4/ExARKlS7DK6PG0LpNW14ZNYZSpcsYS52YzWZ693mM7xf/yLg336bfgMeZNmMmBQuGEnc1jh3bt7Nn9y5++GEx1jQrrdq0ZdGSZbw5YSJjx0/gi6++Zdanc6gdGQlA167dGTt+Ak//71mCgm7epffv7Nm9iytXrlAgfwFefWMcrdu05cmhT1Gnfj1jaSblK1ZkwsRJfDJ7DkOe/h8vvTyKVq3b4eXtxf79+wD4du5XnI2NpXh4BJ9+/gWT3pvK2PET+GDahyz/ZRU9e/YGoGXLVrz++puMGDGSomHFDM90+w4cOICXtxfNWramT7/+tO/QkX79BpAj581HqC1evDgjR7/K3PkLeWH4Swx5+n/0fWwAAQEBHD9xjI0b1jP3m684GHOA4JAQ3p44mWkzZjJ2/AQmvTeVX1etZehTzxhXK+Lydu3YwaLF32FNs9K8ZSvmzl/IhImT+HDGLIqGhXE2NpavvpxjXExERMQlKACL3MBXX3zO4sWL8PL24pHOXRk7fgJNmzb/22ve9uzexaZNGwnMEUir1m146ulniIysS3JyEl9/+QVrVq+CjOuE339vMhcvXaRI0aK0aNmK1m3aUrZcOc6fP0d0dDQAoYUKARC9f98/PtuyZvUqvv7yC5KTk2jSpBljx0+gd5/HOHr4iLE0k80bN3Dm9GkqV67KgAGD6NKtO3nz5mXXzp1MmzoFMtb/8kvD+f33vQRmz0HDRo1o3aYtdetFYTKZ+P33vQAUCC2Et483J0+d5Kcflxqe6fZNmzqFXTt3kj9ffp555jnGvPYGQXmCuXT5krHUyYYN6zl48CDh4RH0eLQXAwYMomhYGEeOHGHG9GmQcVZ45MiXWL9uLb6+vkRG1qV1m7Y0bNSIbNmzOfZJ5EEzeeI7fPvN16SkJFOyZCmaNWtBcEgIJ04cZ+I7bzmOZSIiIq7GFJQ3wnnEmvtQZFQHViydbWyWB1xUsx7/+fteNCyMiBIlsNnsbNu6hdgzZ4wlN2Q2m6lVqzZ+/v6kWq03XbZOvfoEZs8OwKFDhxxBN7RwYaZN/4igoCDeefstvvj87rwWwSEhVKxUGQ8PE/v++MNxS6RbUbpMWYoUKQJAbGwsGzesN5aAoe5yXJzTdbJzvvyG0mXK8vnsT3hr/LjrlvpnqlWvQXBwcKbn+zvX3mNPD8+bLnt9XVJiImvX/nZPBvUSuR33+jh57Xjh7eV10/8fIiLy4Itq1oM1K+YZm12OArDct+71F7v7XeOmzRg16lUuXrrE4EH9OXr4sLHE5ZQuU5Z33n0PXz9fXnrxeZ1FEvmH3P04KSIi/54HJQCrC7TIfSpPUB7S7DZ27dj+QIRfgDx58mDCREx0tMKviIiIiPzrFIBF7lOfz/6UyBpVGf7ic8ZZLmvFLz/TqEEd+vZ+1DhLREREROSeUwAWERERERERt6AALCIiIiIiIm5BAVhERERERETcggKwiIiIiIiIuAUFYBEREREREXELCsAiIiIiIiLiFhSARURERERExC0oAIuIiIiIiIhbUAAWERERERERt6AALCIiIiIiIm5BAVhERERERETcggKwiIiIiIiIuAUFYBEREREREXELCsAiIiIiIiLiFkxBeSPsxsb7TWRUB2OTiIiIiIiI/IvWrJhnbHI5LhOAVyydbWyWB1xUsx5630VEbkLHSRER+bdENevxQARgdYEWERERERERt6AALCIiIiIiIm5BAVhERERERETcggKwiIiIiIiIuAUFYBEREREREXELCsAiIiIiIiLiFhSARURERERExC0oAIuIiIiIiIhbUAAWERERERERt6AALCIiIiIiIm5BAVhERERERETcggKwiIiIiIiIuAUFYBEREREREXELCsAiIiIiIiLiFhSARURERERExC0oAIuIiIiIiIhbUAAWERERERERt2AKyhthNzbebyKjOrBi6Wxjszzgopr1uKvve9GwMCJKlMDTw9M4y0lsbCwbN6w3Nv/n/m77U61Wtm3dQuyZM8ZZN/RIl250eLgjp0+dZuiTjxtn/2vq1KtPYPbsxmaH23k/6tSrz8CBg0lIsPDuxLfZs3uXsUTkgXK3j5MiIiJ/JapZD9asmGdsdjluHYCLhoXRs3dfqlSpSq5cublw4TybNm3kgymTbzlEyL1zt7/YPTn0Kfr2HYC3j7dxlpMN69fRt/ejxub/3N9tv8Vi4bUxI/l+4XfGWTd0bX3Hjh2ldcumxtn/mu8X/0jRsDBjs8PtvB+t27TlpVdGY4mP54Xnh91ycBZxVXf7OHk9s9nMgMcHkzNnTlb88jMrfvnZWCIiIm7kQQnAbtsFuk69+nw86zM6dOhIwYKhmM1mChYM5eGHOzHr08+pVr2GcRFxcWfPniP6wH6i9+8jev8+zpw+DcDFSxcdbdH793Hs+DHjoveV+Ph4p+29NsUcOMDluDhjuUuw2WwcP34s0z65wvsh8iCqVbsOX349jz59+9GyZRtKlS5tLBEREXFJbhuAA7Nnx2pN4+sv59C6ZVOqVirH+1MmE3/1anoQ7viIcRFxcV9/OYdOHdrSrk1L2rVpydp1vwEQvW+fo61dm5aMfuUl46L3ldgzZ5y299rUtfPDrF75q7HcJaRZ01iy+PtM++QK74fIg8RsNjP8pVeYOOk9ChUujDXVaiwRERFxaW4bgPfu3cMLLwxjzOiRHIyJwWKx8MGUyfz0048AFCtWzLiIuImoBg157Y1x9OnXn9Zt2vLJ7Dm89c67FA0Lo227DowdP4E+/fo7LVO2fHlGjnmNoU8/49QeHBLCM88+z9z5C1mwcDGzv/iK7j16OtXcCw0bNWLajJksWLiYed8tYuz4CZQtX95YlonZbGbo0884bW/P3n0xm81OdXe6/n/in7yW197HBQsXM3f+Ql5+ZVSmbtdFw8IY8/pY5n23iAULF/PhR7No3aatU43Ig65Bw0a0bdeBNKuV96dM5tixo8YSERERl+a2AfhgTAybN240NnP+3Fn94u3mSpUuTcuWbWjRohUvDn+ZKlWqUbdufUqVKk3FypVp3aYttWrWdlqmUGghWrRoRYMGjRxtkXXqMuvTz+nTtx8lS5aieHgEFStW5rkXhjN1+oxMofJueX74CN6e+B6RkXUpHh5BREQJWrdpy7vvTiGyTl1juYPZbGbSex/Qr/9AwsMjCC1UiAoVKvHscy8w7PkXHXWjX3uDCW9PzrT+KR9Mp32Hjk7rvFtKlyn7l6/l2HFvGcudDHn6f4x69XUqV65KaKFChIdH0Llrd95+Z5Kjpn2Hjsz6bA4dOnQkIqIExcMjqFU7kjGvjmX0a284rU/kQZZmS2PH9m0MGNCX6VPfN84WERFxeW4bgP9KRImSePt4c+LECeMscTOFixTh4MEYXh7xIp9/9gmxsbHGkpvqN2AgoaGFOBAdTa+e3SgVEcZbb44lwWKharXqdHyks3GRWxJaqBCbtu7MNL0/9UMAfL192LlzO0OffJxSEWH0f6wPhw4dIjgkhH4DBhpX51AvKooyZcpy/tw5Bj/en4rlStOmVTOWLVtKclISAJ27dqd58xbYsPHJrI+oWqkcrVs2ZdPGDeTMkZNOnbsYV3tLvLy96NW7b6Z9WrVmHc1atMRsNmOxWPh45gyi6tWmaqVyfP3lHKxpVho2bkznrt2Nq3SIqt8ADzyY8eE0KpYrTY2qFZk8aSLnz58HILRwYfo81p+cOXKyaeMGxyURn8z6CBs2GjZoRMNGf/6wIfIgW7JoEf0f682uHTuMs0RERB4ICsDXeaRLNypWrMyVuDiNdilcOHeBN98cy/x5c5k8aeJtjSjcuGkzwooW40pcHDNmTHX0Nvjk45n8tnYNfn7+FC8Wblzslnh5eWE2mzNNfn5+AEyfPpXH+z/Gz8uXA7D2t9V8+cVsEhMTyJ+vAJUqVzGs8a8djInhmaeGMO6N1wCoXTuSgAAzG9ev463x47BYLByMieHTTz/m4qWLPBQSQo1azmfHb4XJZMLPzz/TPvkHmPH28mLP7l08MWgAb781ntgzZ7BYLIwZPZI/9u7F3z+A8IgI4yr/ksViYfrU93msT3r36QYNG5E370OcPnWaiRMnOC6JeGv8OP7YuxezOQulSmkAIBEREZEHgQJwhqgGDRkw4HH8AwJY+esK5s+baywRN3P27Jk7PgsSHh5OQIAZTy8v+vUbyIKFix1ThfIVIeOa1jtxMCaGUhFhmaZrtwqKv3qVJ4YMZdWadY6zqOXKVcBms2MymfDy8jKuEoCVK1awe/cucgcFMeWD6Sz/ZTXj3nybKtWqOWoKFgzFZrNRJKyY0z49/fSzZMkIrEG5czut91akpqQybeqUTPtUtVI5vl/4HRaLhbCw4nzx1bds3LydjZu388VX32K3p++Tp+eN740MsOLXX7Bho1//gazbsIWPPv6Uhzv9OchdoUKF8fX1IyDAn9GjX3Par4KFCuHt402uoDxO6xQRERER16QADLRq3YZXRo4hd1AQS39YwmuvjjKWiBtKyuj2+0/Y7XbsdudbbV+5EndPb+/zwvCX6Na9J/4BZrZt28LevXuoU6fu315zbLFYGPrkIGZ8OI3Y2FiCQ4Jp1boN73/wIYOeGOJUa7fZnB7bbGkcPXLknt2KqVr1Gox59XXKlivH2bNnWfPbagIC/Clb7u8H3po88R1GvTyCPXt24xfgT42atXhl5JhM12HbyHxL9PNnzzrdMktEREREXJvbB+D2HTry7AvDyZEzJ4u/X8jzz/4Pi8ViLBO5qXz5C+Dt4+14fOHCBaxpqSRYLIwb+3qmW/vcq9v7lC5TlmrVa5KamsKUye8ysF9fBg3sz9QPppCUlGgsz8RisTBp4ts0blCXdm1a8MvPy/Hz86N5i1aEFi7M1atXMJlMbN60MdP+3MtbMTVq1IQ8wcHs2rmTzp3aM+zpoXTr0ok9u3cbS2/o+4Xf0bljeyJrVOX9KZNJTEigcpWqtGrTjqtX4rBarVw8f4HuXR/JtE/t2rTkgymTjasUERERERfk1gG4fYeOPPXMMLJkycLcr79i+IvPGUtEnKQkJWOz2cgeGOh09rBs2bL4ePs4Hu/auZPz58+TK3du2rZt72i/pmSpUlSoWAkyQmvrNm1p1qLlHXeLvsbX1xcvT09sNhvx8fGO9vj4eGyGs7ZGTZo1p1XrNo7HB2Ni+Hn5MpKSkjAHBBASHMLu3buw2WzUqhV5wxGloxo0hIwRpRs3bkLrNm2pVr2Gsey2eXp7YTKZSE5OcvxAZbFYSE6++Vn60mXK8mjP3o736trtzmJjY/H28iEoKDfbt20l/upVCoQWpG//AcZVUKVatUy3TBIRERER1+S2Abhho0Y89cwwcuXMxZUrV6hUubLTtX8fffwppcuUNS4mbm77jvSwVLx4ONNnfMwTQ4Yy+4uvKF++IqkpqY66Pbt38cMPi7GmWWnVpi2LlizjzQkTGTt+Al989S2zPp1D7chIALp27c7Y8RN4+n/PEvQPrzXdumUzJ04ex98/gG49HqVTl6506tKVbj0exd8/wFjupHjx4owc/Spz5y/kheEvMeTp/9H3sQEEBARw/MQxNm5Yz9xvvuJgzAGCQ0J4e+Jkps2YydjxE5j03lR+XbWWoU+l3we5bPkKjHh5JK+PfZNGjZoYn+q27d+3j8TEBEqVLsMro8bQuk1bXhk1hlKlyxhLnZjNZnr3eYzvF//IuDffpt+Ax5k2YyYFC4YSdzWOHdu38/Py5axetRIvTy/69u3P3PkLGTt+Am9OmMiChYuZNOl9DYIlIiIi8oBw2wAcEGDGzzd91Nyg3EEUD49wmooWDfvbaybF/SxZtIgfly3FmmalQsVKPD7oSYoXC+en5ctISU1xqp088R3ef28yFy9dpEjRorRo2YrWbdpStlw5zp8/R3R0NGTc1gggev8+9uze5bSOOzFj+jSOHDlCeHgEI0eO4ZVXRmO1WklMTDCWOtmwYT0HDx4kPDyCHo/2YsCAQRQNC+PIkSPMmD4NMs4Kjxz5EuvXrcXX15fIyLq0btOWho0akS17Nn7/fS8AhQsXxpwlC1evXGHT5sz3275dX33xOYsXL8LL24tHOndl7PgJNG3anJMnjhtLnezZvYtNmzYSmCOQVq3b8NTTzxAZWZfk5CS+/vIL1qxeBcBrr47iqy/nkJSYSMmSpWjdpi0tWraiaFgxjp84zpGjR4yrFhEREREXZArKG5F55Jf7TGRUB1YsnW1slgdcVLMe9+37XrpMWYoUKUKaLY19f/zBwZgYY4mTOvXqE5g9OwCHDh1yBN3QwoWZNv0jgoKCeOftt/ji87u3v9eeMzY29rZu4VQ0LIyIEiXw9PDkclzcX17Te31dUmIia9f+5uie/OzzL9C9Ry/27N5Fty6djIvesWvPabPZ2bZ1C7FnzhhLbshsNlOrVm38/P1JtVr/ctnr6271vRX5L93Px0kREXmwRDXrwZoV84zNLkcBWO5b7vDFrnHTZowa9SoXL11i8KD+HD182FjikqZ8MJ3IyLp88slMJr79lnG2iNwl7nCcFBGR+8ODEoDdtgu0yP0gT1Ae0uw2du3Y/sCEX4AsWbNw5uwZtmzeZJwlIiIiIvKfUQAW+Q99PvtTImtUfeBGIO/VoxtNGtRzXGMrIiIiInI/UAAWERERERERt6AALCIiIiIiIm5BAVhERERERETcggKwiIiIiIiIuAUFYBEREREREXELLhKA7WAyGRtFRERERETkXjOZ0jPZA8AlArDNDv7+ZmOziIiIiIiI3GP+/mZsD0b+dY0AnJqcSPbAIGOziIiIiIiI3GPZA4NITU40NrsklwjAFy+eIc9DocZmERERERERucfyPBTKxYtnjM0uySUCcMy+7WTJmovAXMHGWSIiIiIiInKPBOYKJkvWXMTs226c5ZJcIgADHD28h2IRlTQYloiIiIiIyL/BZKJYRCWOHt5jnOOyXCYAnz1znCuXL1C2Yl2FYBERERERkXvJZKJsxbpcuXyBs2eOG+e6LJcJwACHYnaTnJRIlZrN1B1aRERERETkHgjMFUyVms1ITkrkUMxu42yX5lIBmIwQfOrEQUqWqU3ZSvUIyVsY/4AsOissIiIiIiJyJ0wm/AOyEJK3MGUr1aNkmdqcOnHwgQu/AKagvBEue0ensIgK5MwZgrevPx4mAIVgERERERGR22PHZk+//ezFi2cemAGvbsSlA7CIiIiIiIjIrXK5LtAiIiIiIiIid0IBWERERERERNyCArCIiIiIiIi4BQVgERERERERcQsKwCIiIiIiIuIW/g+meZu+YwNkJgAAAABJRU5ErkJggg==;" parent="1" vertex="1">
          <mxGeometry x="-670" y="1380" width="960" height="260" as="geometry" />
        </mxCell>
        <mxCell id="HS-kTsl2HhBY35uQCvbo-27" style="edgeStyle=orthogonalEdgeStyle;rounded=0;orthogonalLoop=1;jettySize=auto;html=1;" parent="1" source="HS-kTsl2HhBY35uQCvbo-23" edge="1">
          <mxGeometry relative="1" as="geometry">
            <mxPoint x="-90" y="1840" as="targetPoint" />
          </mxGeometry>
        </mxCell>
        <mxCell id="HS-kTsl2HhBY35uQCvbo-29" style="edgeStyle=orthogonalEdgeStyle;rounded=0;orthogonalLoop=1;jettySize=auto;html=1;" parent="1" source="HS-kTsl2HhBY35uQCvbo-23" edge="1">
          <mxGeometry relative="1" as="geometry">
            <mxPoint x="920" y="1930" as="targetPoint" />
          </mxGeometry>
        </mxCell>
        <mxCell id="HS-kTsl2HhBY35uQCvbo-23" value="ERRORES DE COMPRENSION" style="rounded=0;whiteSpace=wrap;html=1;fillColor=#0050ef;fontColor=#ffffff;strokeColor=#001DBC;" parent="1" vertex="1">
          <mxGeometry x="220" y="1754" width="320" height="60" as="geometry" />
        </mxCell>
        <mxCell id="HS-kTsl2HhBY35uQCvbo-24" style="edgeStyle=orthogonalEdgeStyle;rounded=0;orthogonalLoop=1;jettySize=auto;html=1;entryX=0.691;entryY=0.078;entryDx=0;entryDy=0;entryPerimeter=0;" parent="1" source="HS-kTsl2HhBY35uQCvbo-11" target="HS-kTsl2HhBY35uQCvbo-23" edge="1">
          <mxGeometry relative="1" as="geometry" />
        </mxCell>
        <mxCell id="HS-kTsl2HhBY35uQCvbo-31" style="edgeStyle=orthogonalEdgeStyle;rounded=0;orthogonalLoop=1;jettySize=auto;html=1;entryX=0.5;entryY=0;entryDx=0;entryDy=0;" parent="1" source="HS-kTsl2HhBY35uQCvbo-28" target="HS-kTsl2HhBY35uQCvbo-32" edge="1">
          <mxGeometry relative="1" as="geometry">
            <mxPoint x="130" y="2410" as="targetPoint" />
          </mxGeometry>
        </mxCell>
        <mxCell id="HS-kTsl2HhBY35uQCvbo-28" value="LAS FILAS SOLO&amp;nbsp; SOLO PUEDEN TOCAR UNA COLUMNA EN SU FILA,, ES DECIR UNA FILA SOLO PUEDE TOCAR UNA VEZ LA COLUMNA" style="rounded=0;whiteSpace=wrap;html=1;" parent="1" vertex="1">
          <mxGeometry x="-490" y="1890" width="730" height="270" as="geometry" />
        </mxCell>
        <mxCell id="HS-kTsl2HhBY35uQCvbo-33" style="edgeStyle=orthogonalEdgeStyle;rounded=0;orthogonalLoop=1;jettySize=auto;html=1;entryX=0.75;entryY=0;entryDx=0;entryDy=0;" parent="1" source="HS-kTsl2HhBY35uQCvbo-30" target="HS-kTsl2HhBY35uQCvbo-32" edge="1">
          <mxGeometry relative="1" as="geometry" />
        </mxCell>
        <mxCell id="HS-kTsl2HhBY35uQCvbo-30" value="LAS COLUMNAS PUEDEN TOCAR UNA O VARIAS FILAS COMO CUANDO SUBRAYAS VARIAS CELDAS EN UNA MISMA COLUMNA EN EXCEL PERO NO EN LA MISMA FILA, TOCAS VARIAS FILAS PERO SOLO ESTAS EN UNA SOLA COLUMNA, SE LEE DE FORMA VERTICA, ES DECIR UNA COLUMNA PUIEDE TOCAR MULTIPLES FILAS" style="rounded=0;whiteSpace=wrap;html=1;" parent="1" vertex="1">
          <mxGeometry x="620" y="1910" width="670" height="280" as="geometry" />
        </mxCell>
        <mxCell id="HS-kTsl2HhBY35uQCvbo-32" value="RESUMEN" style="rounded=0;whiteSpace=wrap;html=1;fillColor=#0050ef;fontColor=#ffffff;strokeColor=#001DBC;" parent="1" vertex="1">
          <mxGeometry x="250" y="2370" width="120" height="60" as="geometry" />
        </mxCell>
        <mxCell id="HS-kTsl2HhBY35uQCvbo-35" value="SI PONES ATENCION, Y SI LO PIENSAS BIEN, AL OBTENER LA ALTURA, LETENDO UNA SOLA FILA DE LA MASCARA SI NOS DEVUELVE DOS TRUE, LO MAS PROBABLE ES PORQUE SE ESTA AJUSTANDO AL TAMAÃO DE VARIAS&amp;nbsp; COLUMNAS QUE TOCAN SU FILA&amp;nbsp; (PIXEL) QUE ESTA TOCANDO VARIAS FILAS, DE ESTA MANERA ASEGURAMOS REPRESENTAR CON SUFICIENTE ALTURA UN PIXEL" style="rounded=0;whiteSpace=wrap;html=1;" parent="1" vertex="1">
          <mxGeometry x="-550" y="2460" width="720" height="260" as="geometry" />
        </mxCell>
        <mxCell id="HS-kTsl2HhBY35uQCvbo-36" style="edgeStyle=orthogonalEdgeStyle;rounded=0;orthogonalLoop=1;jettySize=auto;html=1;entryX=0.548;entryY=0.011;entryDx=0;entryDy=0;entryPerimeter=0;" parent="1" source="HS-kTsl2HhBY35uQCvbo-32" target="HS-kTsl2HhBY35uQCvbo-35" edge="1">
          <mxGeometry relative="1" as="geometry" />
        </mxCell>
        <mxCell id="HS-kTsl2HhBY35uQCvbo-37" value="EL ANCHO TOCA MULTIPLES FILAS, PORQUE MUCHOS PIXELES ESTAN SOBRE EL MISMO EJE DE ESTA MANERA ASEGURAMOS REPRESENTAR CON SUFICIENTE ANCHURA Y OCUPAR TODO EL ESPACIO DE LA ALTURA&amp;nbsp;" style="rounded=0;whiteSpace=wrap;html=1;" parent="1" vertex="1">
          <mxGeometry x="400" y="2460" width="500" height="270" as="geometry" />
        </mxCell>
        <mxCell id="HS-kTsl2HhBY35uQCvbo-38" style="edgeStyle=orthogonalEdgeStyle;rounded=0;orthogonalLoop=1;jettySize=auto;html=1;entryX=0.629;entryY=0.004;entryDx=0;entryDy=0;entryPerimeter=0;" parent="1" source="HS-kTsl2HhBY35uQCvbo-32" target="HS-kTsl2HhBY35uQCvbo-37" edge="1">
          <mxGeometry relative="1" as="geometry" />
        </mxCell>
        <mxCell id="O4QHP7WZ1iR6nGvqIFcb-5" value="" style="endArrow=classic;html=1;rounded=0;exitX=0.5;exitY=1;exitDx=0;exitDy=0;entryX=0.411;entryY=-0.06;entryDx=0;entryDy=0;entryPerimeter=0;" edge="1" parent="1" source="HS-kTsl2HhBY35uQCvbo-5" target="HS-kTsl2HhBY35uQCvbo-13">
          <mxGeometry width="50" height="50" relative="1" as="geometry">
            <mxPoint x="480" y="680" as="sourcePoint" />
            <mxPoint x="530" y="630" as="targetPoint" />
          </mxGeometry>
        </mxCell>
      </root>
    </mxGraphModel>
  </diagram>
</mxfile>
